<svg xmlns="http://www.w3.org/2000/svg" viewBox="0 0 128 64" width="128" height="64" shape-rendering="crispEdges"><title>Pebblebol screen: boot_splash</title><rect width="128" height="64" fill="#000"/><g fill="#fff"><rect x="34" y="21" width="5" height="1"/><rect x="52" y="21" width="5" height="1"/><rect x="58" y="21" width="5" height="1"/><rect x="64" y="21" width="5" height="1"/><rect x="70" y="21" width="5" height="1"/><rect x="76" y="21" width="5" height="1"/><rect x="82" y="21" width="5" height="1"/><rect x="94" y="21" width="5" height="1"/><rect x="28" y="22" width="5" height="1"/><rect x="34" y="22" width="5" height="1"/><rect x="70" y="22" width="5" height="1"/><rect x="76" y="22" width="5" height="1"/><rect x="82" y="22" width="5" height="1"/><rect x="28" y="23" width="5" height="1"/><rect x="34" y="23" width="5" height="1"/><rect x="40" y="23" width="5" height="1"/><rect x="46" y="23" width="5" height="1"/><rect x="58" y="23" width="5" height="1"/><rect x="70" y="23" width="5" height="1"/><rect x="76" y="23" width="5" height="1"/><rect x="28" y="24" width="5" height="1"/><rect x="34" y="24" width="5" height="1"/><rect x="58" y="24" width="5" height="1"/><rect x="76" y="24" width="5" height="1"/><rect x="88" y="24" width="5" height="1"/><rect x="94" y="24" width="5" height="1"/><rect x="40" y="25" width="5" height="1"/><rect x="46" y="25" width="5" height="1"/><rect x="28" y="27" width="5" height="1"/><rect x="34" y="27" width="5" height="1"/><rect x="40" y="27" width="5" height="1"/><rect x="46" y="27" width="5" height="1"/><rect x="52" y="27" width="5" height="1"/><rect x="58" y="27" width="5" height="1"/><rect x="64" y="27" width="5" height="1"/><rect x="70" y="27" width="5" height="1"/><rect x="76" y="27" width="5" height="1"/><rect x="82" y="27" width="5" height="1"/><rect x="88" y="27" width="5" height="1"/><rect x="94" y="27" width="5" height="1"/><rect x="28" y="28" width="5" height="1"/><rect x="34" y="28" width="5" height="1"/><rect x="40" y="28" width="5" height="1"/><rect x="46" y="28" width="5" height="1"/><rect x="52" y="28" width="5" height="1"/><rect x="58" y="28" width="5" height="1"/><rect x="64" y="28" width="5" height="1"/><rect x="70" y="28" width="5" height="1"/><rect x="76" y="28" width="5" height="1"/><rect x="82" y="28" width="5" height="1"/><rect x="88" y="28" width="5" height="1"/><rect x="94" y="28" width="5" height="1"/><rect x="66" y="36" width="3" height="1"/><rect x="74" y="36" width="3" height="1"/><rect x="50" y="37" width="3" height="1"/><rect x="54" y="37" width="3" height="1"/><rect x="58" y="37" width="3" height="1"/><rect x="78" y="37" width="3" height="1"/><rect x="50" y="38" width="3" height="1"/><rect x="58" y="38" width="3" height="1"/><rect x="66" y="38" width="3" height="1"/><rect x="70" y="38" width="3" height="1"/><rect x="74" y="38" width="3" height="1"/><rect x="78" y="38" width="3" height="1"/><rect x="50" y="39" width="3" height="1"/><rect x="58" y="39" width="3" height="1"/><rect x="66" y="39" width="3" height="1"/><rect x="46" y="40" width="3" height="1"/><rect x="50" y="40" width="3" height="1"/><rect x="54" y="40" width="3" height="1"/><rect x="58" y="40" width="3" height="1"/><rect x="62" y="40" width="3" height="1"/><rect x="66" y="40" width="3" height="1"/><rect x="70" y="40" width="3" height="1"/><rect x="74" y="40" width="3" height="1"/><rect x="78" y="40" width="3" height="1"/></g></svg>
