<svg xmlns="http://www.w3.org/2000/svg" viewBox="0 0 128 64" width="128" height="64" shape-rendering="crispEdges"><title>Pebblebol screen: boot_splash</title><rect width="128" height="64" fill="#000"/><g fill="#fff"><rect x="46" y="20" width="5" height="1"/><rect x="52" y="20" width="4" height="1"/><rect x="58" y="20" width="4" height="1"/><rect x="66" y="20" width="1" height="1"/><rect x="70" y="20" width="6" height="1"/><rect x="78" y="20" width="1" height="1"/><rect x="46" y="21" width="2" height="1"/><rect x="50" y="21" width="1" height="1"/><rect x="52" y="21" width="2" height="1"/><rect x="55" y="21" width="2" height="1"/><rect x="58" y="21" width="2" height="1"/><rect x="61" y="21" width="2" height="1"/><rect x="65" y="21" width="2" height="1"/><rect x="70" y="21" width="1" height="1"/><rect x="72" y="21" width="2" height="1"/><rect x="77" y="21" width="2" height="1"/><rect x="46" y="22" width="2" height="1"/><rect x="52" y="22" width="2" height="1"/><rect x="55" y="22" width="2" height="1"/><rect x="58" y="22" width="2" height="1"/><rect x="61" y="22" width="2" height="1"/><rect x="65" y="22" width="3" height="1"/><rect x="72" y="22" width="2" height="1"/><rect x="77" y="22" width="3" height="1"/><rect x="46" y="23" width="4" height="1"/><rect x="52" y="23" width="4" height="1"/><rect x="58" y="23" width="4" height="1"/><rect x="65" y="23" width="1" height="1"/><rect x="67" y="23" width="1" height="1"/><rect x="72" y="23" width="2" height="1"/><rect x="77" y="23" width="1" height="1"/><rect x="79" y="23" width="1" height="1"/><rect x="46" y="24" width="2" height="1"/><rect x="52" y="24" width="2" height="1"/><rect x="55" y="24" width="1" height="1"/><rect x="58" y="24" width="2" height="1"/><rect x="61" y="24" width="1" height="1"/><rect x="64" y="24" width="5" height="1"/><rect x="72" y="24" width="2" height="1"/><rect x="76" y="24" width="5" height="1"/><rect x="46" y="25" width="2" height="1"/><rect x="52" y="25" width="2" height="1"/><rect x="55" y="25" width="2" height="1"/><rect x="58" y="25" width="2" height="1"/><rect x="61" y="25" width="2" height="1"/><rect x="64" y="25" width="2" height="1"/><rect x="67" y="25" width="2" height="1"/><rect x="72" y="25" width="2" height="1"/><rect x="76" y="25" width="2" height="1"/><rect x="79" y="25" width="2" height="1"/><rect x="46" y="26" width="2" height="1"/><rect x="50" y="26" width="1" height="1"/><rect x="52" y="26" width="2" height="1"/><rect x="55" y="26" width="2" height="1"/><rect x="58" y="26" width="2" height="1"/><rect x="61" y="26" width="2" height="1"/><rect x="64" y="26" width="1" height="1"/><rect x="67" y="26" width="2" height="1"/><rect x="72" y="26" width="2" height="1"/><rect x="76" y="26" width="1" height="1"/><rect x="79" y="26" width="2" height="1"/><rect x="46" y="27" width="5" height="1"/><rect x="52" y="27" width="2" height="1"/><rect x="55" y="27" width="2" height="1"/><rect x="58" y="27" width="2" height="1"/><rect x="61" y="27" width="2" height="1"/><rect x="64" y="27" width="1" height="1"/><rect x="67" y="27" width="2" height="1"/><rect x="72" y="27" width="2" height="1"/><rect x="76" y="27" width="1" height="1"/><rect x="79" y="27" width="2" height="1"/><rect x="47" y="35" width="1" height="1"/><rect x="55" y="35" width="1" height="1"/><rect x="63" y="35" width="1" height="1"/><rect x="79" y="35" width="1" height="1"/><rect x="46" y="36" width="2" height="1"/><rect x="54" y="36" width="1" height="1"/><rect x="56" y="36" width="1" height="1"/><rect x="62" y="36" width="1" height="1"/><rect x="64" y="36" width="1" height="1"/><rect x="70" y="36" width="1" height="1"/><rect x="72" y="36" width="1" height="1"/><rect x="75" y="36" width="2" height="1"/><rect x="78" y="36" width="2" height="1"/><rect x="47" y="37" width="1" height="1"/><rect x="54" y="37" width="3" height="1"/><rect x="62" y="37" width="3" height="1"/><rect x="66" y="37" width="3" height="1"/><rect x="70" y="37" width="2" height="1"/><rect x="74" y="37" width="1" height="1"/><rect x="79" y="37" width="1" height="1"/><rect x="47" y="38" width="1" height="1"/><rect x="54" y="38" width="1" height="1"/><rect x="56" y="38" width="1" height="1"/><rect x="62" y="38" width="1" height="1"/><rect x="64" y="38" width="1" height="1"/><rect x="70" y="38" width="1" height="1"/><rect x="74" y="38" width="1" height="1"/><rect x="79" y="38" width="1" height="1"/><rect x="46" y="39" width="3" height="1"/><rect x="51" y="39" width="1" height="1"/><rect x="55" y="39" width="1" height="1"/><rect x="59" y="39" width="1" height="1"/><rect x="63" y="39" width="1" height="1"/><rect x="70" y="39" width="1" height="1"/><rect x="75" y="39" width="2" height="1"/><rect x="78" y="39" width="3" height="1"/></g></svg>
