<svg xmlns="http://www.w3.org/2000/svg" viewBox="0 0 128 64" width="128" height="64" shape-rendering="crispEdges"><title>Pebblebol screen: capture_ready</title><rect width="128" height="64" fill="#000"/><g fill="#fff"><rect x="0" y="0" width="128" height="1"/><rect x="0" y="1" width="3" height="1"/><rect x="7" y="1" width="3" height="1"/><rect x="11" y="1" width="3" height="1"/><rect x="18" y="1" width="2" height="1"/><rect x="28" y="1" width="1" height="1"/><rect x="31" y="1" width="1" height="1"/><rect x="36" y="1" width="4" height="1"/><rect x="41" y="1" width="87" height="1"/><rect x="0" y="2" width="2" height="1"/><rect x="4" y="2" width="2" height="1"/><rect x="7" y="2" width="2" height="1"/><rect x="11" y="2" width="3" height="1"/><rect x="16" y="2" width="1" height="1"/><rect x="19" y="2" width="1" height="1"/><rect x="21" y="2" width="1" height="1"/><rect x="24" y="2" width="2" height="1"/><rect x="28" y="2" width="1" height="1"/><rect x="31" y="2" width="1" height="1"/><rect x="34" y="2" width="1" height="1"/><rect x="37" y="2" width="2" height="1"/><rect x="41" y="2" width="87" height="1"/><rect x="0" y="3" width="2" height="1"/><rect x="4" y="3" width="5" height="1"/><rect x="12" y="3" width="2" height="1"/><rect x="16" y="3" width="1" height="1"/><rect x="19" y="3" width="3" height="1"/><rect x="24" y="3" width="2" height="1"/><rect x="28" y="3" width="1" height="1"/><rect x="31" y="3" width="1" height="1"/><rect x="34" y="3" width="1" height="1"/><rect x="37" y="3" width="2" height="1"/><rect x="42" y="3" width="86" height="1"/><rect x="0" y="4" width="2" height="1"/><rect x="4" y="4" width="5" height="1"/><rect x="10" y="4" width="1" height="1"/><rect x="12" y="4" width="2" height="1"/><rect x="16" y="4" width="1" height="1"/><rect x="19" y="4" width="3" height="1"/><rect x="24" y="4" width="2" height="1"/><rect x="28" y="4" width="1" height="1"/><rect x="31" y="4" width="1" height="1"/><rect x="36" y="4" width="3" height="1"/><rect x="40" y="4" width="1" height="1"/><rect x="42" y="4" width="86" height="1"/><rect x="0" y="5" width="2" height="1"/><rect x="4" y="5" width="4" height="1"/><rect x="13" y="5" width="1" height="1"/><rect x="18" y="5" width="4" height="1"/><rect x="24" y="5" width="2" height="1"/><rect x="28" y="5" width="1" height="1"/><rect x="31" y="5" width="1" height="1"/><rect x="34" y="5" width="1" height="1"/><rect x="36" y="5" width="2" height="1"/><rect x="43" y="5" width="85" height="1"/><rect x="0" y="6" width="2" height="1"/><rect x="4" y="6" width="4" height="1"/><rect x="10" y="6" width="1" height="1"/><rect x="13" y="6" width="1" height="1"/><rect x="16" y="6" width="6" height="1"/><rect x="24" y="6" width="2" height="1"/><rect x="28" y="6" width="1" height="1"/><rect x="31" y="6" width="1" height="1"/><rect x="34" y="6" width="1" height="1"/><rect x="37" y="6" width="1" height="1"/><rect x="40" y="6" width="1" height="1"/><rect x="43" y="6" width="85" height="1"/><rect x="0" y="7" width="2" height="1"/><rect x="4" y="7" width="2" height="1"/><rect x="7" y="7" width="1" height="1"/><rect x="9" y="7" width="2" height="1"/><rect x="13" y="7" width="1" height="1"/><rect x="16" y="7" width="6" height="1"/><rect x="24" y="7" width="2" height="1"/><rect x="28" y="7" width="1" height="1"/><rect x="31" y="7" width="1" height="1"/><rect x="34" y="7" width="1" height="1"/><rect x="37" y="7" width="1" height="1"/><rect x="39" y="7" width="2" height="1"/><rect x="43" y="7" width="85" height="1"/><rect x="0" y="8" width="3" height="1"/><rect x="7" y="8" width="1" height="1"/><rect x="9" y="8" width="2" height="1"/><rect x="13" y="8" width="1" height="1"/><rect x="16" y="8" width="6" height="1"/><rect x="24" y="8" width="3" height="1"/><rect x="30" y="8" width="2" height="1"/><rect x="34" y="8" width="1" height="1"/><rect x="37" y="8" width="1" height="1"/><rect x="39" y="8" width="2" height="1"/><rect x="43" y="8" width="85" height="1"/><rect x="0" y="9" width="128" height="1"/><rect x="0" y="10" width="128" height="1"/><rect x="39" y="15" width="3" height="1"/><rect x="49" y="15" width="1" height="1"/><rect x="60" y="15" width="1" height="1"/><rect x="74" y="15" width="1" height="1"/><rect x="77" y="15" width="1" height="1"/><rect x="84" y="15" width="4" height="1"/><rect x="39" y="16" width="1" height="1"/><rect x="42" y="16" width="1" height="1"/><rect x="49" y="16" width="1" height="1"/><rect x="60" y="16" width="1" height="1"/><rect x="74" y="16" width="2" height="1"/><rect x="77" y="16" width="1" height="1"/><rect x="87" y="16" width="1" height="1"/><rect x="39" y="17" width="1" height="1"/><rect x="42" y="17" width="1" height="1"/><rect x="45" y="17" width="3" height="1"/><rect x="49" y="17" width="1" height="1"/><rect x="52" y="17" width="1" height="1"/><rect x="55" y="17" width="2" height="1"/><rect x="59" y="17" width="3" height="1"/><rect x="65" y="17" width="2" height="1"/><rect x="74" y="17" width="4" height="1"/><rect x="80" y="17" width="1" height="1"/><rect x="82" y="17" width="1" height="1"/><rect x="86" y="17" width="1" height="1"/><rect x="39" y="18" width="3" height="1"/><rect x="44" y="18" width="1" height="1"/><rect x="47" y="18" width="1" height="1"/><rect x="49" y="18" width="3" height="1"/><rect x="54" y="18" width="1" height="1"/><rect x="56" y="18" width="2" height="1"/><rect x="60" y="18" width="1" height="1"/><rect x="64" y="18" width="1" height="1"/><rect x="67" y="18" width="1" height="1"/><rect x="74" y="18" width="1" height="1"/><rect x="76" y="18" width="2" height="1"/><rect x="80" y="18" width="1" height="1"/><rect x="82" y="18" width="1" height="1"/><rect x="86" y="18" width="1" height="1"/><rect x="39" y="19" width="1" height="1"/><rect x="44" y="19" width="1" height="1"/><rect x="47" y="19" width="1" height="1"/><rect x="49" y="19" width="1" height="1"/><rect x="52" y="19" width="1" height="1"/><rect x="54" y="19" width="2" height="1"/><rect x="60" y="19" width="1" height="1"/><rect x="62" y="19" width="1" height="1"/><rect x="64" y="19" width="1" height="1"/><rect x="67" y="19" width="1" height="1"/><rect x="74" y="19" width="1" height="1"/><rect x="76" y="19" width="2" height="1"/><rect x="80" y="19" width="1" height="1"/><rect x="82" y="19" width="1" height="1"/><rect x="85" y="19" width="1" height="1"/><rect x="39" y="20" width="1" height="1"/><rect x="45" y="20" width="3" height="1"/><rect x="49" y="20" width="1" height="1"/><rect x="52" y="20" width="1" height="1"/><rect x="55" y="20" width="2" height="1"/><rect x="61" y="20" width="1" height="1"/><rect x="65" y="20" width="2" height="1"/><rect x="74" y="20" width="1" height="1"/><rect x="77" y="20" width="1" height="1"/><rect x="81" y="20" width="1" height="1"/><rect x="85" y="20" width="1" height="1"/><rect x="57" y="28" width="2" height="1"/><rect x="61" y="28" width="5" height="1"/><rect x="68" y="28" width="1" height="1"/><rect x="71" y="28" width="1" height="1"/><rect x="56" y="29" width="1" height="1"/><rect x="65" y="29" width="1" height="1"/><rect x="67" y="29" width="1" height="1"/><rect x="69" y="29" width="1" height="1"/><rect x="71" y="29" width="1" height="1"/><rect x="55" y="30" width="1" height="1"/><rect x="64" y="30" width="1" height="1"/><rect x="68" y="30" width="1" height="1"/><rect x="70" y="30" width="1" height="1"/><rect x="55" y="31" width="1" height="1"/><rect x="57" y="31" width="2" height="1"/><rect x="63" y="31" width="2" height="1"/><rect x="69" y="31" width="1" height="1"/><rect x="55" y="32" width="2" height="1"/><rect x="59" y="32" width="1" height="1"/><rect x="65" y="32" width="1" height="1"/><rect x="68" y="32" width="1" height="1"/><rect x="70" y="32" width="1" height="1"/><rect x="55" y="33" width="1" height="1"/><rect x="59" y="33" width="1" height="1"/><rect x="61" y="33" width="1" height="1"/><rect x="65" y="33" width="1" height="1"/><rect x="67" y="33" width="1" height="1"/><rect x="69" y="33" width="1" height="1"/><rect x="71" y="33" width="1" height="1"/><rect x="56" y="34" width="3" height="1"/><rect x="62" y="34" width="3" height="1"/><rect x="67" y="34" width="1" height="1"/><rect x="70" y="34" width="1" height="1"/><rect x="45" y="40" width="2" height="1"/><rect x="51" y="40" width="1" height="1"/><rect x="74" y="40" width="1" height="1"/><rect x="44" y="41" width="1" height="1"/><rect x="47" y="41" width="1" height="1"/><rect x="74" y="41" width="1" height="1"/><rect x="45" y="42" width="1" height="1"/><rect x="50" y="42" width="2" height="1"/><rect x="54" y="42" width="3" height="1"/><rect x="66" y="42" width="2" height="1"/><rect x="70" y="42" width="2" height="1"/><rect x="74" y="42" width="3" height="1"/><rect x="80" y="42" width="2" height="1"/><rect x="46" y="43" width="1" height="1"/><rect x="51" y="43" width="1" height="1"/><rect x="54" y="43" width="1" height="1"/><rect x="57" y="43" width="1" height="1"/><rect x="65" y="43" width="1" height="1"/><rect x="69" y="43" width="1" height="1"/><rect x="71" y="43" width="2" height="1"/><rect x="74" y="43" width="1" height="1"/><rect x="77" y="43" width="1" height="1"/><rect x="79" y="43" width="1" height="1"/><rect x="82" y="43" width="1" height="1"/><rect x="44" y="44" width="1" height="1"/><rect x="47" y="44" width="1" height="1"/><rect x="51" y="44" width="1" height="1"/><rect x="54" y="44" width="1" height="1"/><rect x="57" y="44" width="1" height="1"/><rect x="65" y="44" width="1" height="1"/><rect x="69" y="44" width="2" height="1"/><rect x="74" y="44" width="1" height="1"/><rect x="77" y="44" width="1" height="1"/><rect x="79" y="44" width="1" height="1"/><rect x="82" y="44" width="1" height="1"/><rect x="45" y="45" width="2" height="1"/><rect x="50" y="45" width="3" height="1"/><rect x="54" y="45" width="1" height="1"/><rect x="57" y="45" width="1" height="1"/><rect x="66" y="45" width="2" height="1"/><rect x="70" y="45" width="2" height="1"/><rect x="74" y="45" width="3" height="1"/><rect x="80" y="45" width="2" height="1"/><rect x="116" y="56" width="1" height="1"/><rect x="5" y="57" width="1" height="1"/><rect x="11" y="57" width="2" height="1"/><rect x="15" y="57" width="1" height="1"/><rect x="18" y="57" width="1" height="1"/><rect x="20" y="57" width="4" height="1"/><rect x="26" y="57" width="2" height="1"/><rect x="30" y="57" width="3" height="1"/><rect x="100" y="57" width="2" height="1"/><rect x="105" y="57" width="3" height="1"/><rect x="109" y="57" width="3" height="1"/><rect x="115" y="57" width="1" height="1"/><rect x="120" y="57" width="2" height="1"/><rect x="3" y="58" width="1" height="1"/><rect x="5" y="58" width="1" height="1"/><rect x="10" y="58" width="1" height="1"/><rect x="13" y="58" width="1" height="1"/><rect x="15" y="58" width="2" height="1"/><rect x="18" y="58" width="1" height="1"/><rect x="23" y="58" width="1" height="1"/><rect x="25" y="58" width="1" height="1"/><rect x="28" y="58" width="1" height="1"/><rect x="30" y="58" width="1" height="1"/><rect x="33" y="58" width="1" height="1"/><rect x="99" y="58" width="1" height="1"/><rect x="102" y="58" width="1" height="1"/><rect x="106" y="58" width="1" height="1"/><rect x="109" y="58" width="1" height="1"/><rect x="112" y="58" width="1" height="1"/><rect x="115" y="58" width="2" height="1"/><rect x="119" y="58" width="1" height="1"/><rect x="122" y="58" width="1" height="1"/><rect x="124" y="58" width="1" height="1"/><rect x="2" y="59" width="2" height="1"/><rect x="5" y="59" width="1" height="1"/><rect x="10" y="59" width="1" height="1"/><rect x="13" y="59" width="1" height="1"/><rect x="15" y="59" width="4" height="1"/><rect x="22" y="59" width="1" height="1"/><rect x="25" y="59" width="1" height="1"/><rect x="28" y="59" width="1" height="1"/><rect x="30" y="59" width="1" height="1"/><rect x="33" y="59" width="1" height="1"/><rect x="99" y="59" width="1" height="1"/><rect x="102" y="59" width="1" height="1"/><rect x="106" y="59" width="1" height="1"/><rect x="109" y="59" width="1" height="1"/><rect x="112" y="59" width="1" height="1"/><rect x="114" y="59" width="1" height="1"/><rect x="117" y="59" width="1" height="1"/><rect x="120" y="59" width="1" height="1"/><rect x="124" y="59" width="2" height="1"/><rect x="0" y="60" width="4" height="1"/><rect x="5" y="60" width="1" height="1"/><rect x="10" y="60" width="4" height="1"/><rect x="15" y="60" width="1" height="1"/><rect x="17" y="60" width="2" height="1"/><rect x="21" y="60" width="1" height="1"/><rect x="25" y="60" width="4" height="1"/><rect x="30" y="60" width="3" height="1"/><rect x="37" y="60" width="1" height="1"/><rect x="40" y="60" width="1" height="1"/><rect x="43" y="60" width="1" height="1"/><rect x="46" y="60" width="1" height="1"/><rect x="49" y="60" width="1" height="1"/><rect x="52" y="60" width="1" height="1"/><rect x="55" y="60" width="1" height="1"/><rect x="58" y="60" width="1" height="1"/><rect x="61" y="60" width="1" height="1"/><rect x="64" y="60" width="1" height="1"/><rect x="67" y="60" width="1" height="1"/><rect x="70" y="60" width="1" height="1"/><rect x="73" y="60" width="1" height="1"/><rect x="76" y="60" width="1" height="1"/><rect x="79" y="60" width="1" height="1"/><rect x="82" y="60" width="1" height="1"/><rect x="85" y="60" width="1" height="1"/><rect x="88" y="60" width="1" height="1"/><rect x="91" y="60" width="1" height="1"/><rect x="94" y="60" width="1" height="1"/><rect x="99" y="60" width="4" height="1"/><rect x="106" y="60" width="1" height="1"/><rect x="109" y="60" width="3" height="1"/><rect x="114" y="60" width="4" height="1"/><rect x="121" y="60" width="1" height="1"/><rect x="124" y="60" width="4" height="1"/><rect x="2" y="61" width="2" height="1"/><rect x="5" y="61" width="1" height="1"/><rect x="10" y="61" width="1" height="1"/><rect x="13" y="61" width="1" height="1"/><rect x="15" y="61" width="1" height="1"/><rect x="17" y="61" width="2" height="1"/><rect x="20" y="61" width="1" height="1"/><rect x="25" y="61" width="1" height="1"/><rect x="28" y="61" width="1" height="1"/><rect x="30" y="61" width="1" height="1"/><rect x="33" y="61" width="1" height="1"/><rect x="99" y="61" width="1" height="1"/><rect x="102" y="61" width="1" height="1"/><rect x="106" y="61" width="1" height="1"/><rect x="109" y="61" width="1" height="1"/><rect x="112" y="61" width="1" height="1"/><rect x="114" y="61" width="1" height="1"/><rect x="117" y="61" width="1" height="1"/><rect x="119" y="61" width="1" height="1"/><rect x="122" y="61" width="1" height="1"/><rect x="124" y="61" width="2" height="1"/><rect x="3" y="62" width="1" height="1"/><rect x="5" y="62" width="4" height="1"/><rect x="10" y="62" width="1" height="1"/><rect x="13" y="62" width="1" height="1"/><rect x="15" y="62" width="1" height="1"/><rect x="18" y="62" width="1" height="1"/><rect x="20" y="62" width="4" height="1"/><rect x="25" y="62" width="1" height="1"/><rect x="28" y="62" width="1" height="1"/><rect x="30" y="62" width="1" height="1"/><rect x="33" y="62" width="1" height="1"/><rect x="99" y="62" width="1" height="1"/><rect x="102" y="62" width="1" height="1"/><rect x="106" y="62" width="1" height="1"/><rect x="109" y="62" width="1" height="1"/><rect x="112" y="62" width="1" height="1"/><rect x="114" y="62" width="1" height="1"/><rect x="117" y="62" width="1" height="1"/><rect x="120" y="62" width="2" height="1"/><rect x="124" y="62" width="1" height="1"/></g></svg>
