<svg xmlns="http://www.w3.org/2000/svg" viewBox="0 0 128 64" width="128" height="64" shape-rendering="crispEdges"><title>Pebblebol screen: care_bag_empty</title><rect width="128" height="64" fill="#000"/><g fill="#fff"><rect x="0" y="0" width="128" height="1"/><rect x="0" y="1" width="2" height="1"/><rect x="3" y="1" width="3" height="1"/><rect x="7" y="1" width="2" height="1"/><rect x="12" y="1" width="3" height="1"/><rect x="19" y="1" width="1" height="1"/><rect x="22" y="1" width="1" height="1"/><rect x="25" y="1" width="2" height="1"/><rect x="31" y="1" width="1" height="1"/><rect x="34" y="1" width="6" height="1"/><rect x="41" y="1" width="87" height="1"/><rect x="0" y="2" width="2" height="1"/><rect x="4" y="2" width="1" height="1"/><rect x="7" y="2" width="1" height="1"/><rect x="10" y="2" width="1" height="1"/><rect x="13" y="2" width="1" height="1"/><rect x="16" y="2" width="2" height="1"/><rect x="19" y="2" width="1" height="1"/><rect x="22" y="2" width="1" height="1"/><rect x="25" y="2" width="3" height="1"/><rect x="30" y="2" width="2" height="1"/><rect x="34" y="2" width="5" height="1"/><rect x="41" y="2" width="87" height="1"/><rect x="0" y="3" width="2" height="1"/><rect x="7" y="3" width="1" height="1"/><rect x="10" y="3" width="1" height="1"/><rect x="13" y="3" width="1" height="1"/><rect x="16" y="3" width="4" height="1"/><rect x="22" y="3" width="1" height="1"/><rect x="25" y="3" width="3" height="1"/><rect x="30" y="3" width="2" height="1"/><rect x="34" y="3" width="5" height="1"/><rect x="42" y="3" width="86" height="1"/><rect x="0" y="4" width="2" height="1"/><rect x="7" y="4" width="1" height="1"/><rect x="10" y="4" width="1" height="1"/><rect x="13" y="4" width="1" height="1"/><rect x="16" y="4" width="4" height="1"/><rect x="25" y="4" width="3" height="1"/><rect x="30" y="4" width="2" height="1"/><rect x="34" y="4" width="5" height="1"/><rect x="40" y="4" width="1" height="1"/><rect x="42" y="4" width="86" height="1"/><rect x="0" y="5" width="2" height="1"/><rect x="3" y="5" width="1" height="1"/><rect x="5" y="5" width="1" height="1"/><rect x="7" y="5" width="1" height="1"/><rect x="10" y="5" width="1" height="1"/><rect x="13" y="5" width="1" height="1"/><rect x="16" y="5" width="4" height="1"/><rect x="22" y="5" width="1" height="1"/><rect x="25" y="5" width="3" height="1"/><rect x="30" y="5" width="2" height="1"/><rect x="34" y="5" width="4" height="1"/><rect x="43" y="5" width="85" height="1"/><rect x="0" y="6" width="2" height="1"/><rect x="3" y="6" width="1" height="1"/><rect x="5" y="6" width="1" height="1"/><rect x="7" y="6" width="1" height="1"/><rect x="10" y="6" width="1" height="1"/><rect x="13" y="6" width="1" height="1"/><rect x="16" y="6" width="4" height="1"/><rect x="22" y="6" width="1" height="1"/><rect x="25" y="6" width="3" height="1"/><rect x="30" y="6" width="2" height="1"/><rect x="34" y="6" width="4" height="1"/><rect x="40" y="6" width="1" height="1"/><rect x="43" y="6" width="85" height="1"/><rect x="0" y="7" width="2" height="1"/><rect x="3" y="7" width="3" height="1"/><rect x="7" y="7" width="1" height="1"/><rect x="10" y="7" width="1" height="1"/><rect x="13" y="7" width="1" height="1"/><rect x="16" y="7" width="2" height="1"/><rect x="19" y="7" width="1" height="1"/><rect x="22" y="7" width="1" height="1"/><rect x="25" y="7" width="3" height="1"/><rect x="30" y="7" width="2" height="1"/><rect x="34" y="7" width="2" height="1"/><rect x="37" y="7" width="1" height="1"/><rect x="39" y="7" width="2" height="1"/><rect x="43" y="7" width="85" height="1"/><rect x="0" y="8" width="2" height="1"/><rect x="3" y="8" width="3" height="1"/><rect x="7" y="8" width="2" height="1"/><rect x="12" y="8" width="3" height="1"/><rect x="19" y="8" width="1" height="1"/><rect x="22" y="8" width="1" height="1"/><rect x="25" y="8" width="2" height="1"/><rect x="31" y="8" width="1" height="1"/><rect x="37" y="8" width="1" height="1"/><rect x="39" y="8" width="2" height="1"/><rect x="43" y="8" width="85" height="1"/><rect x="0" y="9" width="128" height="1"/><rect x="0" y="10" width="128" height="1"/><rect x="29" y="24" width="1" height="1"/><rect x="32" y="24" width="1" height="1"/><rect x="45" y="24" width="2" height="1"/><rect x="50" y="24" width="2" height="1"/><rect x="92" y="24" width="1" height="1"/><rect x="29" y="25" width="2" height="1"/><rect x="32" y="25" width="1" height="1"/><rect x="46" y="25" width="1" height="1"/><rect x="51" y="25" width="1" height="1"/><rect x="92" y="25" width="1" height="1"/><rect x="29" y="26" width="4" height="1"/><rect x="35" y="26" width="2" height="1"/><rect x="46" y="26" width="1" height="1"/><rect x="51" y="26" width="1" height="1"/><rect x="55" y="26" width="2" height="1"/><rect x="60" y="26" width="1" height="1"/><rect x="62" y="26" width="1" height="1"/><rect x="65" y="26" width="3" height="1"/><rect x="71" y="26" width="2" height="1"/><rect x="79" y="26" width="3" height="1"/><rect x="85" y="26" width="3" height="1"/><rect x="90" y="26" width="3" height="1"/><rect x="95" y="26" width="3" height="1"/><rect x="29" y="27" width="1" height="1"/><rect x="31" y="27" width="2" height="1"/><rect x="34" y="27" width="1" height="1"/><rect x="37" y="27" width="1" height="1"/><rect x="46" y="27" width="1" height="1"/><rect x="51" y="27" width="1" height="1"/><rect x="54" y="27" width="1" height="1"/><rect x="56" y="27" width="2" height="1"/><rect x="60" y="27" width="1" height="1"/><rect x="62" y="27" width="1" height="1"/><rect x="64" y="27" width="1" height="1"/><rect x="67" y="27" width="1" height="1"/><rect x="70" y="27" width="2" height="1"/><rect x="79" y="27" width="1" height="1"/><rect x="82" y="27" width="1" height="1"/><rect x="84" y="27" width="1" height="1"/><rect x="87" y="27" width="1" height="1"/><rect x="89" y="27" width="1" height="1"/><rect x="92" y="27" width="1" height="1"/><rect x="94" y="27" width="1" height="1"/><rect x="97" y="27" width="1" height="1"/><rect x="29" y="28" width="1" height="1"/><rect x="31" y="28" width="2" height="1"/><rect x="34" y="28" width="1" height="1"/><rect x="37" y="28" width="1" height="1"/><rect x="46" y="28" width="1" height="1"/><rect x="51" y="28" width="1" height="1"/><rect x="54" y="28" width="2" height="1"/><rect x="60" y="28" width="1" height="1"/><rect x="62" y="28" width="1" height="1"/><rect x="64" y="28" width="1" height="1"/><rect x="67" y="28" width="1" height="1"/><rect x="72" y="28" width="1" height="1"/><rect x="79" y="28" width="1" height="1"/><rect x="82" y="28" width="1" height="1"/><rect x="84" y="28" width="1" height="1"/><rect x="87" y="28" width="1" height="1"/><rect x="89" y="28" width="1" height="1"/><rect x="92" y="28" width="1" height="1"/><rect x="94" y="28" width="1" height="1"/><rect x="97" y="28" width="1" height="1"/><rect x="29" y="29" width="1" height="1"/><rect x="32" y="29" width="1" height="1"/><rect x="35" y="29" width="2" height="1"/><rect x="45" y="29" width="3" height="1"/><rect x="50" y="29" width="3" height="1"/><rect x="55" y="29" width="2" height="1"/><rect x="61" y="29" width="1" height="1"/><rect x="65" y="29" width="3" height="1"/><rect x="70" y="29" width="2" height="1"/><rect x="79" y="29" width="1" height="1"/><rect x="82" y="29" width="1" height="1"/><rect x="85" y="29" width="3" height="1"/><rect x="90" y="29" width="3" height="1"/><rect x="95" y="29" width="3" height="1"/><rect x="116" y="56" width="1" height="1"/><rect x="100" y="57" width="2" height="1"/><rect x="105" y="57" width="3" height="1"/><rect x="109" y="57" width="3" height="1"/><rect x="115" y="57" width="1" height="1"/><rect x="120" y="57" width="2" height="1"/><rect x="99" y="58" width="1" height="1"/><rect x="102" y="58" width="1" height="1"/><rect x="106" y="58" width="1" height="1"/><rect x="109" y="58" width="1" height="1"/><rect x="112" y="58" width="1" height="1"/><rect x="115" y="58" width="2" height="1"/><rect x="119" y="58" width="1" height="1"/><rect x="122" y="58" width="1" height="1"/><rect x="124" y="58" width="1" height="1"/><rect x="99" y="59" width="1" height="1"/><rect x="102" y="59" width="1" height="1"/><rect x="106" y="59" width="1" height="1"/><rect x="109" y="59" width="1" height="1"/><rect x="112" y="59" width="1" height="1"/><rect x="114" y="59" width="1" height="1"/><rect x="117" y="59" width="1" height="1"/><rect x="120" y="59" width="1" height="1"/><rect x="124" y="59" width="2" height="1"/><rect x="99" y="60" width="4" height="1"/><rect x="106" y="60" width="1" height="1"/><rect x="109" y="60" width="3" height="1"/><rect x="114" y="60" width="4" height="1"/><rect x="121" y="60" width="1" height="1"/><rect x="124" y="60" width="4" height="1"/><rect x="99" y="61" width="1" height="1"/><rect x="102" y="61" width="1" height="1"/><rect x="106" y="61" width="1" height="1"/><rect x="109" y="61" width="1" height="1"/><rect x="112" y="61" width="1" height="1"/><rect x="114" y="61" width="1" height="1"/><rect x="117" y="61" width="1" height="1"/><rect x="119" y="61" width="1" height="1"/><rect x="122" y="61" width="1" height="1"/><rect x="124" y="61" width="2" height="1"/><rect x="99" y="62" width="1" height="1"/><rect x="102" y="62" width="1" height="1"/><rect x="106" y="62" width="1" height="1"/><rect x="109" y="62" width="1" height="1"/><rect x="112" y="62" width="1" height="1"/><rect x="114" y="62" width="1" height="1"/><rect x="117" y="62" width="1" height="1"/><rect x="120" y="62" width="2" height="1"/><rect x="124" y="62" width="1" height="1"/></g></svg>
