<svg xmlns="http://www.w3.org/2000/svg" viewBox="0 0 128 64" width="128" height="64" shape-rendering="crispEdges"><title>Pebblebol screen: care_bag_two</title><rect width="128" height="64" fill="#000"/><g fill="#fff"><rect x="0" y="0" width="128" height="1"/><rect x="0" y="1" width="2" height="1"/><rect x="3" y="1" width="3" height="1"/><rect x="7" y="1" width="2" height="1"/><rect x="12" y="1" width="3" height="1"/><rect x="19" y="1" width="1" height="1"/><rect x="22" y="1" width="1" height="1"/><rect x="25" y="1" width="2" height="1"/><rect x="31" y="1" width="1" height="1"/><rect x="34" y="1" width="6" height="1"/><rect x="41" y="1" width="87" height="1"/><rect x="0" y="2" width="2" height="1"/><rect x="4" y="2" width="1" height="1"/><rect x="7" y="2" width="1" height="1"/><rect x="10" y="2" width="1" height="1"/><rect x="13" y="2" width="1" height="1"/><rect x="16" y="2" width="2" height="1"/><rect x="19" y="2" width="1" height="1"/><rect x="22" y="2" width="1" height="1"/><rect x="25" y="2" width="3" height="1"/><rect x="30" y="2" width="2" height="1"/><rect x="34" y="2" width="5" height="1"/><rect x="41" y="2" width="87" height="1"/><rect x="0" y="3" width="2" height="1"/><rect x="7" y="3" width="1" height="1"/><rect x="10" y="3" width="1" height="1"/><rect x="13" y="3" width="1" height="1"/><rect x="16" y="3" width="4" height="1"/><rect x="22" y="3" width="1" height="1"/><rect x="25" y="3" width="3" height="1"/><rect x="30" y="3" width="2" height="1"/><rect x="34" y="3" width="5" height="1"/><rect x="42" y="3" width="86" height="1"/><rect x="0" y="4" width="2" height="1"/><rect x="7" y="4" width="1" height="1"/><rect x="10" y="4" width="1" height="1"/><rect x="13" y="4" width="1" height="1"/><rect x="16" y="4" width="4" height="1"/><rect x="25" y="4" width="3" height="1"/><rect x="30" y="4" width="2" height="1"/><rect x="34" y="4" width="5" height="1"/><rect x="40" y="4" width="1" height="1"/><rect x="42" y="4" width="86" height="1"/><rect x="0" y="5" width="2" height="1"/><rect x="3" y="5" width="1" height="1"/><rect x="5" y="5" width="1" height="1"/><rect x="7" y="5" width="1" height="1"/><rect x="10" y="5" width="1" height="1"/><rect x="13" y="5" width="1" height="1"/><rect x="16" y="5" width="4" height="1"/><rect x="22" y="5" width="1" height="1"/><rect x="25" y="5" width="3" height="1"/><rect x="30" y="5" width="2" height="1"/><rect x="34" y="5" width="4" height="1"/><rect x="43" y="5" width="85" height="1"/><rect x="0" y="6" width="2" height="1"/><rect x="3" y="6" width="1" height="1"/><rect x="5" y="6" width="1" height="1"/><rect x="7" y="6" width="1" height="1"/><rect x="10" y="6" width="1" height="1"/><rect x="13" y="6" width="1" height="1"/><rect x="16" y="6" width="4" height="1"/><rect x="22" y="6" width="1" height="1"/><rect x="25" y="6" width="3" height="1"/><rect x="30" y="6" width="2" height="1"/><rect x="34" y="6" width="4" height="1"/><rect x="40" y="6" width="1" height="1"/><rect x="43" y="6" width="85" height="1"/><rect x="0" y="7" width="2" height="1"/><rect x="3" y="7" width="3" height="1"/><rect x="7" y="7" width="1" height="1"/><rect x="10" y="7" width="1" height="1"/><rect x="13" y="7" width="1" height="1"/><rect x="16" y="7" width="2" height="1"/><rect x="19" y="7" width="1" height="1"/><rect x="22" y="7" width="1" height="1"/><rect x="25" y="7" width="3" height="1"/><rect x="30" y="7" width="2" height="1"/><rect x="34" y="7" width="2" height="1"/><rect x="37" y="7" width="1" height="1"/><rect x="39" y="7" width="2" height="1"/><rect x="43" y="7" width="85" height="1"/><rect x="0" y="8" width="2" height="1"/><rect x="3" y="8" width="3" height="1"/><rect x="7" y="8" width="2" height="1"/><rect x="12" y="8" width="3" height="1"/><rect x="19" y="8" width="1" height="1"/><rect x="22" y="8" width="1" height="1"/><rect x="25" y="8" width="2" height="1"/><rect x="31" y="8" width="1" height="1"/><rect x="37" y="8" width="1" height="1"/><rect x="39" y="8" width="2" height="1"/><rect x="43" y="8" width="85" height="1"/><rect x="0" y="9" width="128" height="1"/><rect x="0" y="10" width="128" height="1"/><rect x="0" y="11" width="128" height="1"/><rect x="0" y="12" width="4" height="1"/><rect x="7" y="12" width="8" height="1"/><rect x="16" y="12" width="25" height="1"/><rect x="42" y="12" width="86" height="1"/><rect x="0" y="13" width="3" height="1"/><rect x="4" y="13" width="3" height="1"/><rect x="8" y="13" width="7" height="1"/><rect x="16" y="13" width="24" height="1"/><rect x="42" y="13" width="86" height="1"/><rect x="0" y="14" width="3" height="1"/><rect x="4" y="14" width="6" height="1"/><rect x="13" y="14" width="2" height="1"/><rect x="16" y="14" width="1" height="1"/><rect x="19" y="14" width="3" height="1"/><rect x="25" y="14" width="8" height="1"/><rect x="34" y="14" width="3" height="1"/><rect x="38" y="14" width="1" height="1"/><rect x="40" y="14" width="1" height="1"/><rect x="42" y="14" width="86" height="1"/><rect x="0" y="15" width="3" height="1"/><rect x="4" y="15" width="5" height="1"/><rect x="10" y="15" width="3" height="1"/><rect x="14" y="15" width="1" height="1"/><rect x="17" y="15" width="2" height="1"/><rect x="20" y="15" width="1" height="1"/><rect x="22" y="15" width="3" height="1"/><rect x="26" y="15" width="8" height="1"/><rect x="35" y="15" width="1" height="1"/><rect x="37" y="15" width="4" height="1"/><rect x="42" y="15" width="86" height="1"/><rect x="0" y="16" width="3" height="1"/><rect x="4" y="16" width="5" height="1"/><rect x="14" y="16" width="1" height="1"/><rect x="16" y="16" width="3" height="1"/><rect x="20" y="16" width="1" height="1"/><rect x="22" y="16" width="3" height="1"/><rect x="26" y="16" width="9" height="1"/><rect x="36" y="16" width="5" height="1"/><rect x="42" y="16" width="86" height="1"/><rect x="0" y="17" width="3" height="1"/><rect x="4" y="17" width="3" height="1"/><rect x="8" y="17" width="1" height="1"/><rect x="10" y="17" width="5" height="1"/><rect x="17" y="17" width="2" height="1"/><rect x="20" y="17" width="1" height="1"/><rect x="22" y="17" width="3" height="1"/><rect x="26" y="17" width="8" height="1"/><rect x="35" y="17" width="1" height="1"/><rect x="37" y="17" width="4" height="1"/><rect x="42" y="17" width="86" height="1"/><rect x="0" y="18" width="4" height="1"/><rect x="7" y="18" width="3" height="1"/><rect x="13" y="18" width="2" height="1"/><rect x="16" y="18" width="1" height="1"/><rect x="19" y="18" width="3" height="1"/><rect x="25" y="18" width="8" height="1"/><rect x="34" y="18" width="3" height="1"/><rect x="38" y="18" width="1" height="1"/><rect x="44" y="18" width="84" height="1"/><rect x="0" y="19" width="128" height="1"/><rect x="0" y="20" width="128" height="1"/><rect x="3" y="23" width="4" height="1"/><rect x="27" y="23" width="1" height="1"/><rect x="52" y="23" width="3" height="1"/><rect x="3" y="24" width="1" height="1"/><rect x="7" y="24" width="1" height="1"/><rect x="27" y="24" width="1" height="1"/><rect x="51" y="24" width="1" height="1"/><rect x="55" y="24" width="1" height="1"/><rect x="3" y="25" width="1" height="1"/><rect x="7" y="25" width="1" height="1"/><rect x="10" y="25" width="3" height="1"/><rect x="15" y="25" width="1" height="1"/><rect x="17" y="25" width="2" height="1"/><rect x="22" y="25" width="3" height="1"/><rect x="27" y="25" width="1" height="1"/><rect x="29" y="25" width="2" height="1"/><rect x="34" y="25" width="3" height="1"/><rect x="45" y="25" width="1" height="1"/><rect x="49" y="25" width="1" height="1"/><rect x="55" y="25" width="1" height="1"/><rect x="3" y="26" width="4" height="1"/><rect x="13" y="26" width="1" height="1"/><rect x="15" y="26" width="2" height="1"/><rect x="19" y="26" width="1" height="1"/><rect x="21" y="26" width="1" height="1"/><rect x="25" y="26" width="1" height="1"/><rect x="27" y="26" width="2" height="1"/><rect x="31" y="26" width="1" height="1"/><rect x="33" y="26" width="1" height="1"/><rect x="37" y="26" width="1" height="1"/><rect x="46" y="26" width="1" height="1"/><rect x="48" y="26" width="1" height="1"/><rect x="53" y="26" width="2" height="1"/><rect x="3" y="27" width="1" height="1"/><rect x="10" y="27" width="4" height="1"/><rect x="15" y="27" width="1" height="1"/><rect x="21" y="27" width="1" height="1"/><rect x="27" y="27" width="1" height="1"/><rect x="31" y="27" width="1" height="1"/><rect x="33" y="27" width="5" height="1"/><rect x="47" y="27" width="1" height="1"/><rect x="52" y="27" width="1" height="1"/><rect x="3" y="28" width="1" height="1"/><rect x="9" y="28" width="1" height="1"/><rect x="13" y="28" width="1" height="1"/><rect x="15" y="28" width="1" height="1"/><rect x="21" y="28" width="1" height="1"/><rect x="25" y="28" width="1" height="1"/><rect x="27" y="28" width="1" height="1"/><rect x="31" y="28" width="1" height="1"/><rect x="33" y="28" width="1" height="1"/><rect x="46" y="28" width="1" height="1"/><rect x="48" y="28" width="1" height="1"/><rect x="51" y="28" width="1" height="1"/><rect x="3" y="29" width="1" height="1"/><rect x="10" y="29" width="4" height="1"/><rect x="15" y="29" width="1" height="1"/><rect x="22" y="29" width="3" height="1"/><rect x="27" y="29" width="1" height="1"/><rect x="31" y="29" width="1" height="1"/><rect x="34" y="29" width="3" height="1"/><rect x="45" y="29" width="1" height="1"/><rect x="49" y="29" width="1" height="1"/><rect x="51" y="29" width="5" height="1"/><rect x="3" y="34" width="1" height="1"/><rect x="7" y="34" width="1" height="1"/><rect x="16" y="34" width="2" height="1"/><rect x="3" y="35" width="1" height="1"/><rect x="7" y="35" width="1" height="1"/><rect x="17" y="35" width="1" height="1"/><rect x="3" y="36" width="1" height="1"/><rect x="7" y="36" width="1" height="1"/><rect x="10" y="36" width="3" height="1"/><rect x="17" y="36" width="1" height="1"/><rect x="21" y="36" width="1" height="1"/><rect x="25" y="36" width="1" height="1"/><rect x="28" y="36" width="3" height="1"/><rect x="33" y="36" width="1" height="1"/><rect x="35" y="36" width="2" height="1"/><rect x="4" y="37" width="1" height="1"/><rect x="6" y="37" width="1" height="1"/><rect x="9" y="37" width="1" height="1"/><rect x="13" y="37" width="1" height="1"/><rect x="17" y="37" width="1" height="1"/><rect x="21" y="37" width="1" height="1"/><rect x="25" y="37" width="1" height="1"/><rect x="27" y="37" width="1" height="1"/><rect x="31" y="37" width="1" height="1"/><rect x="33" y="37" width="2" height="1"/><rect x="37" y="37" width="1" height="1"/><rect x="4" y="38" width="1" height="1"/><rect x="6" y="38" width="1" height="1"/><rect x="9" y="38" width="1" height="1"/><rect x="13" y="38" width="1" height="1"/><rect x="17" y="38" width="1" height="1"/><rect x="22" y="38" width="1" height="1"/><rect x="24" y="38" width="1" height="1"/><rect x="27" y="38" width="5" height="1"/><rect x="33" y="38" width="1" height="1"/><rect x="4" y="39" width="1" height="1"/><rect x="6" y="39" width="1" height="1"/><rect x="9" y="39" width="1" height="1"/><rect x="13" y="39" width="1" height="1"/><rect x="17" y="39" width="1" height="1"/><rect x="22" y="39" width="1" height="1"/><rect x="24" y="39" width="1" height="1"/><rect x="27" y="39" width="1" height="1"/><rect x="33" y="39" width="1" height="1"/><rect x="5" y="40" width="1" height="1"/><rect x="10" y="40" width="3" height="1"/><rect x="16" y="40" width="3" height="1"/><rect x="23" y="40" width="1" height="1"/><rect x="28" y="40" width="3" height="1"/><rect x="33" y="40" width="1" height="1"/><rect x="96" y="56" width="1" height="1"/><rect x="6" y="57" width="2" height="1"/><rect x="11" y="57" width="3" height="1"/><rect x="16" y="57" width="2" height="1"/><rect x="80" y="57" width="2" height="1"/><rect x="85" y="57" width="3" height="1"/><rect x="89" y="57" width="3" height="1"/><rect x="95" y="57" width="1" height="1"/><rect x="100" y="57" width="2" height="1"/><rect x="107" y="57" width="1" height="1"/><rect x="110" y="57" width="2" height="1"/><rect x="114" y="57" width="4" height="1"/><rect x="119" y="57" width="1" height="1"/><rect x="3" y="58" width="1" height="1"/><rect x="5" y="58" width="1" height="1"/><rect x="8" y="58" width="1" height="1"/><rect x="12" y="58" width="1" height="1"/><rect x="15" y="58" width="1" height="1"/><rect x="18" y="58" width="1" height="1"/><rect x="79" y="58" width="1" height="1"/><rect x="82" y="58" width="1" height="1"/><rect x="86" y="58" width="1" height="1"/><rect x="89" y="58" width="1" height="1"/><rect x="92" y="58" width="1" height="1"/><rect x="95" y="58" width="2" height="1"/><rect x="99" y="58" width="1" height="1"/><rect x="102" y="58" width="1" height="1"/><rect x="107" y="58" width="1" height="1"/><rect x="109" y="58" width="1" height="1"/><rect x="112" y="58" width="1" height="1"/><rect x="114" y="58" width="1" height="1"/><rect x="119" y="58" width="1" height="1"/><rect x="124" y="58" width="1" height="1"/><rect x="2" y="59" width="2" height="1"/><rect x="6" y="59" width="1" height="1"/><rect x="12" y="59" width="1" height="1"/><rect x="15" y="59" width="1" height="1"/><rect x="79" y="59" width="1" height="1"/><rect x="82" y="59" width="1" height="1"/><rect x="86" y="59" width="1" height="1"/><rect x="89" y="59" width="1" height="1"/><rect x="92" y="59" width="1" height="1"/><rect x="94" y="59" width="1" height="1"/><rect x="97" y="59" width="1" height="1"/><rect x="100" y="59" width="1" height="1"/><rect x="106" y="59" width="1" height="1"/><rect x="110" y="59" width="1" height="1"/><rect x="114" y="59" width="3" height="1"/><rect x="119" y="59" width="1" height="1"/><rect x="124" y="59" width="2" height="1"/><rect x="0" y="60" width="4" height="1"/><rect x="7" y="60" width="1" height="1"/><rect x="12" y="60" width="1" height="1"/><rect x="15" y="60" width="1" height="1"/><rect x="17" y="60" width="2" height="1"/><rect x="27" y="60" width="1" height="1"/><rect x="30" y="60" width="1" height="1"/><rect x="33" y="60" width="1" height="1"/><rect x="36" y="60" width="1" height="1"/><rect x="39" y="60" width="1" height="1"/><rect x="42" y="60" width="1" height="1"/><rect x="45" y="60" width="1" height="1"/><rect x="48" y="60" width="1" height="1"/><rect x="51" y="60" width="1" height="1"/><rect x="54" y="60" width="1" height="1"/><rect x="57" y="60" width="1" height="1"/><rect x="60" y="60" width="1" height="1"/><rect x="63" y="60" width="1" height="1"/><rect x="66" y="60" width="1" height="1"/><rect x="69" y="60" width="1" height="1"/><rect x="72" y="60" width="1" height="1"/><rect x="75" y="60" width="1" height="1"/><rect x="79" y="60" width="4" height="1"/><rect x="86" y="60" width="1" height="1"/><rect x="89" y="60" width="3" height="1"/><rect x="94" y="60" width="4" height="1"/><rect x="101" y="60" width="1" height="1"/><rect x="105" y="60" width="1" height="1"/><rect x="111" y="60" width="1" height="1"/><rect x="114" y="60" width="1" height="1"/><rect x="119" y="60" width="1" height="1"/><rect x="124" y="60" width="4" height="1"/><rect x="2" y="61" width="2" height="1"/><rect x="5" y="61" width="1" height="1"/><rect x="8" y="61" width="1" height="1"/><rect x="12" y="61" width="1" height="1"/><rect x="15" y="61" width="1" height="1"/><rect x="18" y="61" width="1" height="1"/><rect x="22" y="61" width="1" height="1"/><rect x="79" y="61" width="1" height="1"/><rect x="82" y="61" width="1" height="1"/><rect x="86" y="61" width="1" height="1"/><rect x="89" y="61" width="1" height="1"/><rect x="92" y="61" width="1" height="1"/><rect x="94" y="61" width="1" height="1"/><rect x="97" y="61" width="1" height="1"/><rect x="99" y="61" width="1" height="1"/><rect x="102" y="61" width="1" height="1"/><rect x="104" y="61" width="1" height="1"/><rect x="109" y="61" width="1" height="1"/><rect x="112" y="61" width="1" height="1"/><rect x="114" y="61" width="1" height="1"/><rect x="119" y="61" width="1" height="1"/><rect x="124" y="61" width="2" height="1"/><rect x="3" y="62" width="1" height="1"/><rect x="6" y="62" width="2" height="1"/><rect x="11" y="62" width="3" height="1"/><rect x="16" y="62" width="2" height="1"/><rect x="21" y="62" width="3" height="1"/><rect x="79" y="62" width="1" height="1"/><rect x="82" y="62" width="1" height="1"/><rect x="86" y="62" width="1" height="1"/><rect x="89" y="62" width="1" height="1"/><rect x="92" y="62" width="1" height="1"/><rect x="94" y="62" width="1" height="1"/><rect x="97" y="62" width="1" height="1"/><rect x="100" y="62" width="2" height="1"/><rect x="104" y="62" width="1" height="1"/><rect x="110" y="62" width="2" height="1"/><rect x="114" y="62" width="4" height="1"/><rect x="119" y="62" width="4" height="1"/><rect x="124" y="62" width="1" height="1"/><rect x="22" y="63" width="1" height="1"/></g></svg>
