<svg xmlns="http://www.w3.org/2000/svg" viewBox="0 0 128 64" width="128" height="64" shape-rendering="crispEdges"><title>Pebblebol screen: care_list</title><rect width="128" height="64" fill="#000"/><g fill="#fff"><rect x="0" y="0" width="128" height="1"/><rect x="0" y="1" width="128" height="1"/><rect x="0" y="2" width="2" height="1"/><rect x="7" y="2" width="1" height="1"/><rect x="13" y="2" width="1" height="1"/><rect x="19" y="2" width="7" height="1"/><rect x="31" y="2" width="97" height="1"/><rect x="0" y="3" width="2" height="1"/><rect x="7" y="3" width="25" height="1"/><rect x="37" y="3" width="91" height="1"/><rect x="0" y="4" width="8" height="1"/><rect x="13" y="4" width="7" height="1"/><rect x="25" y="4" width="103" height="1"/><rect x="0" y="5" width="14" height="1"/><rect x="19" y="5" width="109" height="1"/><rect x="0" y="6" width="8" height="1"/><rect x="13" y="6" width="19" height="1"/><rect x="37" y="6" width="91" height="1"/><rect x="0" y="7" width="128" height="1"/><rect x="0" y="8" width="2" height="1"/><rect x="7" y="8" width="1" height="1"/><rect x="13" y="8" width="1" height="1"/><rect x="19" y="8" width="1" height="1"/><rect x="25" y="8" width="1" height="1"/><rect x="31" y="8" width="1" height="1"/><rect x="37" y="8" width="91" height="1"/><rect x="0" y="9" width="2" height="1"/><rect x="7" y="9" width="1" height="1"/><rect x="13" y="9" width="1" height="1"/><rect x="19" y="9" width="1" height="1"/><rect x="25" y="9" width="1" height="1"/><rect x="31" y="9" width="1" height="1"/><rect x="37" y="9" width="91" height="1"/><rect x="0" y="10" width="128" height="1"/><rect x="0" y="11" width="123" height="1"/><rect x="124" y="11" width="4" height="1"/><rect x="0" y="12" width="123" height="1"/><rect x="124" y="12" width="4" height="1"/><rect x="0" y="13" width="3" height="1"/><rect x="8" y="13" width="1" height="1"/><rect x="14" y="13" width="1" height="1"/><rect x="20" y="13" width="1" height="1"/><rect x="26" y="13" width="7" height="1"/><rect x="38" y="13" width="85" height="1"/><rect x="124" y="13" width="4" height="1"/><rect x="0" y="14" width="3" height="1"/><rect x="8" y="14" width="1" height="1"/><rect x="14" y="14" width="109" height="1"/><rect x="124" y="14" width="4" height="1"/><rect x="0" y="15" width="9" height="1"/><rect x="14" y="15" width="1" height="1"/><rect x="20" y="15" width="7" height="1"/><rect x="32" y="15" width="91" height="1"/><rect x="124" y="15" width="4" height="1"/><rect x="0" y="16" width="9" height="1"/><rect x="14" y="16" width="1" height="1"/><rect x="20" y="16" width="1" height="1"/><rect x="26" y="16" width="97" height="1"/><rect x="124" y="16" width="4" height="1"/><rect x="0" y="17" width="123" height="1"/><rect x="124" y="17" width="4" height="1"/><rect x="0" y="18" width="9" height="1"/><rect x="14" y="18" width="1" height="1"/><rect x="20" y="18" width="1" height="1"/><rect x="26" y="18" width="1" height="1"/><rect x="32" y="18" width="1" height="1"/><rect x="38" y="18" width="85" height="1"/><rect x="124" y="18" width="4" height="1"/><rect x="0" y="19" width="3" height="1"/><rect x="8" y="19" width="1" height="1"/><rect x="14" y="19" width="1" height="1"/><rect x="20" y="19" width="1" height="1"/><rect x="26" y="19" width="1" height="1"/><rect x="32" y="19" width="1" height="1"/><rect x="38" y="19" width="85" height="1"/><rect x="124" y="19" width="4" height="1"/><rect x="0" y="20" width="123" height="1"/><rect x="124" y="20" width="4" height="1"/><rect x="124" y="21" width="4" height="1"/><rect x="124" y="22" width="4" height="1"/><rect x="124" y="23" width="4" height="1"/><rect x="3" y="24" width="5" height="1"/><rect x="15" y="24" width="5" height="1"/><rect x="21" y="24" width="5" height="1"/><rect x="33" y="24" width="5" height="1"/><rect x="124" y="24" width="4" height="1"/><rect x="3" y="25" width="5" height="1"/><rect x="21" y="25" width="5" height="1"/><rect x="124" y="25" width="4" height="1"/><rect x="15" y="26" width="5" height="1"/><rect x="33" y="26" width="5" height="1"/><rect x="124" y="26" width="4" height="1"/><rect x="9" y="27" width="5" height="1"/><rect x="27" y="27" width="5" height="1"/><rect x="124" y="27" width="4" height="1"/><rect x="15" y="28" width="5" height="1"/><rect x="124" y="28" width="4" height="1"/><rect x="9" y="29" width="5" height="1"/><rect x="15" y="29" width="5" height="1"/><rect x="21" y="29" width="5" height="1"/><rect x="27" y="29" width="5" height="1"/><rect x="33" y="29" width="5" height="1"/><rect x="124" y="29" width="4" height="1"/><rect x="3" y="30" width="5" height="1"/><rect x="9" y="30" width="5" height="1"/><rect x="15" y="30" width="5" height="1"/><rect x="21" y="30" width="5" height="1"/><rect x="27" y="30" width="5" height="1"/><rect x="33" y="30" width="5" height="1"/><rect x="124" y="30" width="4" height="1"/><rect x="124" y="31" width="4" height="1"/><rect x="124" y="32" width="4" height="1"/><rect x="124" y="33" width="4" height="1"/><rect x="124" y="34" width="4" height="1"/><rect x="9" y="35" width="5" height="1"/><rect x="15" y="35" width="5" height="1"/><rect x="27" y="35" width="5" height="1"/><rect x="33" y="35" width="5" height="1"/><rect x="124" y="35" width="4" height="1"/><rect x="39" y="36" width="5" height="1"/><rect x="124" y="36" width="4" height="1"/><rect x="3" y="37" width="5" height="1"/><rect x="15" y="37" width="5" height="1"/><rect x="124" y="37" width="4" height="1"/><rect x="3" y="38" width="5" height="1"/><rect x="9" y="38" width="5" height="1"/><rect x="15" y="38" width="5" height="1"/><rect x="27" y="38" width="5" height="1"/><rect x="124" y="38" width="4" height="1"/><rect x="21" y="39" width="5" height="1"/><rect x="39" y="39" width="5" height="1"/><rect x="124" y="39" width="1" height="1"/><rect x="127" y="39" width="1" height="1"/><rect x="124" y="40" width="1" height="1"/><rect x="127" y="40" width="1" height="1"/><rect x="3" y="41" width="5" height="1"/><rect x="9" y="41" width="5" height="1"/><rect x="15" y="41" width="5" height="1"/><rect x="21" y="41" width="5" height="1"/><rect x="27" y="41" width="5" height="1"/><rect x="33" y="41" width="5" height="1"/><rect x="39" y="41" width="5" height="1"/><rect x="124" y="41" width="1" height="1"/><rect x="127" y="41" width="1" height="1"/><rect x="124" y="42" width="1" height="1"/><rect x="127" y="42" width="1" height="1"/><rect x="124" y="43" width="1" height="1"/><rect x="127" y="43" width="1" height="1"/><rect x="124" y="44" width="1" height="1"/><rect x="127" y="44" width="1" height="1"/><rect x="124" y="45" width="1" height="1"/><rect x="127" y="45" width="1" height="1"/><rect x="3" y="46" width="5" height="1"/><rect x="9" y="46" width="5" height="1"/><rect x="21" y="46" width="5" height="1"/><rect x="124" y="46" width="1" height="1"/><rect x="127" y="46" width="1" height="1"/><rect x="3" y="47" width="5" height="1"/><rect x="124" y="47" width="1" height="1"/><rect x="127" y="47" width="1" height="1"/><rect x="15" y="48" width="5" height="1"/><rect x="21" y="48" width="5" height="1"/><rect x="27" y="48" width="5" height="1"/><rect x="124" y="48" width="1" height="1"/><rect x="127" y="48" width="1" height="1"/><rect x="15" y="49" width="5" height="1"/><rect x="124" y="49" width="1" height="1"/><rect x="127" y="49" width="1" height="1"/><rect x="3" y="50" width="5" height="1"/><rect x="21" y="50" width="5" height="1"/><rect x="124" y="50" width="1" height="1"/><rect x="127" y="50" width="1" height="1"/><rect x="124" y="51" width="1" height="1"/><rect x="127" y="51" width="1" height="1"/><rect x="3" y="52" width="5" height="1"/><rect x="9" y="52" width="5" height="1"/><rect x="15" y="52" width="5" height="1"/><rect x="21" y="52" width="5" height="1"/><rect x="27" y="52" width="5" height="1"/><rect x="124" y="52" width="1" height="1"/><rect x="127" y="52" width="1" height="1"/><rect x="124" y="53" width="4" height="1"/><rect x="0" y="58" width="4" height="1"/><rect x="5" y="58" width="4" height="1"/><rect x="10" y="58" width="4" height="1"/><rect x="15" y="58" width="4" height="1"/><rect x="78" y="58" width="4" height="1"/><rect x="93" y="58" width="4" height="1"/><rect x="98" y="58" width="4" height="1"/><rect x="103" y="58" width="4" height="1"/><rect x="108" y="58" width="4" height="1"/><rect x="113" y="58" width="4" height="1"/><rect x="124" y="58" width="4" height="1"/><rect x="0" y="59" width="4" height="1"/><rect x="5" y="59" width="4" height="1"/><rect x="15" y="59" width="4" height="1"/><rect x="20" y="59" width="4" height="1"/><rect x="88" y="59" width="4" height="1"/><rect x="98" y="59" width="4" height="1"/><rect x="103" y="59" width="4" height="1"/><rect x="108" y="59" width="4" height="1"/><rect x="124" y="59" width="4" height="1"/><rect x="0" y="60" width="4" height="1"/><rect x="15" y="60" width="4" height="1"/><rect x="20" y="60" width="4" height="1"/><rect x="28" y="60" width="1" height="1"/><rect x="31" y="60" width="1" height="1"/><rect x="34" y="60" width="1" height="1"/><rect x="37" y="60" width="1" height="1"/><rect x="40" y="60" width="1" height="1"/><rect x="43" y="60" width="1" height="1"/><rect x="46" y="60" width="1" height="1"/><rect x="49" y="60" width="1" height="1"/><rect x="52" y="60" width="1" height="1"/><rect x="55" y="60" width="1" height="1"/><rect x="58" y="60" width="1" height="1"/><rect x="61" y="60" width="1" height="1"/><rect x="64" y="60" width="1" height="1"/><rect x="67" y="60" width="1" height="1"/><rect x="70" y="60" width="1" height="1"/><rect x="73" y="60" width="1" height="1"/><rect x="83" y="60" width="4" height="1"/><rect x="103" y="60" width="4" height="1"/><rect x="113" y="60" width="4" height="1"/><rect x="118" y="60" width="4" height="1"/><rect x="124" y="60" width="4" height="1"/><rect x="0" y="61" width="4" height="1"/><rect x="10" y="61" width="4" height="1"/><rect x="20" y="61" width="4" height="1"/><rect x="103" y="61" width="4" height="1"/><rect x="118" y="61" width="4" height="1"/><rect x="124" y="61" width="4" height="1"/><rect x="0" y="62" width="4" height="1"/><rect x="5" y="62" width="4" height="1"/><rect x="83" y="62" width="4" height="1"/><rect x="88" y="62" width="4" height="1"/><rect x="98" y="62" width="4" height="1"/><rect x="108" y="62" width="4" height="1"/><rect x="124" y="62" width="4" height="1"/><rect x="5" y="63" width="4" height="1"/><rect x="10" y="63" width="4" height="1"/><rect x="15" y="63" width="4" height="1"/><rect x="20" y="63" width="4" height="1"/><rect x="78" y="63" width="4" height="1"/><rect x="83" y="63" width="4" height="1"/><rect x="88" y="63" width="4" height="1"/><rect x="93" y="63" width="4" height="1"/><rect x="98" y="63" width="4" height="1"/><rect x="103" y="63" width="4" height="1"/><rect x="108" y="63" width="4" height="1"/><rect x="113" y="63" width="4" height="1"/><rect x="118" y="63" width="4" height="1"/></g></svg>
