<svg xmlns="http://www.w3.org/2000/svg" viewBox="0 0 128 64" width="128" height="64" shape-rendering="crispEdges"><title>Pebblebol screen: error_display</title><rect width="128" height="64" fill="#000"/><g fill="#fff"><rect x="0" y="0" width="128" height="1"/><rect x="0" y="1" width="2" height="1"/><rect x="6" y="1" width="4" height="1"/><rect x="11" y="1" width="3" height="1"/><rect x="16" y="1" width="2" height="1"/><rect x="19" y="1" width="1" height="1"/><rect x="26" y="1" width="2" height="1"/><rect x="29" y="1" width="3" height="1"/><rect x="34" y="1" width="4" height="1"/><rect x="40" y="1" width="6" height="1"/><rect x="47" y="1" width="81" height="1"/><rect x="0" y="2" width="2" height="1"/><rect x="4" y="2" width="1" height="1"/><rect x="7" y="2" width="2" height="1"/><rect x="11" y="2" width="3" height="1"/><rect x="16" y="2" width="2" height="1"/><rect x="19" y="2" width="1" height="1"/><rect x="21" y="2" width="1" height="1"/><rect x="24" y="2" width="3" height="1"/><rect x="29" y="2" width="3" height="1"/><rect x="34" y="2" width="4" height="1"/><rect x="40" y="2" width="5" height="1"/><rect x="47" y="2" width="81" height="1"/><rect x="0" y="3" width="2" height="1"/><rect x="4" y="3" width="1" height="1"/><rect x="7" y="3" width="2" height="1"/><rect x="12" y="3" width="2" height="1"/><rect x="17" y="3" width="1" height="1"/><rect x="19" y="3" width="3" height="1"/><rect x="24" y="3" width="3" height="1"/><rect x="30" y="3" width="2" height="1"/><rect x="34" y="3" width="4" height="1"/><rect x="40" y="3" width="5" height="1"/><rect x="48" y="3" width="80" height="1"/><rect x="0" y="4" width="2" height="1"/><rect x="4" y="4" width="1" height="1"/><rect x="7" y="4" width="2" height="1"/><rect x="10" y="4" width="1" height="1"/><rect x="12" y="4" width="2" height="1"/><rect x="17" y="4" width="1" height="1"/><rect x="19" y="4" width="3" height="1"/><rect x="24" y="4" width="3" height="1"/><rect x="28" y="4" width="1" height="1"/><rect x="30" y="4" width="2" height="1"/><rect x="34" y="4" width="4" height="1"/><rect x="40" y="4" width="5" height="1"/><rect x="46" y="4" width="1" height="1"/><rect x="48" y="4" width="80" height="1"/><rect x="0" y="5" width="2" height="1"/><rect x="6" y="5" width="2" height="1"/><rect x="13" y="5" width="1" height="1"/><rect x="15" y="5" width="1" height="1"/><rect x="19" y="5" width="3" height="1"/><rect x="24" y="5" width="2" height="1"/><rect x="31" y="5" width="1" height="1"/><rect x="34" y="5" width="4" height="1"/><rect x="40" y="5" width="4" height="1"/><rect x="49" y="5" width="79" height="1"/><rect x="0" y="6" width="2" height="1"/><rect x="4" y="6" width="4" height="1"/><rect x="10" y="6" width="1" height="1"/><rect x="13" y="6" width="1" height="1"/><rect x="15" y="6" width="1" height="1"/><rect x="19" y="6" width="3" height="1"/><rect x="24" y="6" width="2" height="1"/><rect x="28" y="6" width="1" height="1"/><rect x="31" y="6" width="1" height="1"/><rect x="34" y="6" width="4" height="1"/><rect x="40" y="6" width="4" height="1"/><rect x="46" y="6" width="1" height="1"/><rect x="49" y="6" width="79" height="1"/><rect x="0" y="7" width="2" height="1"/><rect x="4" y="7" width="4" height="1"/><rect x="9" y="7" width="2" height="1"/><rect x="13" y="7" width="1" height="1"/><rect x="15" y="7" width="2" height="1"/><rect x="19" y="7" width="3" height="1"/><rect x="24" y="7" width="2" height="1"/><rect x="27" y="7" width="2" height="1"/><rect x="31" y="7" width="1" height="1"/><rect x="34" y="7" width="2" height="1"/><rect x="37" y="7" width="1" height="1"/><rect x="40" y="7" width="2" height="1"/><rect x="43" y="7" width="1" height="1"/><rect x="45" y="7" width="2" height="1"/><rect x="49" y="7" width="79" height="1"/><rect x="0" y="8" width="2" height="1"/><rect x="4" y="8" width="4" height="1"/><rect x="9" y="8" width="2" height="1"/><rect x="13" y="8" width="1" height="1"/><rect x="15" y="8" width="2" height="1"/><rect x="19" y="8" width="3" height="1"/><rect x="24" y="8" width="2" height="1"/><rect x="27" y="8" width="2" height="1"/><rect x="31" y="8" width="1" height="1"/><rect x="37" y="8" width="1" height="1"/><rect x="43" y="8" width="1" height="1"/><rect x="45" y="8" width="2" height="1"/><rect x="49" y="8" width="79" height="1"/><rect x="0" y="9" width="128" height="1"/><rect x="0" y="10" width="128" height="1"/><rect x="2" y="16" width="1" height="1"/><rect x="5" y="16" width="1" height="1"/><rect x="15" y="16" width="1" height="1"/><rect x="44" y="16" width="1" height="1"/><rect x="52" y="16" width="4" height="1"/><rect x="58" y="16" width="2" height="1"/><rect x="72" y="16" width="1" height="1"/><rect x="75" y="16" width="1" height="1"/><rect x="79" y="16" width="1" height="1"/><rect x="98" y="16" width="2" height="1"/><rect x="2" y="17" width="2" height="1"/><rect x="5" y="17" width="1" height="1"/><rect x="15" y="17" width="1" height="1"/><rect x="43" y="17" width="1" height="1"/><rect x="45" y="17" width="1" height="1"/><rect x="54" y="17" width="1" height="1"/><rect x="57" y="17" width="1" height="1"/><rect x="60" y="17" width="1" height="1"/><rect x="72" y="17" width="4" height="1"/><rect x="99" y="17" width="1" height="1"/><rect x="2" y="18" width="4" height="1"/><rect x="8" y="18" width="3" height="1"/><rect x="13" y="18" width="3" height="1"/><rect x="18" y="18" width="3" height="1"/><rect x="28" y="18" width="2" height="1"/><rect x="32" y="18" width="3" height="1"/><rect x="43" y="18" width="1" height="1"/><rect x="45" y="18" width="1" height="1"/><rect x="47" y="18" width="1" height="1"/><rect x="50" y="18" width="1" height="1"/><rect x="53" y="18" width="2" height="1"/><rect x="57" y="18" width="1" height="1"/><rect x="72" y="18" width="4" height="1"/><rect x="78" y="18" width="2" height="1"/><rect x="82" y="18" width="1" height="1"/><rect x="84" y="18" width="1" height="1"/><rect x="88" y="18" width="3" height="1"/><rect x="99" y="18" width="1" height="1"/><rect x="103" y="18" width="2" height="1"/><rect x="109" y="18" width="2" height="1"/><rect x="2" y="19" width="1" height="1"/><rect x="4" y="19" width="2" height="1"/><rect x="7" y="19" width="1" height="1"/><rect x="10" y="19" width="1" height="1"/><rect x="12" y="19" width="1" height="1"/><rect x="15" y="19" width="1" height="1"/><rect x="17" y="19" width="1" height="1"/><rect x="20" y="19" width="1" height="1"/><rect x="27" y="19" width="1" height="1"/><rect x="29" y="19" width="2" height="1"/><rect x="32" y="19" width="1" height="1"/><rect x="35" y="19" width="1" height="1"/><rect x="43" y="19" width="1" height="1"/><rect x="45" y="19" width="1" height="1"/><rect x="48" y="19" width="2" height="1"/><rect x="55" y="19" width="1" height="1"/><rect x="57" y="19" width="1" height="1"/><rect x="72" y="19" width="1" height="1"/><rect x="75" y="19" width="1" height="1"/><rect x="79" y="19" width="1" height="1"/><rect x="82" y="19" width="2" height="1"/><rect x="85" y="19" width="1" height="1"/><rect x="87" y="19" width="1" height="1"/><rect x="90" y="19" width="1" height="1"/><rect x="99" y="19" width="1" height="1"/><rect x="102" y="19" width="1" height="1"/><rect x="105" y="19" width="1" height="1"/><rect x="108" y="19" width="2" height="1"/><rect x="2" y="20" width="1" height="1"/><rect x="4" y="20" width="2" height="1"/><rect x="7" y="20" width="1" height="1"/><rect x="10" y="20" width="1" height="1"/><rect x="12" y="20" width="1" height="1"/><rect x="15" y="20" width="1" height="1"/><rect x="17" y="20" width="1" height="1"/><rect x="20" y="20" width="1" height="1"/><rect x="27" y="20" width="2" height="1"/><rect x="32" y="20" width="1" height="1"/><rect x="35" y="20" width="1" height="1"/><rect x="43" y="20" width="1" height="1"/><rect x="45" y="20" width="1" height="1"/><rect x="48" y="20" width="2" height="1"/><rect x="52" y="20" width="1" height="1"/><rect x="55" y="20" width="1" height="1"/><rect x="57" y="20" width="1" height="1"/><rect x="60" y="20" width="1" height="1"/><rect x="64" y="20" width="1" height="1"/><rect x="72" y="20" width="1" height="1"/><rect x="75" y="20" width="1" height="1"/><rect x="79" y="20" width="1" height="1"/><rect x="82" y="20" width="1" height="1"/><rect x="87" y="20" width="1" height="1"/><rect x="90" y="20" width="1" height="1"/><rect x="99" y="20" width="1" height="1"/><rect x="102" y="20" width="1" height="1"/><rect x="105" y="20" width="1" height="1"/><rect x="110" y="20" width="1" height="1"/><rect x="2" y="21" width="1" height="1"/><rect x="5" y="21" width="1" height="1"/><rect x="8" y="21" width="3" height="1"/><rect x="13" y="21" width="3" height="1"/><rect x="18" y="21" width="3" height="1"/><rect x="28" y="21" width="2" height="1"/><rect x="32" y="21" width="1" height="1"/><rect x="35" y="21" width="1" height="1"/><rect x="44" y="21" width="1" height="1"/><rect x="47" y="21" width="1" height="1"/><rect x="50" y="21" width="1" height="1"/><rect x="53" y="21" width="2" height="1"/><rect x="58" y="21" width="2" height="1"/><rect x="63" y="21" width="3" height="1"/><rect x="72" y="21" width="1" height="1"/><rect x="75" y="21" width="1" height="1"/><rect x="78" y="21" width="3" height="1"/><rect x="82" y="21" width="1" height="1"/><rect x="88" y="21" width="3" height="1"/><rect x="98" y="21" width="3" height="1"/><rect x="103" y="21" width="2" height="1"/><rect x="108" y="21" width="2" height="1"/><rect x="64" y="22" width="1" height="1"/><rect x="12" y="24" width="1" height="1"/><rect x="18" y="24" width="2" height="1"/><rect x="12" y="25" width="1" height="1"/><rect x="19" y="25" width="1" height="1"/><rect x="4" y="26" width="2" height="1"/><rect x="8" y="26" width="3" height="1"/><rect x="12" y="26" width="3" height="1"/><rect x="19" y="26" width="1" height="1"/><rect x="23" y="26" width="2" height="1"/><rect x="29" y="26" width="2" height="1"/><rect x="3" y="27" width="1" height="1"/><rect x="7" y="27" width="1" height="1"/><rect x="10" y="27" width="1" height="1"/><rect x="12" y="27" width="1" height="1"/><rect x="15" y="27" width="1" height="1"/><rect x="19" y="27" width="1" height="1"/><rect x="22" y="27" width="1" height="1"/><rect x="24" y="27" width="2" height="1"/><rect x="28" y="27" width="2" height="1"/><rect x="3" y="28" width="1" height="1"/><rect x="7" y="28" width="1" height="1"/><rect x="10" y="28" width="1" height="1"/><rect x="12" y="28" width="1" height="1"/><rect x="15" y="28" width="1" height="1"/><rect x="19" y="28" width="1" height="1"/><rect x="22" y="28" width="2" height="1"/><rect x="30" y="28" width="1" height="1"/><rect x="34" y="28" width="1" height="1"/><rect x="4" y="29" width="2" height="1"/><rect x="8" y="29" width="3" height="1"/><rect x="12" y="29" width="3" height="1"/><rect x="18" y="29" width="3" height="1"/><rect x="23" y="29" width="2" height="1"/><rect x="28" y="29" width="2" height="1"/><rect x="33" y="29" width="3" height="1"/><rect x="34" y="30" width="1" height="1"/><rect x="3" y="36" width="2" height="1"/><rect x="17" y="36" width="3" height="1"/><rect x="29" y="36" width="1" height="1"/><rect x="38" y="36" width="1" height="1"/><rect x="53" y="36" width="1" height="1"/><rect x="2" y="37" width="1" height="1"/><rect x="5" y="37" width="1" height="1"/><rect x="8" y="37" width="2" height="1"/><rect x="17" y="37" width="1" height="1"/><rect x="20" y="37" width="1" height="1"/><rect x="38" y="37" width="1" height="1"/><rect x="53" y="37" width="1" height="1"/><rect x="2" y="38" width="1" height="1"/><rect x="5" y="38" width="1" height="1"/><rect x="8" y="38" width="2" height="1"/><rect x="17" y="38" width="1" height="1"/><rect x="20" y="38" width="1" height="1"/><rect x="23" y="38" width="2" height="1"/><rect x="28" y="38" width="2" height="1"/><rect x="32" y="38" width="3" height="1"/><rect x="37" y="38" width="3" height="1"/><rect x="43" y="38" width="2" height="1"/><rect x="47" y="38" width="3" height="1"/><rect x="52" y="38" width="3" height="1"/><rect x="58" y="38" width="3" height="1"/><rect x="62" y="38" width="1" height="1"/><rect x="64" y="38" width="1" height="1"/><rect x="2" y="39" width="4" height="1"/><rect x="17" y="39" width="3" height="1"/><rect x="22" y="39" width="1" height="1"/><rect x="24" y="39" width="2" height="1"/><rect x="29" y="39" width="1" height="1"/><rect x="32" y="39" width="1" height="1"/><rect x="35" y="39" width="1" height="1"/><rect x="38" y="39" width="1" height="1"/><rect x="42" y="39" width="1" height="1"/><rect x="44" y="39" width="2" height="1"/><rect x="47" y="39" width="1" height="1"/><rect x="50" y="39" width="1" height="1"/><rect x="53" y="39" width="1" height="1"/><rect x="57" y="39" width="1" height="1"/><rect x="60" y="39" width="1" height="1"/><rect x="62" y="39" width="2" height="1"/><rect x="65" y="39" width="1" height="1"/><rect x="2" y="40" width="1" height="1"/><rect x="5" y="40" width="1" height="1"/><rect x="8" y="40" width="2" height="1"/><rect x="17" y="40" width="1" height="1"/><rect x="20" y="40" width="1" height="1"/><rect x="22" y="40" width="2" height="1"/><rect x="29" y="40" width="1" height="1"/><rect x="32" y="40" width="1" height="1"/><rect x="35" y="40" width="1" height="1"/><rect x="38" y="40" width="1" height="1"/><rect x="40" y="40" width="1" height="1"/><rect x="42" y="40" width="2" height="1"/><rect x="47" y="40" width="1" height="1"/><rect x="50" y="40" width="1" height="1"/><rect x="53" y="40" width="1" height="1"/><rect x="55" y="40" width="1" height="1"/><rect x="57" y="40" width="1" height="1"/><rect x="60" y="40" width="1" height="1"/><rect x="62" y="40" width="1" height="1"/><rect x="2" y="41" width="1" height="1"/><rect x="5" y="41" width="1" height="1"/><rect x="8" y="41" width="2" height="1"/><rect x="17" y="41" width="1" height="1"/><rect x="20" y="41" width="1" height="1"/><rect x="23" y="41" width="2" height="1"/><rect x="28" y="41" width="3" height="1"/><rect x="32" y="41" width="1" height="1"/><rect x="35" y="41" width="1" height="1"/><rect x="39" y="41" width="1" height="1"/><rect x="43" y="41" width="2" height="1"/><rect x="47" y="41" width="1" height="1"/><rect x="50" y="41" width="1" height="1"/><rect x="54" y="41" width="1" height="1"/><rect x="58" y="41" width="3" height="1"/><rect x="62" y="41" width="1" height="1"/><rect x="6" y="57" width="2" height="1"/><rect x="10" y="57" width="1" height="1"/><rect x="13" y="57" width="1" height="1"/><rect x="3" y="58" width="1" height="1"/><rect x="5" y="58" width="1" height="1"/><rect x="8" y="58" width="1" height="1"/><rect x="10" y="58" width="1" height="1"/><rect x="12" y="58" width="1" height="1"/><rect x="2" y="59" width="2" height="1"/><rect x="5" y="59" width="1" height="1"/><rect x="8" y="59" width="1" height="1"/><rect x="10" y="59" width="2" height="1"/><rect x="0" y="60" width="4" height="1"/><rect x="5" y="60" width="1" height="1"/><rect x="8" y="60" width="1" height="1"/><rect x="10" y="60" width="1" height="1"/><rect x="12" y="60" width="1" height="1"/><rect x="2" y="61" width="2" height="1"/><rect x="5" y="61" width="1" height="1"/><rect x="8" y="61" width="1" height="1"/><rect x="10" y="61" width="1" height="1"/><rect x="12" y="61" width="1" height="1"/><rect x="3" y="62" width="1" height="1"/><rect x="6" y="62" width="2" height="1"/><rect x="10" y="62" width="1" height="1"/><rect x="13" y="62" width="1" height="1"/></g></svg>
