<svg xmlns="http://www.w3.org/2000/svg" viewBox="0 0 128 64" width="128" height="64" shape-rendering="crispEdges"><title>Pebblebol screen: error_save_newer</title><rect width="128" height="64" fill="#000"/><g fill="#fff"><rect x="0" y="0" width="128" height="1"/><rect x="0" y="1" width="2" height="1"/><rect x="7" y="1" width="1" height="1"/><rect x="12" y="1" width="2" height="1"/><rect x="18" y="1" width="3" height="1"/><rect x="24" y="1" width="2" height="1"/><rect x="30" y="1" width="8" height="1"/><rect x="41" y="1" width="3" height="1"/><rect x="49" y="1" width="7" height="1"/><rect x="60" y="1" width="4" height="1"/><rect x="65" y="1" width="3" height="1"/><rect x="72" y="1" width="2" height="1"/><rect x="80" y="1" width="1" height="1"/><rect x="85" y="1" width="1" height="1"/><rect x="89" y="1" width="5" height="1"/><rect x="95" y="1" width="33" height="1"/><rect x="0" y="2" width="2" height="1"/><rect x="4" y="2" width="2" height="1"/><rect x="7" y="2" width="1" height="1"/><rect x="10" y="2" width="1" height="1"/><rect x="13" y="2" width="1" height="1"/><rect x="16" y="2" width="1" height="1"/><rect x="19" y="2" width="1" height="1"/><rect x="22" y="2" width="1" height="1"/><rect x="25" y="2" width="1" height="1"/><rect x="28" y="2" width="1" height="1"/><rect x="31" y="2" width="7" height="1"/><rect x="40" y="2" width="1" height="1"/><rect x="42" y="2" width="2" height="1"/><rect x="46" y="2" width="2" height="1"/><rect x="49" y="2" width="7" height="1"/><rect x="58" y="2" width="1" height="1"/><rect x="61" y="2" width="2" height="1"/><rect x="65" y="2" width="3" height="1"/><rect x="70" y="2" width="1" height="1"/><rect x="73" y="2" width="1" height="1"/><rect x="75" y="2" width="1" height="1"/><rect x="78" y="2" width="4" height="1"/><rect x="84" y="2" width="2" height="1"/><rect x="88" y="2" width="1" height="1"/><rect x="90" y="2" width="3" height="1"/><rect x="95" y="2" width="33" height="1"/><rect x="0" y="3" width="2" height="1"/><rect x="4" y="3" width="4" height="1"/><rect x="10" y="3" width="1" height="1"/><rect x="13" y="3" width="1" height="1"/><rect x="16" y="3" width="1" height="1"/><rect x="19" y="3" width="1" height="1"/><rect x="22" y="3" width="1" height="1"/><rect x="25" y="3" width="1" height="1"/><rect x="28" y="3" width="1" height="1"/><rect x="31" y="3" width="7" height="1"/><rect x="40" y="3" width="1" height="1"/><rect x="43" y="3" width="1" height="1"/><rect x="46" y="3" width="10" height="1"/><rect x="58" y="3" width="1" height="1"/><rect x="61" y="3" width="2" height="1"/><rect x="66" y="3" width="2" height="1"/><rect x="70" y="3" width="1" height="1"/><rect x="73" y="3" width="3" height="1"/><rect x="78" y="3" width="4" height="1"/><rect x="84" y="3" width="2" height="1"/><rect x="88" y="3" width="1" height="1"/><rect x="91" y="3" width="2" height="1"/><rect x="96" y="3" width="32" height="1"/><rect x="0" y="4" width="2" height="1"/><rect x="6" y="4" width="2" height="1"/><rect x="12" y="4" width="2" height="1"/><rect x="18" y="4" width="2" height="1"/><rect x="22" y="4" width="1" height="1"/><rect x="25" y="4" width="1" height="1"/><rect x="30" y="4" width="8" height="1"/><rect x="40" y="4" width="1" height="1"/><rect x="43" y="4" width="1" height="1"/><rect x="48" y="4" width="8" height="1"/><rect x="58" y="4" width="1" height="1"/><rect x="61" y="4" width="2" height="1"/><rect x="64" y="4" width="1" height="1"/><rect x="66" y="4" width="2" height="1"/><rect x="72" y="4" width="4" height="1"/><rect x="78" y="4" width="4" height="1"/><rect x="84" y="4" width="2" height="1"/><rect x="88" y="4" width="1" height="1"/><rect x="91" y="4" width="2" height="1"/><rect x="94" y="4" width="1" height="1"/><rect x="96" y="4" width="32" height="1"/><rect x="0" y="5" width="2" height="1"/><rect x="4" y="5" width="4" height="1"/><rect x="10" y="5" width="1" height="1"/><rect x="12" y="5" width="2" height="1"/><rect x="16" y="5" width="1" height="1"/><rect x="18" y="5" width="2" height="1"/><rect x="22" y="5" width="1" height="1"/><rect x="25" y="5" width="1" height="1"/><rect x="28" y="5" width="1" height="1"/><rect x="30" y="5" width="8" height="1"/><rect x="40" y="5" width="1" height="1"/><rect x="43" y="5" width="1" height="1"/><rect x="46" y="5" width="10" height="1"/><rect x="60" y="5" width="2" height="1"/><rect x="67" y="5" width="1" height="1"/><rect x="70" y="5" width="1" height="1"/><rect x="72" y="5" width="4" height="1"/><rect x="78" y="5" width="4" height="1"/><rect x="84" y="5" width="2" height="1"/><rect x="88" y="5" width="1" height="1"/><rect x="91" y="5" width="1" height="1"/><rect x="97" y="5" width="31" height="1"/><rect x="0" y="6" width="2" height="1"/><rect x="4" y="6" width="4" height="1"/><rect x="10" y="6" width="1" height="1"/><rect x="13" y="6" width="1" height="1"/><rect x="16" y="6" width="1" height="1"/><rect x="19" y="6" width="1" height="1"/><rect x="22" y="6" width="1" height="1"/><rect x="25" y="6" width="1" height="1"/><rect x="28" y="6" width="1" height="1"/><rect x="31" y="6" width="7" height="1"/><rect x="40" y="6" width="1" height="1"/><rect x="43" y="6" width="1" height="1"/><rect x="46" y="6" width="10" height="1"/><rect x="58" y="6" width="4" height="1"/><rect x="64" y="6" width="1" height="1"/><rect x="67" y="6" width="1" height="1"/><rect x="70" y="6" width="1" height="1"/><rect x="73" y="6" width="3" height="1"/><rect x="78" y="6" width="4" height="1"/><rect x="84" y="6" width="2" height="1"/><rect x="88" y="6" width="1" height="1"/><rect x="91" y="6" width="1" height="1"/><rect x="94" y="6" width="1" height="1"/><rect x="97" y="6" width="31" height="1"/><rect x="0" y="7" width="2" height="1"/><rect x="4" y="7" width="2" height="1"/><rect x="7" y="7" width="1" height="1"/><rect x="10" y="7" width="1" height="1"/><rect x="13" y="7" width="1" height="1"/><rect x="16" y="7" width="1" height="1"/><rect x="19" y="7" width="1" height="1"/><rect x="22" y="7" width="1" height="1"/><rect x="25" y="7" width="1" height="1"/><rect x="28" y="7" width="1" height="1"/><rect x="31" y="7" width="7" height="1"/><rect x="40" y="7" width="1" height="1"/><rect x="42" y="7" width="2" height="1"/><rect x="46" y="7" width="2" height="1"/><rect x="49" y="7" width="7" height="1"/><rect x="58" y="7" width="4" height="1"/><rect x="63" y="7" width="2" height="1"/><rect x="67" y="7" width="1" height="1"/><rect x="70" y="7" width="1" height="1"/><rect x="73" y="7" width="3" height="1"/><rect x="78" y="7" width="4" height="1"/><rect x="84" y="7" width="2" height="1"/><rect x="88" y="7" width="1" height="1"/><rect x="90" y="7" width="2" height="1"/><rect x="93" y="7" width="2" height="1"/><rect x="97" y="7" width="31" height="1"/><rect x="0" y="8" width="2" height="1"/><rect x="7" y="8" width="1" height="1"/><rect x="10" y="8" width="1" height="1"/><rect x="13" y="8" width="1" height="1"/><rect x="16" y="8" width="1" height="1"/><rect x="19" y="8" width="2" height="1"/><rect x="24" y="8" width="2" height="1"/><rect x="28" y="8" width="1" height="1"/><rect x="31" y="8" width="7" height="1"/><rect x="41" y="8" width="3" height="1"/><rect x="49" y="8" width="7" height="1"/><rect x="58" y="8" width="4" height="1"/><rect x="63" y="8" width="2" height="1"/><rect x="67" y="8" width="1" height="1"/><rect x="70" y="8" width="1" height="1"/><rect x="73" y="8" width="3" height="1"/><rect x="78" y="8" width="3" height="1"/><rect x="85" y="8" width="1" height="1"/><rect x="89" y="8" width="3" height="1"/><rect x="93" y="8" width="2" height="1"/><rect x="97" y="8" width="31" height="1"/><rect x="0" y="9" width="128" height="1"/><rect x="0" y="10" width="128" height="1"/><rect x="99" y="15" width="1" height="1"/><rect x="2" y="16" width="4" height="1"/><rect x="20" y="16" width="1" height="1"/><rect x="49" y="16" width="1" height="1"/><rect x="54" y="16" width="1" height="1"/><rect x="98" y="16" width="1" height="1"/><rect x="2" y="17" width="1" height="1"/><rect x="20" y="17" width="1" height="1"/><rect x="48" y="17" width="1" height="1"/><rect x="50" y="17" width="1" height="1"/><rect x="2" y="18" width="3" height="1"/><rect x="9" y="18" width="2" height="1"/><rect x="18" y="18" width="3" height="1"/><rect x="23" y="18" width="2" height="1"/><rect x="32" y="18" width="1" height="1"/><rect x="35" y="18" width="1" height="1"/><rect x="37" y="18" width="3" height="1"/><rect x="48" y="18" width="1" height="1"/><rect x="53" y="18" width="2" height="1"/><rect x="57" y="18" width="1" height="1"/><rect x="59" y="18" width="1" height="1"/><rect x="62" y="18" width="2" height="1"/><rect x="65" y="18" width="1" height="1"/><rect x="67" y="18" width="1" height="1"/><rect x="71" y="18" width="1" height="1"/><rect x="73" y="18" width="3" height="1"/><rect x="77" y="18" width="1" height="1"/><rect x="79" y="18" width="1" height="1"/><rect x="83" y="18" width="2" height="1"/><rect x="92" y="18" width="2" height="1"/><rect x="95" y="18" width="1" height="1"/><rect x="98" y="18" width="3" height="1"/><rect x="104" y="18" width="2" height="1"/><rect x="2" y="19" width="1" height="1"/><rect x="8" y="19" width="2" height="1"/><rect x="17" y="19" width="1" height="1"/><rect x="20" y="19" width="1" height="1"/><rect x="22" y="19" width="1" height="1"/><rect x="24" y="19" width="2" height="1"/><rect x="32" y="19" width="1" height="1"/><rect x="35" y="19" width="1" height="1"/><rect x="37" y="19" width="1" height="1"/><rect x="40" y="19" width="1" height="1"/><rect x="47" y="19" width="3" height="1"/><rect x="54" y="19" width="1" height="1"/><rect x="57" y="19" width="2" height="1"/><rect x="60" y="19" width="1" height="1"/><rect x="62" y="19" width="1" height="1"/><rect x="64" y="19" width="1" height="1"/><rect x="66" y="19" width="2" height="1"/><rect x="69" y="19" width="1" height="1"/><rect x="71" y="19" width="2" height="1"/><rect x="75" y="19" width="1" height="1"/><rect x="77" y="19" width="2" height="1"/><rect x="80" y="19" width="1" height="1"/><rect x="82" y="19" width="1" height="1"/><rect x="84" y="19" width="2" height="1"/><rect x="92" y="19" width="1" height="1"/><rect x="94" y="19" width="1" height="1"/><rect x="96" y="19" width="2" height="1"/><rect x="100" y="19" width="1" height="1"/><rect x="103" y="19" width="2" height="1"/><rect x="2" y="20" width="1" height="1"/><rect x="10" y="20" width="1" height="1"/><rect x="17" y="20" width="1" height="1"/><rect x="20" y="20" width="1" height="1"/><rect x="22" y="20" width="2" height="1"/><rect x="32" y="20" width="1" height="1"/><rect x="35" y="20" width="1" height="1"/><rect x="37" y="20" width="1" height="1"/><rect x="40" y="20" width="1" height="1"/><rect x="48" y="20" width="1" height="1"/><rect x="54" y="20" width="1" height="1"/><rect x="57" y="20" width="1" height="1"/><rect x="62" y="20" width="1" height="1"/><rect x="64" y="20" width="1" height="1"/><rect x="66" y="20" width="2" height="1"/><rect x="69" y="20" width="1" height="1"/><rect x="71" y="20" width="2" height="1"/><rect x="75" y="20" width="1" height="1"/><rect x="77" y="20" width="1" height="1"/><rect x="82" y="20" width="2" height="1"/><rect x="92" y="20" width="1" height="1"/><rect x="94" y="20" width="1" height="1"/><rect x="96" y="20" width="2" height="1"/><rect x="100" y="20" width="1" height="1"/><rect x="105" y="20" width="1" height="1"/><rect x="2" y="21" width="4" height="1"/><rect x="8" y="21" width="2" height="1"/><rect x="18" y="21" width="3" height="1"/><rect x="23" y="21" width="2" height="1"/><rect x="33" y="21" width="3" height="1"/><rect x="37" y="21" width="1" height="1"/><rect x="40" y="21" width="1" height="1"/><rect x="48" y="21" width="1" height="1"/><rect x="53" y="21" width="3" height="1"/><rect x="57" y="21" width="1" height="1"/><rect x="62" y="21" width="1" height="1"/><rect x="64" y="21" width="1" height="1"/><rect x="66" y="21" width="1" height="1"/><rect x="68" y="21" width="1" height="1"/><rect x="70" y="21" width="1" height="1"/><rect x="73" y="21" width="3" height="1"/><rect x="77" y="21" width="1" height="1"/><rect x="83" y="21" width="2" height="1"/><rect x="92" y="21" width="1" height="1"/><rect x="94" y="21" width="1" height="1"/><rect x="96" y="21" width="1" height="1"/><rect x="98" y="21" width="3" height="1"/><rect x="103" y="21" width="2" height="1"/><rect x="2" y="26" width="3" height="1"/><rect x="7" y="26" width="1" height="1"/><rect x="10" y="26" width="1" height="1"/><rect x="13" y="26" width="2" height="1"/><rect x="18" y="26" width="1" height="1"/><rect x="20" y="26" width="1" height="1"/><rect x="23" y="26" width="2" height="1"/><rect x="2" y="27" width="1" height="1"/><rect x="5" y="27" width="1" height="1"/><rect x="7" y="27" width="1" height="1"/><rect x="10" y="27" width="1" height="1"/><rect x="12" y="27" width="1" height="1"/><rect x="14" y="27" width="2" height="1"/><rect x="18" y="27" width="1" height="1"/><rect x="20" y="27" width="1" height="1"/><rect x="22" y="27" width="1" height="1"/><rect x="25" y="27" width="1" height="1"/><rect x="2" y="28" width="1" height="1"/><rect x="5" y="28" width="1" height="1"/><rect x="7" y="28" width="1" height="1"/><rect x="10" y="28" width="1" height="1"/><rect x="12" y="28" width="2" height="1"/><rect x="18" y="28" width="1" height="1"/><rect x="20" y="28" width="1" height="1"/><rect x="22" y="28" width="1" height="1"/><rect x="25" y="28" width="1" height="1"/><rect x="29" y="28" width="1" height="1"/><rect x="2" y="29" width="1" height="1"/><rect x="5" y="29" width="1" height="1"/><rect x="8" y="29" width="3" height="1"/><rect x="13" y="29" width="2" height="1"/><rect x="19" y="29" width="1" height="1"/><rect x="23" y="29" width="2" height="1"/><rect x="28" y="29" width="3" height="1"/><rect x="29" y="30" width="1" height="1"/><rect x="3" y="36" width="2" height="1"/><rect x="13" y="36" width="1" height="1"/><rect x="28" y="36" width="2" height="1"/><rect x="34" y="36" width="1" height="1"/><rect x="58" y="36" width="2" height="1"/><rect x="69" y="36" width="1" height="1"/><rect x="74" y="36" width="1" height="1"/><rect x="2" y="37" width="1" height="1"/><rect x="5" y="37" width="1" height="1"/><rect x="13" y="37" width="1" height="1"/><rect x="29" y="37" width="1" height="1"/><rect x="59" y="37" width="1" height="1"/><rect x="68" y="37" width="1" height="1"/><rect x="70" y="37" width="1" height="1"/><rect x="2" y="38" width="1" height="1"/><rect x="5" y="38" width="1" height="1"/><rect x="9" y="38" width="2" height="1"/><rect x="12" y="38" width="3" height="1"/><rect x="17" y="38" width="1" height="1"/><rect x="20" y="38" width="1" height="1"/><rect x="23" y="38" width="3" height="1"/><rect x="29" y="38" width="1" height="1"/><rect x="33" y="38" width="2" height="1"/><rect x="37" y="38" width="4" height="1"/><rect x="43" y="38" width="3" height="1"/><rect x="53" y="38" width="2" height="1"/><rect x="59" y="38" width="1" height="1"/><rect x="68" y="38" width="1" height="1"/><rect x="73" y="38" width="2" height="1"/><rect x="77" y="38" width="1" height="1"/><rect x="79" y="38" width="1" height="1"/><rect x="82" y="38" width="2" height="1"/><rect x="85" y="38" width="1" height="1"/><rect x="87" y="38" width="1" height="1"/><rect x="91" y="38" width="1" height="1"/><rect x="93" y="38" width="3" height="1"/><rect x="97" y="38" width="1" height="1"/><rect x="99" y="38" width="1" height="1"/><rect x="103" y="38" width="2" height="1"/><rect x="2" y="39" width="4" height="1"/><rect x="8" y="39" width="1" height="1"/><rect x="13" y="39" width="1" height="1"/><rect x="17" y="39" width="1" height="1"/><rect x="20" y="39" width="1" height="1"/><rect x="22" y="39" width="1" height="1"/><rect x="25" y="39" width="1" height="1"/><rect x="29" y="39" width="1" height="1"/><rect x="34" y="39" width="1" height="1"/><rect x="39" y="39" width="1" height="1"/><rect x="42" y="39" width="1" height="1"/><rect x="45" y="39" width="1" height="1"/><rect x="52" y="39" width="1" height="1"/><rect x="54" y="39" width="2" height="1"/><rect x="59" y="39" width="1" height="1"/><rect x="67" y="39" width="3" height="1"/><rect x="74" y="39" width="1" height="1"/><rect x="77" y="39" width="2" height="1"/><rect x="80" y="39" width="1" height="1"/><rect x="82" y="39" width="1" height="1"/><rect x="84" y="39" width="1" height="1"/><rect x="86" y="39" width="2" height="1"/><rect x="89" y="39" width="1" height="1"/><rect x="91" y="39" width="2" height="1"/><rect x="95" y="39" width="1" height="1"/><rect x="97" y="39" width="2" height="1"/><rect x="100" y="39" width="1" height="1"/><rect x="102" y="39" width="1" height="1"/><rect x="104" y="39" width="2" height="1"/><rect x="2" y="40" width="1" height="1"/><rect x="5" y="40" width="1" height="1"/><rect x="8" y="40" width="1" height="1"/><rect x="13" y="40" width="1" height="1"/><rect x="15" y="40" width="1" height="1"/><rect x="17" y="40" width="1" height="1"/><rect x="20" y="40" width="1" height="1"/><rect x="22" y="40" width="1" height="1"/><rect x="25" y="40" width="1" height="1"/><rect x="29" y="40" width="1" height="1"/><rect x="34" y="40" width="1" height="1"/><rect x="38" y="40" width="1" height="1"/><rect x="42" y="40" width="1" height="1"/><rect x="45" y="40" width="1" height="1"/><rect x="52" y="40" width="2" height="1"/><rect x="59" y="40" width="1" height="1"/><rect x="68" y="40" width="1" height="1"/><rect x="74" y="40" width="1" height="1"/><rect x="77" y="40" width="1" height="1"/><rect x="82" y="40" width="1" height="1"/><rect x="84" y="40" width="1" height="1"/><rect x="86" y="40" width="2" height="1"/><rect x="89" y="40" width="1" height="1"/><rect x="91" y="40" width="2" height="1"/><rect x="95" y="40" width="1" height="1"/><rect x="97" y="40" width="1" height="1"/><rect x="102" y="40" width="2" height="1"/><rect x="109" y="40" width="1" height="1"/><rect x="2" y="41" width="1" height="1"/><rect x="5" y="41" width="1" height="1"/><rect x="9" y="41" width="2" height="1"/><rect x="14" y="41" width="1" height="1"/><rect x="18" y="41" width="3" height="1"/><rect x="23" y="41" width="3" height="1"/><rect x="28" y="41" width="3" height="1"/><rect x="33" y="41" width="3" height="1"/><rect x="37" y="41" width="4" height="1"/><rect x="43" y="41" width="3" height="1"/><rect x="53" y="41" width="2" height="1"/><rect x="58" y="41" width="3" height="1"/><rect x="68" y="41" width="1" height="1"/><rect x="73" y="41" width="3" height="1"/><rect x="77" y="41" width="1" height="1"/><rect x="82" y="41" width="1" height="1"/><rect x="84" y="41" width="1" height="1"/><rect x="86" y="41" width="1" height="1"/><rect x="88" y="41" width="1" height="1"/><rect x="90" y="41" width="1" height="1"/><rect x="93" y="41" width="3" height="1"/><rect x="97" y="41" width="1" height="1"/><rect x="103" y="41" width="2" height="1"/><rect x="108" y="41" width="3" height="1"/><rect x="109" y="42" width="1" height="1"/><rect x="3" y="46" width="2" height="1"/><rect x="12" y="46" width="3" height="1"/><rect x="23" y="46" width="2" height="1"/><rect x="68" y="46" width="2" height="1"/><rect x="74" y="46" width="1" height="1"/><rect x="2" y="47" width="1" height="1"/><rect x="5" y="47" width="1" height="1"/><rect x="9" y="47" width="1" height="1"/><rect x="12" y="47" width="1" height="1"/><rect x="15" y="47" width="1" height="1"/><rect x="24" y="47" width="1" height="1"/><rect x="48" y="47" width="2" height="1"/><rect x="69" y="47" width="1" height="1"/><rect x="2" y="48" width="1" height="1"/><rect x="5" y="48" width="1" height="1"/><rect x="9" y="48" width="1" height="1"/><rect x="12" y="48" width="3" height="1"/><rect x="24" y="48" width="1" height="1"/><rect x="28" y="48" width="3" height="1"/><rect x="32" y="48" width="1" height="1"/><rect x="34" y="48" width="1" height="1"/><rect x="38" y="48" width="2" height="1"/><rect x="43" y="48" width="2" height="1"/><rect x="48" y="48" width="2" height="1"/><rect x="59" y="48" width="2" height="1"/><rect x="63" y="48" width="3" height="1"/><rect x="69" y="48" width="1" height="1"/><rect x="73" y="48" width="2" height="1"/><rect x="77" y="48" width="1" height="1"/><rect x="79" y="48" width="1" height="1"/><rect x="2" y="49" width="4" height="1"/><rect x="7" y="49" width="6" height="1"/><rect x="15" y="49" width="1" height="1"/><rect x="24" y="49" width="1" height="1"/><rect x="27" y="49" width="1" height="1"/><rect x="30" y="49" width="1" height="1"/><rect x="32" y="49" width="2" height="1"/><rect x="35" y="49" width="1" height="1"/><rect x="37" y="49" width="1" height="1"/><rect x="40" y="49" width="1" height="1"/><rect x="42" y="49" width="1" height="1"/><rect x="45" y="49" width="1" height="1"/><rect x="58" y="49" width="2" height="1"/><rect x="62" y="49" width="1" height="1"/><rect x="65" y="49" width="1" height="1"/><rect x="69" y="49" width="1" height="1"/><rect x="74" y="49" width="1" height="1"/><rect x="77" y="49" width="2" height="1"/><rect x="80" y="49" width="1" height="1"/><rect x="2" y="50" width="1" height="1"/><rect x="5" y="50" width="1" height="1"/><rect x="9" y="50" width="1" height="1"/><rect x="12" y="50" width="1" height="1"/><rect x="15" y="50" width="1" height="1"/><rect x="24" y="50" width="1" height="1"/><rect x="27" y="50" width="1" height="1"/><rect x="30" y="50" width="1" height="1"/><rect x="32" y="50" width="1" height="1"/><rect x="38" y="50" width="3" height="1"/><rect x="42" y="50" width="1" height="1"/><rect x="45" y="50" width="1" height="1"/><rect x="48" y="50" width="2" height="1"/><rect x="60" y="50" width="1" height="1"/><rect x="62" y="50" width="1" height="1"/><rect x="65" y="50" width="1" height="1"/><rect x="69" y="50" width="1" height="1"/><rect x="74" y="50" width="1" height="1"/><rect x="77" y="50" width="1" height="1"/><rect x="2" y="51" width="1" height="1"/><rect x="5" y="51" width="1" height="1"/><rect x="9" y="51" width="1" height="1"/><rect x="12" y="51" width="3" height="1"/><rect x="23" y="51" width="3" height="1"/><rect x="28" y="51" width="3" height="1"/><rect x="32" y="51" width="1" height="1"/><rect x="40" y="51" width="1" height="1"/><rect x="43" y="51" width="2" height="1"/><rect x="48" y="51" width="2" height="1"/><rect x="58" y="51" width="2" height="1"/><rect x="63" y="51" width="3" height="1"/><rect x="68" y="51" width="3" height="1"/><rect x="73" y="51" width="3" height="1"/><rect x="77" y="51" width="1" height="1"/><rect x="38" y="52" width="2" height="1"/></g></svg>
