<svg xmlns="http://www.w3.org/2000/svg" viewBox="0 0 128 64" width="128" height="64" shape-rendering="crispEdges"><title>Pebblebol screen: help_line</title><rect width="128" height="64" fill="#000"/><g fill="#fff"><rect x="0" y="45" width="128" height="1"/><rect x="0" y="46" width="128" height="1"/><rect x="0" y="47" width="14" height="1"/><rect x="15" y="47" width="5" height="1"/><rect x="22" y="47" width="27" height="1"/><rect x="53" y="47" width="24" height="1"/><rect x="78" y="47" width="50" height="1"/><rect x="0" y="48" width="14" height="1"/><rect x="15" y="48" width="6" height="1"/><rect x="22" y="48" width="27" height="1"/><rect x="50" y="48" width="27" height="1"/><rect x="78" y="48" width="50" height="1"/><rect x="0" y="49" width="14" height="1"/><rect x="15" y="49" width="6" height="1"/><rect x="22" y="49" width="3" height="1"/><rect x="27" y="49" width="2" height="1"/><rect x="32" y="49" width="3" height="1"/><rect x="38" y="49" width="11" height="1"/><rect x="52" y="49" width="2" height="1"/><rect x="57" y="49" width="3" height="1"/><rect x="62" y="49" width="3" height="1"/><rect x="67" y="49" width="2" height="1"/><rect x="70" y="49" width="1" height="1"/><rect x="72" y="49" width="3" height="1"/><rect x="78" y="49" width="2" height="1"/><rect x="83" y="49" width="6" height="1"/><rect x="92" y="49" width="3" height="1"/><rect x="97" y="49" width="4" height="1"/><rect x="103" y="49" width="2" height="1"/><rect x="107" y="49" width="21" height="1"/><rect x="0" y="50" width="14" height="1"/><rect x="15" y="50" width="6" height="1"/><rect x="22" y="50" width="2" height="1"/><rect x="25" y="50" width="1" height="1"/><rect x="28" y="50" width="1" height="1"/><rect x="30" y="50" width="2" height="1"/><rect x="33" y="50" width="1" height="1"/><rect x="35" y="50" width="2" height="1"/><rect x="38" y="50" width="11" height="1"/><rect x="50" y="50" width="4" height="1"/><rect x="55" y="50" width="2" height="1"/><rect x="58" y="50" width="1" height="1"/><rect x="60" y="50" width="2" height="1"/><rect x="63" y="50" width="1" height="1"/><rect x="65" y="50" width="2" height="1"/><rect x="68" y="50" width="1" height="1"/><rect x="71" y="50" width="1" height="1"/><rect x="73" y="50" width="1" height="1"/><rect x="75" y="50" width="2" height="1"/><rect x="78" y="50" width="1" height="1"/><rect x="80" y="50" width="2" height="1"/><rect x="83" y="50" width="6" height="1"/><rect x="90" y="50" width="2" height="1"/><rect x="93" y="50" width="1" height="1"/><rect x="95" y="50" width="2" height="1"/><rect x="98" y="50" width="2" height="1"/><rect x="101" y="50" width="3" height="1"/><rect x="105" y="50" width="2" height="1"/><rect x="108" y="50" width="20" height="1"/><rect x="0" y="51" width="14" height="1"/><rect x="15" y="51" width="6" height="1"/><rect x="22" y="51" width="2" height="1"/><rect x="26" y="51" width="3" height="1"/><rect x="30" y="51" width="2" height="1"/><rect x="33" y="51" width="1" height="1"/><rect x="35" y="51" width="2" height="1"/><rect x="38" y="51" width="3" height="1"/><rect x="42" y="51" width="7" height="1"/><rect x="50" y="51" width="4" height="1"/><rect x="55" y="51" width="2" height="1"/><rect x="58" y="51" width="2" height="1"/><rect x="63" y="51" width="1" height="1"/><rect x="65" y="51" width="2" height="1"/><rect x="68" y="51" width="1" height="1"/><rect x="70" y="51" width="4" height="1"/><rect x="75" y="51" width="2" height="1"/><rect x="78" y="51" width="1" height="1"/><rect x="80" y="51" width="2" height="1"/><rect x="83" y="51" width="6" height="1"/><rect x="92" y="51" width="2" height="1"/><rect x="95" y="51" width="2" height="1"/><rect x="98" y="51" width="2" height="1"/><rect x="101" y="51" width="3" height="1"/><rect x="105" y="51" width="2" height="1"/><rect x="108" y="51" width="3" height="1"/><rect x="112" y="51" width="16" height="1"/><rect x="0" y="52" width="14" height="1"/><rect x="18" y="52" width="2" height="1"/><rect x="23" y="52" width="2" height="1"/><rect x="27" y="52" width="2" height="1"/><rect x="30" y="52" width="2" height="1"/><rect x="33" y="52" width="2" height="1"/><rect x="38" y="52" width="2" height="1"/><rect x="43" y="52" width="6" height="1"/><rect x="53" y="52" width="1" height="1"/><rect x="55" y="52" width="2" height="1"/><rect x="58" y="52" width="4" height="1"/><rect x="63" y="52" width="2" height="1"/><rect x="67" y="52" width="2" height="1"/><rect x="70" y="52" width="5" height="1"/><rect x="78" y="52" width="2" height="1"/><rect x="83" y="52" width="6" height="1"/><rect x="90" y="52" width="5" height="1"/><rect x="97" y="52" width="4" height="1"/><rect x="103" y="52" width="2" height="1"/><rect x="107" y="52" width="3" height="1"/><rect x="113" y="52" width="15" height="1"/><rect x="0" y="53" width="41" height="1"/><rect x="42" y="53" width="18" height="1"/><rect x="62" y="53" width="27" height="1"/><rect x="90" y="53" width="21" height="1"/><rect x="112" y="53" width="16" height="1"/><rect x="0" y="54" width="128" height="1"/><rect x="0" y="55" width="128" height="1"/></g></svg>
