<svg xmlns="http://www.w3.org/2000/svg" viewBox="0 0 128 64" width="128" height="64" shape-rendering="crispEdges"><title>Pebblebol screen: link_card</title><rect width="128" height="64" fill="#000"/><g fill="#fff"><rect x="0" y="0" width="128" height="1"/><rect x="0" y="1" width="2" height="1"/><rect x="6" y="1" width="3" height="1"/><rect x="13" y="1" width="1" height="1"/><rect x="19" y="1" width="1" height="1"/><rect x="23" y="1" width="3" height="1"/><rect x="30" y="1" width="3" height="1"/><rect x="37" y="1" width="1" height="1"/><rect x="40" y="1" width="2" height="1"/><rect x="43" y="1" width="85" height="1"/><rect x="0" y="2" width="2" height="1"/><rect x="4" y="2" width="1" height="1"/><rect x="7" y="2" width="3" height="1"/><rect x="12" y="2" width="2" height="1"/><rect x="16" y="2" width="2" height="1"/><rect x="19" y="2" width="1" height="1"/><rect x="22" y="2" width="1" height="1"/><rect x="24" y="2" width="2" height="1"/><rect x="28" y="2" width="1" height="1"/><rect x="31" y="2" width="3" height="1"/><rect x="36" y="2" width="2" height="1"/><rect x="40" y="2" width="2" height="1"/><rect x="43" y="2" width="85" height="1"/><rect x="0" y="3" width="2" height="1"/><rect x="4" y="3" width="1" height="1"/><rect x="7" y="3" width="3" height="1"/><rect x="12" y="3" width="2" height="1"/><rect x="16" y="3" width="4" height="1"/><rect x="22" y="3" width="1" height="1"/><rect x="25" y="3" width="1" height="1"/><rect x="28" y="3" width="1" height="1"/><rect x="31" y="3" width="3" height="1"/><rect x="36" y="3" width="2" height="1"/><rect x="41" y="3" width="1" height="1"/><rect x="43" y="3" width="77" height="1"/><rect x="121" y="3" width="3" height="1"/><rect x="126" y="3" width="2" height="1"/><rect x="0" y="4" width="2" height="1"/><rect x="4" y="4" width="1" height="1"/><rect x="7" y="4" width="3" height="1"/><rect x="12" y="4" width="2" height="1"/><rect x="18" y="4" width="2" height="1"/><rect x="22" y="4" width="1" height="1"/><rect x="25" y="4" width="1" height="1"/><rect x="30" y="4" width="4" height="1"/><rect x="36" y="4" width="2" height="1"/><rect x="41" y="4" width="1" height="1"/><rect x="43" y="4" width="76" height="1"/><rect x="121" y="4" width="2" height="1"/><rect x="124" y="4" width="2" height="1"/><rect x="127" y="4" width="1" height="1"/><rect x="0" y="5" width="2" height="1"/><rect x="6" y="5" width="4" height="1"/><rect x="12" y="5" width="2" height="1"/><rect x="16" y="5" width="4" height="1"/><rect x="22" y="5" width="1" height="1"/><rect x="25" y="5" width="1" height="1"/><rect x="28" y="5" width="1" height="1"/><rect x="30" y="5" width="4" height="1"/><rect x="36" y="5" width="2" height="1"/><rect x="39" y="5" width="1" height="1"/><rect x="43" y="5" width="75" height="1"/><rect x="119" y="5" width="1" height="1"/><rect x="121" y="5" width="5" height="1"/><rect x="127" y="5" width="1" height="1"/><rect x="0" y="6" width="2" height="1"/><rect x="4" y="6" width="6" height="1"/><rect x="12" y="6" width="2" height="1"/><rect x="16" y="6" width="4" height="1"/><rect x="22" y="6" width="1" height="1"/><rect x="25" y="6" width="1" height="1"/><rect x="28" y="6" width="1" height="1"/><rect x="31" y="6" width="3" height="1"/><rect x="36" y="6" width="2" height="1"/><rect x="39" y="6" width="1" height="1"/><rect x="43" y="6" width="70" height="1"/><rect x="117" y="6" width="1" height="1"/><rect x="122" y="6" width="2" height="1"/><rect x="126" y="6" width="2" height="1"/><rect x="0" y="7" width="2" height="1"/><rect x="4" y="7" width="6" height="1"/><rect x="12" y="7" width="2" height="1"/><rect x="16" y="7" width="2" height="1"/><rect x="19" y="7" width="1" height="1"/><rect x="22" y="7" width="1" height="1"/><rect x="24" y="7" width="2" height="1"/><rect x="28" y="7" width="1" height="1"/><rect x="31" y="7" width="3" height="1"/><rect x="36" y="7" width="2" height="1"/><rect x="39" y="7" width="2" height="1"/><rect x="43" y="7" width="77" height="1"/><rect x="121" y="7" width="2" height="1"/><rect x="124" y="7" width="4" height="1"/><rect x="0" y="8" width="2" height="1"/><rect x="4" y="8" width="5" height="1"/><rect x="13" y="8" width="1" height="1"/><rect x="19" y="8" width="1" height="1"/><rect x="23" y="8" width="3" height="1"/><rect x="28" y="8" width="1" height="1"/><rect x="31" y="8" width="2" height="1"/><rect x="37" y="8" width="1" height="1"/><rect x="39" y="8" width="2" height="1"/><rect x="43" y="8" width="77" height="1"/><rect x="121" y="8" width="2" height="1"/><rect x="127" y="8" width="1" height="1"/><rect x="0" y="9" width="128" height="1"/><rect x="0" y="10" width="128" height="1"/><rect x="18" y="12" width="1" height="1"/><rect x="21" y="12" width="4" height="1"/><rect x="26" y="12" width="3" height="1"/><rect x="31" y="12" width="3" height="1"/><rect x="37" y="12" width="2" height="1"/><rect x="42" y="12" width="3" height="1"/><rect x="47" y="12" width="2" height="1"/><rect x="56" y="12" width="4" height="1"/><rect x="61" y="12" width="1" height="1"/><rect x="64" y="12" width="1" height="1"/><rect x="67" y="12" width="2" height="1"/><rect x="72" y="12" width="2" height="1"/><rect x="76" y="12" width="1" height="1"/><rect x="79" y="12" width="1" height="1"/><rect x="82" y="12" width="3" height="1"/><rect x="86" y="12" width="3" height="1"/><rect x="92" y="12" width="2" height="1"/><rect x="96" y="12" width="3" height="1"/><rect x="102" y="12" width="2" height="1"/><rect x="108" y="12" width="1" height="1"/><rect x="21" y="13" width="1" height="1"/><rect x="26" y="13" width="1" height="1"/><rect x="29" y="13" width="1" height="1"/><rect x="31" y="13" width="1" height="1"/><rect x="34" y="13" width="1" height="1"/><rect x="36" y="13" width="1" height="1"/><rect x="39" y="13" width="1" height="1"/><rect x="43" y="13" width="1" height="1"/><rect x="46" y="13" width="1" height="1"/><rect x="49" y="13" width="1" height="1"/><rect x="56" y="13" width="1" height="1"/><rect x="61" y="13" width="2" height="1"/><rect x="64" y="13" width="1" height="1"/><rect x="66" y="13" width="1" height="1"/><rect x="69" y="13" width="1" height="1"/><rect x="71" y="13" width="1" height="1"/><rect x="74" y="13" width="1" height="1"/><rect x="76" y="13" width="2" height="1"/><rect x="79" y="13" width="1" height="1"/><rect x="83" y="13" width="1" height="1"/><rect x="86" y="13" width="1" height="1"/><rect x="89" y="13" width="1" height="1"/><rect x="91" y="13" width="1" height="1"/><rect x="94" y="13" width="1" height="1"/><rect x="96" y="13" width="1" height="1"/><rect x="99" y="13" width="1" height="1"/><rect x="101" y="13" width="1" height="1"/><rect x="104" y="13" width="1" height="1"/><rect x="108" y="13" width="1" height="1"/><rect x="18" y="14" width="1" height="1"/><rect x="21" y="14" width="3" height="1"/><rect x="26" y="14" width="1" height="1"/><rect x="29" y="14" width="1" height="1"/><rect x="31" y="14" width="1" height="1"/><rect x="34" y="14" width="1" height="1"/><rect x="36" y="14" width="1" height="1"/><rect x="39" y="14" width="1" height="1"/><rect x="43" y="14" width="1" height="1"/><rect x="46" y="14" width="1" height="1"/><rect x="49" y="14" width="1" height="1"/><rect x="56" y="14" width="3" height="1"/><rect x="61" y="14" width="4" height="1"/><rect x="66" y="14" width="1" height="1"/><rect x="71" y="14" width="1" height="1"/><rect x="74" y="14" width="1" height="1"/><rect x="76" y="14" width="4" height="1"/><rect x="83" y="14" width="1" height="1"/><rect x="86" y="14" width="1" height="1"/><rect x="89" y="14" width="1" height="1"/><rect x="91" y="14" width="1" height="1"/><rect x="94" y="14" width="1" height="1"/><rect x="96" y="14" width="1" height="1"/><rect x="99" y="14" width="1" height="1"/><rect x="101" y="14" width="1" height="1"/><rect x="104" y="14" width="1" height="1"/><rect x="108" y="14" width="1" height="1"/><rect x="18" y="15" width="1" height="1"/><rect x="21" y="15" width="1" height="1"/><rect x="26" y="15" width="3" height="1"/><rect x="31" y="15" width="3" height="1"/><rect x="36" y="15" width="4" height="1"/><rect x="43" y="15" width="1" height="1"/><rect x="46" y="15" width="4" height="1"/><rect x="56" y="15" width="1" height="1"/><rect x="61" y="15" width="1" height="1"/><rect x="63" y="15" width="2" height="1"/><rect x="66" y="15" width="1" height="1"/><rect x="71" y="15" width="1" height="1"/><rect x="74" y="15" width="1" height="1"/><rect x="76" y="15" width="1" height="1"/><rect x="78" y="15" width="2" height="1"/><rect x="83" y="15" width="1" height="1"/><rect x="86" y="15" width="3" height="1"/><rect x="91" y="15" width="4" height="1"/><rect x="96" y="15" width="1" height="1"/><rect x="99" y="15" width="1" height="1"/><rect x="101" y="15" width="4" height="1"/><rect x="108" y="15" width="1" height="1"/><rect x="18" y="16" width="1" height="1"/><rect x="21" y="16" width="1" height="1"/><rect x="26" y="16" width="1" height="1"/><rect x="29" y="16" width="1" height="1"/><rect x="31" y="16" width="1" height="1"/><rect x="34" y="16" width="1" height="1"/><rect x="36" y="16" width="1" height="1"/><rect x="39" y="16" width="1" height="1"/><rect x="43" y="16" width="1" height="1"/><rect x="46" y="16" width="1" height="1"/><rect x="49" y="16" width="1" height="1"/><rect x="56" y="16" width="1" height="1"/><rect x="61" y="16" width="1" height="1"/><rect x="63" y="16" width="2" height="1"/><rect x="66" y="16" width="1" height="1"/><rect x="69" y="16" width="1" height="1"/><rect x="71" y="16" width="1" height="1"/><rect x="74" y="16" width="1" height="1"/><rect x="76" y="16" width="1" height="1"/><rect x="78" y="16" width="2" height="1"/><rect x="83" y="16" width="1" height="1"/><rect x="86" y="16" width="1" height="1"/><rect x="89" y="16" width="1" height="1"/><rect x="91" y="16" width="1" height="1"/><rect x="94" y="16" width="1" height="1"/><rect x="96" y="16" width="1" height="1"/><rect x="99" y="16" width="1" height="1"/><rect x="101" y="16" width="1" height="1"/><rect x="104" y="16" width="1" height="1"/><rect x="18" y="17" width="1" height="1"/><rect x="21" y="17" width="4" height="1"/><rect x="26" y="17" width="1" height="1"/><rect x="29" y="17" width="1" height="1"/><rect x="31" y="17" width="1" height="1"/><rect x="34" y="17" width="1" height="1"/><rect x="36" y="17" width="1" height="1"/><rect x="39" y="17" width="1" height="1"/><rect x="43" y="17" width="1" height="1"/><rect x="46" y="17" width="1" height="1"/><rect x="49" y="17" width="1" height="1"/><rect x="56" y="17" width="4" height="1"/><rect x="61" y="17" width="1" height="1"/><rect x="64" y="17" width="1" height="1"/><rect x="67" y="17" width="2" height="1"/><rect x="72" y="17" width="2" height="1"/><rect x="76" y="17" width="1" height="1"/><rect x="79" y="17" width="1" height="1"/><rect x="83" y="17" width="1" height="1"/><rect x="86" y="17" width="1" height="1"/><rect x="89" y="17" width="1" height="1"/><rect x="91" y="17" width="1" height="1"/><rect x="94" y="17" width="1" height="1"/><rect x="96" y="17" width="3" height="1"/><rect x="101" y="17" width="1" height="1"/><rect x="104" y="17" width="1" height="1"/><rect x="108" y="17" width="1" height="1"/><rect x="0" y="21" width="5" height="1"/><rect x="7" y="21" width="3" height="1"/><rect x="12" y="21" width="2" height="1"/><rect x="15" y="21" width="2" height="1"/><rect x="18" y="21" width="1" height="1"/><rect x="22" y="21" width="3" height="1"/><rect x="27" y="21" width="3" height="1"/><rect x="33" y="21" width="1" height="1"/><rect x="38" y="21" width="90" height="1"/><rect x="0" y="22" width="4" height="1"/><rect x="5" y="22" width="2" height="1"/><rect x="8" y="22" width="1" height="1"/><rect x="10" y="22" width="2" height="1"/><rect x="13" y="22" width="1" height="1"/><rect x="18" y="22" width="1" height="1"/><rect x="20" y="22" width="2" height="1"/><rect x="23" y="22" width="1" height="1"/><rect x="25" y="22" width="2" height="1"/><rect x="28" y="22" width="3" height="1"/><rect x="32" y="22" width="2" height="1"/><rect x="35" y="22" width="93" height="1"/><rect x="0" y="23" width="4" height="1"/><rect x="5" y="23" width="4" height="1"/><rect x="10" y="23" width="2" height="1"/><rect x="13" y="23" width="1" height="1"/><rect x="18" y="23" width="1" height="1"/><rect x="22" y="23" width="2" height="1"/><rect x="25" y="23" width="2" height="1"/><rect x="28" y="23" width="3" height="1"/><rect x="32" y="23" width="2" height="1"/><rect x="37" y="23" width="91" height="1"/><rect x="0" y="24" width="4" height="1"/><rect x="5" y="24" width="4" height="1"/><rect x="10" y="24" width="2" height="1"/><rect x="13" y="24" width="1" height="1"/><rect x="15" y="24" width="2" height="1"/><rect x="18" y="24" width="1" height="1"/><rect x="20" y="24" width="2" height="1"/><rect x="23" y="24" width="1" height="1"/><rect x="28" y="24" width="3" height="1"/><rect x="32" y="24" width="2" height="1"/><rect x="35" y="24" width="93" height="1"/><rect x="0" y="25" width="4" height="1"/><rect x="5" y="25" width="2" height="1"/><rect x="8" y="25" width="1" height="1"/><rect x="10" y="25" width="2" height="1"/><rect x="13" y="25" width="1" height="1"/><rect x="15" y="25" width="2" height="1"/><rect x="18" y="25" width="1" height="1"/><rect x="20" y="25" width="2" height="1"/><rect x="23" y="25" width="1" height="1"/><rect x="25" y="25" width="2" height="1"/><rect x="28" y="25" width="3" height="1"/><rect x="32" y="25" width="2" height="1"/><rect x="35" y="25" width="93" height="1"/><rect x="0" y="26" width="5" height="1"/><rect x="7" y="26" width="3" height="1"/><rect x="12" y="26" width="2" height="1"/><rect x="15" y="26" width="2" height="1"/><rect x="18" y="26" width="1" height="1"/><rect x="22" y="26" width="2" height="1"/><rect x="25" y="26" width="2" height="1"/><rect x="28" y="26" width="3" height="1"/><rect x="32" y="26" width="2" height="1"/><rect x="38" y="26" width="90" height="1"/><rect x="0" y="27" width="128" height="1"/><rect x="5" y="29" width="3" height="1"/><rect x="9" y="29" width="1" height="1"/><rect x="12" y="29" width="1" height="1"/><rect x="15" y="29" width="3" height="1"/><rect x="19" y="29" width="4" height="1"/><rect x="24" y="29" width="3" height="1"/><rect x="30" y="29" width="2" height="1"/><rect x="35" y="29" width="2" height="1"/><rect x="39" y="29" width="1" height="1"/><rect x="42" y="29" width="1" height="1"/><rect x="44" y="29" width="3" height="1"/><rect x="50" y="29" width="3" height="1"/><rect x="55" y="29" width="2" height="1"/><rect x="6" y="30" width="1" height="1"/><rect x="9" y="30" width="2" height="1"/><rect x="12" y="30" width="1" height="1"/><rect x="16" y="30" width="1" height="1"/><rect x="19" y="30" width="1" height="1"/><rect x="24" y="30" width="1" height="1"/><rect x="27" y="30" width="1" height="1"/><rect x="29" y="30" width="1" height="1"/><rect x="32" y="30" width="1" height="1"/><rect x="34" y="30" width="1" height="1"/><rect x="37" y="30" width="1" height="1"/><rect x="39" y="30" width="4" height="1"/><rect x="44" y="30" width="1" height="1"/><rect x="47" y="30" width="1" height="1"/><rect x="51" y="30" width="1" height="1"/><rect x="54" y="30" width="1" height="1"/><rect x="57" y="30" width="1" height="1"/><rect x="6" y="31" width="1" height="1"/><rect x="9" y="31" width="4" height="1"/><rect x="16" y="31" width="1" height="1"/><rect x="19" y="31" width="3" height="1"/><rect x="24" y="31" width="1" height="1"/><rect x="27" y="31" width="1" height="1"/><rect x="29" y="31" width="1" height="1"/><rect x="34" y="31" width="1" height="1"/><rect x="37" y="31" width="1" height="1"/><rect x="39" y="31" width="4" height="1"/><rect x="44" y="31" width="3" height="1"/><rect x="51" y="31" width="1" height="1"/><rect x="54" y="31" width="1" height="1"/><rect x="57" y="31" width="1" height="1"/><rect x="6" y="32" width="1" height="1"/><rect x="9" y="32" width="1" height="1"/><rect x="11" y="32" width="2" height="1"/><rect x="16" y="32" width="1" height="1"/><rect x="19" y="32" width="1" height="1"/><rect x="24" y="32" width="3" height="1"/><rect x="29" y="32" width="1" height="1"/><rect x="34" y="32" width="4" height="1"/><rect x="39" y="32" width="1" height="1"/><rect x="42" y="32" width="1" height="1"/><rect x="44" y="32" width="1" height="1"/><rect x="47" y="32" width="1" height="1"/><rect x="51" y="32" width="1" height="1"/><rect x="54" y="32" width="1" height="1"/><rect x="57" y="32" width="1" height="1"/><rect x="121" y="32" width="4" height="1"/><rect x="6" y="33" width="1" height="1"/><rect x="9" y="33" width="1" height="1"/><rect x="11" y="33" width="2" height="1"/><rect x="16" y="33" width="1" height="1"/><rect x="19" y="33" width="1" height="1"/><rect x="24" y="33" width="1" height="1"/><rect x="27" y="33" width="1" height="1"/><rect x="29" y="33" width="1" height="1"/><rect x="32" y="33" width="1" height="1"/><rect x="34" y="33" width="1" height="1"/><rect x="37" y="33" width="1" height="1"/><rect x="39" y="33" width="1" height="1"/><rect x="42" y="33" width="1" height="1"/><rect x="44" y="33" width="1" height="1"/><rect x="47" y="33" width="1" height="1"/><rect x="51" y="33" width="1" height="1"/><rect x="54" y="33" width="1" height="1"/><rect x="57" y="33" width="1" height="1"/><rect x="5" y="34" width="3" height="1"/><rect x="9" y="34" width="1" height="1"/><rect x="12" y="34" width="1" height="1"/><rect x="16" y="34" width="1" height="1"/><rect x="19" y="34" width="4" height="1"/><rect x="24" y="34" width="1" height="1"/><rect x="27" y="34" width="1" height="1"/><rect x="30" y="34" width="2" height="1"/><rect x="34" y="34" width="1" height="1"/><rect x="37" y="34" width="1" height="1"/><rect x="39" y="34" width="1" height="1"/><rect x="42" y="34" width="1" height="1"/><rect x="44" y="34" width="3" height="1"/><rect x="50" y="34" width="3" height="1"/><rect x="55" y="34" width="2" height="1"/><rect x="5" y="37" width="2" height="1"/><rect x="9" y="37" width="3" height="1"/><rect x="15" y="37" width="3" height="1"/><rect x="20" y="37" width="2" height="1"/><rect x="24" y="37" width="3" height="1"/><rect x="4" y="38" width="1" height="1"/><rect x="7" y="38" width="1" height="1"/><rect x="9" y="38" width="1" height="1"/><rect x="12" y="38" width="1" height="1"/><rect x="16" y="38" width="1" height="1"/><rect x="19" y="38" width="1" height="1"/><rect x="22" y="38" width="1" height="1"/><rect x="24" y="38" width="1" height="1"/><rect x="27" y="38" width="1" height="1"/><rect x="4" y="39" width="1" height="1"/><rect x="9" y="39" width="1" height="1"/><rect x="12" y="39" width="1" height="1"/><rect x="16" y="39" width="1" height="1"/><rect x="19" y="39" width="1" height="1"/><rect x="22" y="39" width="1" height="1"/><rect x="24" y="39" width="1" height="1"/><rect x="27" y="39" width="1" height="1"/><rect x="4" y="40" width="1" height="1"/><rect x="9" y="40" width="3" height="1"/><rect x="16" y="40" width="1" height="1"/><rect x="19" y="40" width="4" height="1"/><rect x="24" y="40" width="3" height="1"/><rect x="121" y="40" width="4" height="1"/><rect x="4" y="41" width="1" height="1"/><rect x="7" y="41" width="1" height="1"/><rect x="9" y="41" width="1" height="1"/><rect x="12" y="41" width="1" height="1"/><rect x="16" y="41" width="1" height="1"/><rect x="19" y="41" width="1" height="1"/><rect x="22" y="41" width="1" height="1"/><rect x="24" y="41" width="1" height="1"/><rect x="27" y="41" width="1" height="1"/><rect x="5" y="42" width="2" height="1"/><rect x="9" y="42" width="1" height="1"/><rect x="12" y="42" width="1" height="1"/><rect x="15" y="42" width="3" height="1"/><rect x="19" y="42" width="1" height="1"/><rect x="22" y="42" width="1" height="1"/><rect x="24" y="42" width="1" height="1"/><rect x="27" y="42" width="1" height="1"/><rect x="5" y="45" width="2" height="1"/><rect x="10" y="45" width="2" height="1"/><rect x="14" y="45" width="1" height="1"/><rect x="17" y="45" width="1" height="1"/><rect x="20" y="45" width="2" height="1"/><rect x="24" y="45" width="4" height="1"/><rect x="29" y="45" width="1" height="1"/><rect x="35" y="45" width="2" height="1"/><rect x="39" y="45" width="3" height="1"/><rect x="4" y="46" width="1" height="1"/><rect x="7" y="46" width="1" height="1"/><rect x="9" y="46" width="1" height="1"/><rect x="12" y="46" width="1" height="1"/><rect x="14" y="46" width="2" height="1"/><rect x="17" y="46" width="1" height="1"/><rect x="19" y="46" width="1" height="1"/><rect x="22" y="46" width="1" height="1"/><rect x="24" y="46" width="1" height="1"/><rect x="29" y="46" width="1" height="1"/><rect x="34" y="46" width="1" height="1"/><rect x="37" y="46" width="1" height="1"/><rect x="39" y="46" width="1" height="1"/><rect x="42" y="46" width="1" height="1"/><rect x="4" y="47" width="1" height="1"/><rect x="9" y="47" width="1" height="1"/><rect x="12" y="47" width="1" height="1"/><rect x="14" y="47" width="4" height="1"/><rect x="19" y="47" width="1" height="1"/><rect x="24" y="47" width="3" height="1"/><rect x="29" y="47" width="1" height="1"/><rect x="34" y="47" width="1" height="1"/><rect x="37" y="47" width="1" height="1"/><rect x="39" y="47" width="1" height="1"/><rect x="42" y="47" width="1" height="1"/><rect x="4" y="48" width="1" height="1"/><rect x="9" y="48" width="4" height="1"/><rect x="14" y="48" width="1" height="1"/><rect x="16" y="48" width="2" height="1"/><rect x="19" y="48" width="1" height="1"/><rect x="24" y="48" width="1" height="1"/><rect x="29" y="48" width="1" height="1"/><rect x="34" y="48" width="4" height="1"/><rect x="39" y="48" width="3" height="1"/><rect x="4" y="49" width="1" height="1"/><rect x="7" y="49" width="1" height="1"/><rect x="9" y="49" width="1" height="1"/><rect x="12" y="49" width="1" height="1"/><rect x="14" y="49" width="1" height="1"/><rect x="16" y="49" width="2" height="1"/><rect x="19" y="49" width="1" height="1"/><rect x="22" y="49" width="1" height="1"/><rect x="24" y="49" width="1" height="1"/><rect x="29" y="49" width="1" height="1"/><rect x="34" y="49" width="1" height="1"/><rect x="37" y="49" width="1" height="1"/><rect x="39" y="49" width="1" height="1"/><rect x="42" y="49" width="1" height="1"/><rect x="5" y="50" width="2" height="1"/><rect x="9" y="50" width="1" height="1"/><rect x="12" y="50" width="1" height="1"/><rect x="14" y="50" width="1" height="1"/><rect x="17" y="50" width="1" height="1"/><rect x="20" y="50" width="2" height="1"/><rect x="24" y="50" width="4" height="1"/><rect x="29" y="50" width="4" height="1"/><rect x="34" y="50" width="1" height="1"/><rect x="37" y="50" width="1" height="1"/><rect x="39" y="50" width="1" height="1"/><rect x="42" y="50" width="1" height="1"/><rect x="116" y="56" width="1" height="1"/><rect x="6" y="57" width="2" height="1"/><rect x="11" y="57" width="3" height="1"/><rect x="16" y="57" width="2" height="1"/><rect x="80" y="57" width="2" height="1"/><rect x="84" y="57" width="4" height="1"/><rect x="89" y="57" width="1" height="1"/><rect x="97" y="57" width="1" height="1"/><rect x="100" y="57" width="2" height="1"/><rect x="105" y="57" width="3" height="1"/><rect x="109" y="57" width="3" height="1"/><rect x="115" y="57" width="1" height="1"/><rect x="120" y="57" width="2" height="1"/><rect x="3" y="58" width="1" height="1"/><rect x="5" y="58" width="1" height="1"/><rect x="8" y="58" width="1" height="1"/><rect x="12" y="58" width="1" height="1"/><rect x="15" y="58" width="1" height="1"/><rect x="18" y="58" width="1" height="1"/><rect x="79" y="58" width="1" height="1"/><rect x="82" y="58" width="1" height="1"/><rect x="84" y="58" width="1" height="1"/><rect x="89" y="58" width="1" height="1"/><rect x="97" y="58" width="1" height="1"/><rect x="99" y="58" width="1" height="1"/><rect x="102" y="58" width="1" height="1"/><rect x="106" y="58" width="1" height="1"/><rect x="109" y="58" width="1" height="1"/><rect x="112" y="58" width="1" height="1"/><rect x="115" y="58" width="2" height="1"/><rect x="119" y="58" width="1" height="1"/><rect x="122" y="58" width="1" height="1"/><rect x="124" y="58" width="1" height="1"/><rect x="2" y="59" width="2" height="1"/><rect x="6" y="59" width="1" height="1"/><rect x="12" y="59" width="1" height="1"/><rect x="15" y="59" width="1" height="1"/><rect x="80" y="59" width="1" height="1"/><rect x="84" y="59" width="3" height="1"/><rect x="89" y="59" width="1" height="1"/><rect x="96" y="59" width="1" height="1"/><rect x="99" y="59" width="1" height="1"/><rect x="102" y="59" width="1" height="1"/><rect x="106" y="59" width="1" height="1"/><rect x="109" y="59" width="1" height="1"/><rect x="112" y="59" width="1" height="1"/><rect x="114" y="59" width="1" height="1"/><rect x="117" y="59" width="1" height="1"/><rect x="120" y="59" width="1" height="1"/><rect x="124" y="59" width="2" height="1"/><rect x="0" y="60" width="4" height="1"/><rect x="7" y="60" width="1" height="1"/><rect x="12" y="60" width="1" height="1"/><rect x="15" y="60" width="1" height="1"/><rect x="17" y="60" width="2" height="1"/><rect x="27" y="60" width="1" height="1"/><rect x="30" y="60" width="1" height="1"/><rect x="33" y="60" width="1" height="1"/><rect x="36" y="60" width="1" height="1"/><rect x="39" y="60" width="1" height="1"/><rect x="42" y="60" width="1" height="1"/><rect x="45" y="60" width="1" height="1"/><rect x="48" y="60" width="1" height="1"/><rect x="51" y="60" width="1" height="1"/><rect x="54" y="60" width="1" height="1"/><rect x="57" y="60" width="1" height="1"/><rect x="60" y="60" width="1" height="1"/><rect x="63" y="60" width="1" height="1"/><rect x="66" y="60" width="1" height="1"/><rect x="69" y="60" width="1" height="1"/><rect x="72" y="60" width="1" height="1"/><rect x="75" y="60" width="1" height="1"/><rect x="81" y="60" width="1" height="1"/><rect x="84" y="60" width="1" height="1"/><rect x="89" y="60" width="1" height="1"/><rect x="95" y="60" width="1" height="1"/><rect x="99" y="60" width="4" height="1"/><rect x="106" y="60" width="1" height="1"/><rect x="109" y="60" width="3" height="1"/><rect x="114" y="60" width="4" height="1"/><rect x="121" y="60" width="1" height="1"/><rect x="124" y="60" width="4" height="1"/><rect x="2" y="61" width="2" height="1"/><rect x="5" y="61" width="1" height="1"/><rect x="8" y="61" width="1" height="1"/><rect x="12" y="61" width="1" height="1"/><rect x="15" y="61" width="1" height="1"/><rect x="18" y="61" width="1" height="1"/><rect x="22" y="61" width="1" height="1"/><rect x="79" y="61" width="1" height="1"/><rect x="82" y="61" width="1" height="1"/><rect x="84" y="61" width="1" height="1"/><rect x="89" y="61" width="1" height="1"/><rect x="94" y="61" width="1" height="1"/><rect x="99" y="61" width="1" height="1"/><rect x="102" y="61" width="1" height="1"/><rect x="106" y="61" width="1" height="1"/><rect x="109" y="61" width="1" height="1"/><rect x="112" y="61" width="1" height="1"/><rect x="114" y="61" width="1" height="1"/><rect x="117" y="61" width="1" height="1"/><rect x="119" y="61" width="1" height="1"/><rect x="122" y="61" width="1" height="1"/><rect x="124" y="61" width="2" height="1"/><rect x="3" y="62" width="1" height="1"/><rect x="6" y="62" width="2" height="1"/><rect x="11" y="62" width="3" height="1"/><rect x="16" y="62" width="2" height="1"/><rect x="21" y="62" width="3" height="1"/><rect x="80" y="62" width="2" height="1"/><rect x="84" y="62" width="4" height="1"/><rect x="89" y="62" width="4" height="1"/><rect x="94" y="62" width="1" height="1"/><rect x="99" y="62" width="1" height="1"/><rect x="102" y="62" width="1" height="1"/><rect x="106" y="62" width="1" height="1"/><rect x="109" y="62" width="1" height="1"/><rect x="112" y="62" width="1" height="1"/><rect x="114" y="62" width="1" height="1"/><rect x="117" y="62" width="1" height="1"/><rect x="120" y="62" width="2" height="1"/><rect x="124" y="62" width="1" height="1"/><rect x="22" y="63" width="1" height="1"/></g></svg>
