<svg xmlns="http://www.w3.org/2000/svg" viewBox="0 0 128 64" width="128" height="64" shape-rendering="crispEdges"><title>Pebblebol screen: manual</title><rect width="128" height="64" fill="#000"/><g fill="#fff"><rect x="0" y="1" width="62" height="1"/><rect x="0" y="2" width="62" height="1"/><rect x="65" y="2" width="1" height="1"/><rect x="68" y="2" width="1" height="1"/><rect x="71" y="2" width="2" height="1"/><rect x="75" y="2" width="1" height="1"/><rect x="78" y="2" width="1" height="1"/><rect x="80" y="2" width="1" height="1"/><rect x="83" y="2" width="1" height="1"/><rect x="86" y="2" width="2" height="1"/><rect x="90" y="2" width="1" height="1"/><rect x="0" y="3" width="62" height="1"/><rect x="65" y="3" width="4" height="1"/><rect x="70" y="3" width="1" height="1"/><rect x="73" y="3" width="1" height="1"/><rect x="75" y="3" width="2" height="1"/><rect x="78" y="3" width="1" height="1"/><rect x="80" y="3" width="1" height="1"/><rect x="83" y="3" width="1" height="1"/><rect x="85" y="3" width="1" height="1"/><rect x="88" y="3" width="1" height="1"/><rect x="90" y="3" width="1" height="1"/><rect x="0" y="4" width="62" height="1"/><rect x="65" y="4" width="4" height="1"/><rect x="70" y="4" width="1" height="1"/><rect x="73" y="4" width="1" height="1"/><rect x="75" y="4" width="4" height="1"/><rect x="80" y="4" width="1" height="1"/><rect x="83" y="4" width="1" height="1"/><rect x="85" y="4" width="1" height="1"/><rect x="88" y="4" width="1" height="1"/><rect x="90" y="4" width="1" height="1"/><rect x="0" y="5" width="62" height="1"/><rect x="65" y="5" width="1" height="1"/><rect x="68" y="5" width="1" height="1"/><rect x="70" y="5" width="4" height="1"/><rect x="75" y="5" width="1" height="1"/><rect x="77" y="5" width="2" height="1"/><rect x="80" y="5" width="1" height="1"/><rect x="83" y="5" width="1" height="1"/><rect x="85" y="5" width="4" height="1"/><rect x="90" y="5" width="1" height="1"/><rect x="0" y="6" width="62" height="1"/><rect x="65" y="6" width="1" height="1"/><rect x="68" y="6" width="1" height="1"/><rect x="70" y="6" width="1" height="1"/><rect x="73" y="6" width="1" height="1"/><rect x="75" y="6" width="1" height="1"/><rect x="77" y="6" width="2" height="1"/><rect x="80" y="6" width="1" height="1"/><rect x="83" y="6" width="1" height="1"/><rect x="85" y="6" width="1" height="1"/><rect x="88" y="6" width="1" height="1"/><rect x="90" y="6" width="1" height="1"/><rect x="0" y="7" width="6" height="1"/><rect x="20" y="7" width="4" height="1"/><rect x="30" y="7" width="2" height="1"/><rect x="34" y="7" width="8" height="1"/><rect x="56" y="7" width="6" height="1"/><rect x="65" y="7" width="1" height="1"/><rect x="68" y="7" width="1" height="1"/><rect x="70" y="7" width="1" height="1"/><rect x="73" y="7" width="1" height="1"/><rect x="75" y="7" width="1" height="1"/><rect x="78" y="7" width="1" height="1"/><rect x="81" y="7" width="2" height="1"/><rect x="85" y="7" width="1" height="1"/><rect x="88" y="7" width="1" height="1"/><rect x="90" y="7" width="4" height="1"/><rect x="0" y="8" width="6" height="1"/><rect x="20" y="8" width="4" height="1"/><rect x="30" y="8" width="2" height="1"/><rect x="34" y="8" width="8" height="1"/><rect x="56" y="8" width="6" height="1"/><rect x="0" y="9" width="6" height="1"/><rect x="8" y="9" width="10" height="1"/><rect x="20" y="9" width="2" height="1"/><rect x="26" y="9" width="4" height="1"/><rect x="40" y="9" width="2" height="1"/><rect x="44" y="9" width="10" height="1"/><rect x="56" y="9" width="6" height="1"/><rect x="0" y="10" width="6" height="1"/><rect x="8" y="10" width="10" height="1"/><rect x="20" y="10" width="2" height="1"/><rect x="26" y="10" width="4" height="1"/><rect x="40" y="10" width="2" height="1"/><rect x="44" y="10" width="10" height="1"/><rect x="56" y="10" width="6" height="1"/><rect x="0" y="11" width="6" height="1"/><rect x="8" y="11" width="2" height="1"/><rect x="16" y="11" width="2" height="1"/><rect x="20" y="11" width="4" height="1"/><rect x="26" y="11" width="2" height="1"/><rect x="30" y="11" width="4" height="1"/><rect x="36" y="11" width="2" height="1"/><rect x="40" y="11" width="2" height="1"/><rect x="44" y="11" width="2" height="1"/><rect x="52" y="11" width="2" height="1"/><rect x="56" y="11" width="6" height="1"/><rect x="0" y="12" width="6" height="1"/><rect x="8" y="12" width="2" height="1"/><rect x="16" y="12" width="2" height="1"/><rect x="20" y="12" width="4" height="1"/><rect x="26" y="12" width="2" height="1"/><rect x="30" y="12" width="4" height="1"/><rect x="36" y="12" width="2" height="1"/><rect x="40" y="12" width="2" height="1"/><rect x="44" y="12" width="2" height="1"/><rect x="52" y="12" width="2" height="1"/><rect x="56" y="12" width="6" height="1"/><rect x="0" y="13" width="6" height="1"/><rect x="8" y="13" width="2" height="1"/><rect x="16" y="13" width="2" height="1"/><rect x="20" y="13" width="2" height="1"/><rect x="24" y="13" width="2" height="1"/><rect x="32" y="13" width="2" height="1"/><rect x="36" y="13" width="6" height="1"/><rect x="44" y="13" width="2" height="1"/><rect x="52" y="13" width="2" height="1"/><rect x="56" y="13" width="6" height="1"/><rect x="0" y="14" width="6" height="1"/><rect x="8" y="14" width="2" height="1"/><rect x="16" y="14" width="2" height="1"/><rect x="20" y="14" width="2" height="1"/><rect x="24" y="14" width="2" height="1"/><rect x="32" y="14" width="2" height="1"/><rect x="36" y="14" width="6" height="1"/><rect x="44" y="14" width="2" height="1"/><rect x="52" y="14" width="2" height="1"/><rect x="56" y="14" width="6" height="1"/><rect x="0" y="15" width="6" height="1"/><rect x="8" y="15" width="2" height="1"/><rect x="16" y="15" width="2" height="1"/><rect x="20" y="15" width="4" height="1"/><rect x="26" y="15" width="2" height="1"/><rect x="32" y="15" width="6" height="1"/><rect x="40" y="15" width="2" height="1"/><rect x="44" y="15" width="2" height="1"/><rect x="52" y="15" width="2" height="1"/><rect x="56" y="15" width="6" height="1"/><rect x="0" y="16" width="6" height="1"/><rect x="8" y="16" width="2" height="1"/><rect x="16" y="16" width="2" height="1"/><rect x="20" y="16" width="4" height="1"/><rect x="26" y="16" width="2" height="1"/><rect x="32" y="16" width="6" height="1"/><rect x="40" y="16" width="2" height="1"/><rect x="44" y="16" width="2" height="1"/><rect x="52" y="16" width="2" height="1"/><rect x="56" y="16" width="6" height="1"/><rect x="0" y="17" width="6" height="1"/><rect x="8" y="17" width="10" height="1"/><rect x="20" y="17" width="2" height="1"/><rect x="28" y="17" width="6" height="1"/><rect x="40" y="17" width="2" height="1"/><rect x="44" y="17" width="10" height="1"/><rect x="56" y="17" width="6" height="1"/><rect x="0" y="18" width="6" height="1"/><rect x="8" y="18" width="10" height="1"/><rect x="20" y="18" width="2" height="1"/><rect x="28" y="18" width="6" height="1"/><rect x="40" y="18" width="2" height="1"/><rect x="44" y="18" width="10" height="1"/><rect x="56" y="18" width="6" height="1"/><rect x="0" y="19" width="6" height="1"/><rect x="20" y="19" width="2" height="1"/><rect x="24" y="19" width="2" height="1"/><rect x="28" y="19" width="2" height="1"/><rect x="32" y="19" width="2" height="1"/><rect x="36" y="19" width="2" height="1"/><rect x="40" y="19" width="2" height="1"/><rect x="56" y="19" width="6" height="1"/><rect x="0" y="20" width="6" height="1"/><rect x="20" y="20" width="2" height="1"/><rect x="24" y="20" width="2" height="1"/><rect x="28" y="20" width="2" height="1"/><rect x="32" y="20" width="2" height="1"/><rect x="36" y="20" width="2" height="1"/><rect x="40" y="20" width="2" height="1"/><rect x="56" y="20" width="6" height="1"/><rect x="65" y="20" width="4" height="1"/><rect x="71" y="20" width="2" height="1"/><rect x="106" y="20" width="2" height="1"/><rect x="0" y="21" width="24" height="1"/><rect x="26" y="21" width="2" height="1"/><rect x="30" y="21" width="4" height="1"/><rect x="38" y="21" width="24" height="1"/><rect x="65" y="21" width="1" height="1"/><rect x="72" y="21" width="1" height="1"/><rect x="107" y="21" width="1" height="1"/><rect x="0" y="22" width="24" height="1"/><rect x="26" y="22" width="2" height="1"/><rect x="30" y="22" width="4" height="1"/><rect x="38" y="22" width="24" height="1"/><rect x="65" y="22" width="3" height="1"/><rect x="72" y="22" width="1" height="1"/><rect x="80" y="22" width="2" height="1"/><rect x="83" y="22" width="1" height="1"/><rect x="86" y="22" width="3" height="1"/><rect x="90" y="22" width="3" height="1"/><rect x="95" y="22" width="1" height="1"/><rect x="98" y="22" width="1" height="1"/><rect x="101" y="22" width="3" height="1"/><rect x="107" y="22" width="1" height="1"/><rect x="116" y="22" width="2" height="1"/><rect x="120" y="22" width="3" height="1"/><rect x="0" y="23" width="6" height="1"/><rect x="16" y="23" width="2" height="1"/><rect x="24" y="23" width="2" height="1"/><rect x="36" y="23" width="4" height="1"/><rect x="42" y="23" width="2" height="1"/><rect x="46" y="23" width="2" height="1"/><rect x="50" y="23" width="2" height="1"/><rect x="54" y="23" width="8" height="1"/><rect x="65" y="23" width="1" height="1"/><rect x="72" y="23" width="1" height="1"/><rect x="80" y="23" width="1" height="1"/><rect x="82" y="23" width="1" height="1"/><rect x="84" y="23" width="2" height="1"/><rect x="88" y="23" width="1" height="1"/><rect x="90" y="23" width="1" height="1"/><rect x="93" y="23" width="1" height="1"/><rect x="95" y="23" width="1" height="1"/><rect x="98" y="23" width="1" height="1"/><rect x="100" y="23" width="1" height="1"/><rect x="103" y="23" width="1" height="1"/><rect x="107" y="23" width="1" height="1"/><rect x="115" y="23" width="1" height="1"/><rect x="117" y="23" width="2" height="1"/><rect x="120" y="23" width="1" height="1"/><rect x="123" y="23" width="1" height="1"/><rect x="0" y="24" width="6" height="1"/><rect x="16" y="24" width="2" height="1"/><rect x="24" y="24" width="2" height="1"/><rect x="36" y="24" width="4" height="1"/><rect x="42" y="24" width="2" height="1"/><rect x="46" y="24" width="2" height="1"/><rect x="50" y="24" width="2" height="1"/><rect x="54" y="24" width="8" height="1"/><rect x="65" y="24" width="1" height="1"/><rect x="72" y="24" width="1" height="1"/><rect x="80" y="24" width="1" height="1"/><rect x="82" y="24" width="1" height="1"/><rect x="84" y="24" width="2" height="1"/><rect x="88" y="24" width="1" height="1"/><rect x="90" y="24" width="1" height="1"/><rect x="93" y="24" width="1" height="1"/><rect x="95" y="24" width="1" height="1"/><rect x="98" y="24" width="1" height="1"/><rect x="100" y="24" width="1" height="1"/><rect x="103" y="24" width="1" height="1"/><rect x="107" y="24" width="1" height="1"/><rect x="115" y="24" width="2" height="1"/><rect x="120" y="24" width="1" height="1"/><rect x="123" y="24" width="1" height="1"/><rect x="0" y="25" width="8" height="1"/><rect x="12" y="25" width="4" height="1"/><rect x="18" y="25" width="2" height="1"/><rect x="22" y="25" width="2" height="1"/><rect x="26" y="25" width="2" height="1"/><rect x="30" y="25" width="4" height="1"/><rect x="36" y="25" width="2" height="1"/><rect x="40" y="25" width="4" height="1"/><rect x="46" y="25" width="2" height="1"/><rect x="52" y="25" width="10" height="1"/><rect x="65" y="25" width="4" height="1"/><rect x="71" y="25" width="3" height="1"/><rect x="80" y="25" width="1" height="1"/><rect x="82" y="25" width="1" height="1"/><rect x="84" y="25" width="1" height="1"/><rect x="86" y="25" width="3" height="1"/><rect x="90" y="25" width="1" height="1"/><rect x="93" y="25" width="1" height="1"/><rect x="96" y="25" width="3" height="1"/><rect x="101" y="25" width="3" height="1"/><rect x="106" y="25" width="3" height="1"/><rect x="116" y="25" width="2" height="1"/><rect x="120" y="25" width="1" height="1"/><rect x="123" y="25" width="1" height="1"/><rect x="0" y="26" width="8" height="1"/><rect x="12" y="26" width="4" height="1"/><rect x="18" y="26" width="2" height="1"/><rect x="22" y="26" width="2" height="1"/><rect x="26" y="26" width="2" height="1"/><rect x="30" y="26" width="4" height="1"/><rect x="36" y="26" width="2" height="1"/><rect x="40" y="26" width="4" height="1"/><rect x="46" y="26" width="2" height="1"/><rect x="52" y="26" width="10" height="1"/><rect x="0" y="27" width="8" height="1"/><rect x="10" y="27" width="6" height="1"/><rect x="20" y="27" width="6" height="1"/><rect x="28" y="27" width="4" height="1"/><rect x="34" y="27" width="2" height="1"/><rect x="38" y="27" width="6" height="1"/><rect x="48" y="27" width="4" height="1"/><rect x="56" y="27" width="6" height="1"/><rect x="0" y="28" width="8" height="1"/><rect x="10" y="28" width="6" height="1"/><rect x="20" y="28" width="6" height="1"/><rect x="28" y="28" width="4" height="1"/><rect x="34" y="28" width="2" height="1"/><rect x="38" y="28" width="6" height="1"/><rect x="48" y="28" width="4" height="1"/><rect x="56" y="28" width="6" height="1"/><rect x="65" y="28" width="3" height="1"/><rect x="70" y="28" width="3" height="1"/><rect x="75" y="28" width="4" height="1"/><rect x="111" y="28" width="2" height="1"/><rect x="0" y="29" width="10" height="1"/><rect x="12" y="29" width="12" height="1"/><rect x="26" y="29" width="2" height="1"/><rect x="32" y="29" width="6" height="1"/><rect x="46" y="29" width="6" height="1"/><rect x="56" y="29" width="6" height="1"/><rect x="65" y="29" width="1" height="1"/><rect x="68" y="29" width="1" height="1"/><rect x="70" y="29" width="1" height="1"/><rect x="73" y="29" width="1" height="1"/><rect x="75" y="29" width="1" height="1"/><rect x="112" y="29" width="1" height="1"/><rect x="0" y="30" width="10" height="1"/><rect x="12" y="30" width="12" height="1"/><rect x="26" y="30" width="2" height="1"/><rect x="32" y="30" width="6" height="1"/><rect x="46" y="30" width="6" height="1"/><rect x="56" y="30" width="6" height="1"/><rect x="65" y="30" width="1" height="1"/><rect x="68" y="30" width="1" height="1"/><rect x="70" y="30" width="1" height="1"/><rect x="73" y="30" width="1" height="1"/><rect x="75" y="30" width="3" height="1"/><rect x="91" y="30" width="2" height="1"/><rect x="95" y="30" width="3" height="1"/><rect x="106" y="30" width="2" height="1"/><rect x="112" y="30" width="1" height="1"/><rect x="0" y="31" width="6" height="1"/><rect x="8" y="31" width="10" height="1"/><rect x="20" y="31" width="4" height="1"/><rect x="26" y="31" width="6" height="1"/><rect x="36" y="31" width="4" height="1"/><rect x="44" y="31" width="2" height="1"/><rect x="48" y="31" width="2" height="1"/><rect x="54" y="31" width="8" height="1"/><rect x="65" y="31" width="3" height="1"/><rect x="70" y="31" width="1" height="1"/><rect x="73" y="31" width="1" height="1"/><rect x="75" y="31" width="1" height="1"/><rect x="90" y="31" width="1" height="1"/><rect x="92" y="31" width="2" height="1"/><rect x="95" y="31" width="1" height="1"/><rect x="98" y="31" width="1" height="1"/><rect x="105" y="31" width="1" height="1"/><rect x="107" y="31" width="2" height="1"/><rect x="112" y="31" width="1" height="1"/><rect x="0" y="32" width="6" height="1"/><rect x="8" y="32" width="10" height="1"/><rect x="20" y="32" width="4" height="1"/><rect x="26" y="32" width="6" height="1"/><rect x="36" y="32" width="4" height="1"/><rect x="44" y="32" width="2" height="1"/><rect x="48" y="32" width="2" height="1"/><rect x="54" y="32" width="8" height="1"/><rect x="65" y="32" width="1" height="1"/><rect x="70" y="32" width="1" height="1"/><rect x="73" y="32" width="1" height="1"/><rect x="75" y="32" width="1" height="1"/><rect x="82" y="32" width="2" height="1"/><rect x="90" y="32" width="2" height="1"/><rect x="95" y="32" width="1" height="1"/><rect x="98" y="32" width="1" height="1"/><rect x="105" y="32" width="2" height="1"/><rect x="112" y="32" width="1" height="1"/><rect x="0" y="33" width="6" height="1"/><rect x="10" y="33" width="2" height="1"/><rect x="14" y="33" width="2" height="1"/><rect x="18" y="33" width="6" height="1"/><rect x="26" y="33" width="2" height="1"/><rect x="30" y="33" width="4" height="1"/><rect x="36" y="33" width="4" height="1"/><rect x="42" y="33" width="2" height="1"/><rect x="46" y="33" width="2" height="1"/><rect x="50" y="33" width="12" height="1"/><rect x="65" y="33" width="1" height="1"/><rect x="70" y="33" width="3" height="1"/><rect x="75" y="33" width="1" height="1"/><rect x="82" y="33" width="1" height="1"/><rect x="91" y="33" width="2" height="1"/><rect x="95" y="33" width="1" height="1"/><rect x="98" y="33" width="1" height="1"/><rect x="106" y="33" width="2" height="1"/><rect x="111" y="33" width="3" height="1"/><rect x="0" y="34" width="6" height="1"/><rect x="10" y="34" width="2" height="1"/><rect x="14" y="34" width="2" height="1"/><rect x="18" y="34" width="6" height="1"/><rect x="26" y="34" width="2" height="1"/><rect x="30" y="34" width="4" height="1"/><rect x="36" y="34" width="4" height="1"/><rect x="42" y="34" width="2" height="1"/><rect x="46" y="34" width="2" height="1"/><rect x="50" y="34" width="12" height="1"/><rect x="81" y="34" width="1" height="1"/><rect x="0" y="35" width="6" height="1"/><rect x="8" y="35" width="2" height="1"/><rect x="12" y="35" width="6" height="1"/><rect x="20" y="35" width="2" height="1"/><rect x="26" y="35" width="6" height="1"/><rect x="34" y="35" width="2" height="1"/><rect x="38" y="35" width="2" height="1"/><rect x="44" y="35" width="2" height="1"/><rect x="56" y="35" width="6" height="1"/><rect x="72" y="35" width="1" height="1"/><rect x="0" y="36" width="6" height="1"/><rect x="8" y="36" width="2" height="1"/><rect x="12" y="36" width="6" height="1"/><rect x="20" y="36" width="2" height="1"/><rect x="26" y="36" width="6" height="1"/><rect x="34" y="36" width="2" height="1"/><rect x="38" y="36" width="2" height="1"/><rect x="44" y="36" width="2" height="1"/><rect x="56" y="36" width="6" height="1"/><rect x="71" y="36" width="1" height="1"/><rect x="82" y="36" width="1" height="1"/><rect x="86" y="36" width="2" height="1"/><rect x="0" y="37" width="6" height="1"/><rect x="8" y="37" width="2" height="1"/><rect x="14" y="37" width="6" height="1"/><rect x="22" y="37" width="4" height="1"/><rect x="28" y="37" width="14" height="1"/><rect x="48" y="37" width="6" height="1"/><rect x="56" y="37" width="6" height="1"/><rect x="87" y="37" width="1" height="1"/><rect x="0" y="38" width="6" height="1"/><rect x="8" y="38" width="2" height="1"/><rect x="14" y="38" width="6" height="1"/><rect x="22" y="38" width="4" height="1"/><rect x="28" y="38" width="14" height="1"/><rect x="48" y="38" width="6" height="1"/><rect x="56" y="38" width="6" height="1"/><rect x="65" y="38" width="2" height="1"/><rect x="68" y="38" width="1" height="1"/><rect x="71" y="38" width="2" height="1"/><rect x="76" y="38" width="1" height="1"/><rect x="78" y="38" width="1" height="1"/><rect x="81" y="38" width="2" height="1"/><rect x="87" y="38" width="1" height="1"/><rect x="0" y="39" width="6" height="1"/><rect x="8" y="39" width="6" height="1"/><rect x="16" y="39" width="2" height="1"/><rect x="26" y="39" width="6" height="1"/><rect x="52" y="39" width="2" height="1"/><rect x="56" y="39" width="6" height="1"/><rect x="65" y="39" width="1" height="1"/><rect x="67" y="39" width="1" height="1"/><rect x="69" y="39" width="2" height="1"/><rect x="73" y="39" width="1" height="1"/><rect x="76" y="39" width="1" height="1"/><rect x="78" y="39" width="1" height="1"/><rect x="82" y="39" width="1" height="1"/><rect x="87" y="39" width="1" height="1"/><rect x="0" y="40" width="6" height="1"/><rect x="8" y="40" width="6" height="1"/><rect x="16" y="40" width="2" height="1"/><rect x="26" y="40" width="6" height="1"/><rect x="52" y="40" width="2" height="1"/><rect x="56" y="40" width="6" height="1"/><rect x="65" y="40" width="1" height="1"/><rect x="67" y="40" width="1" height="1"/><rect x="69" y="40" width="2" height="1"/><rect x="73" y="40" width="1" height="1"/><rect x="76" y="40" width="1" height="1"/><rect x="78" y="40" width="1" height="1"/><rect x="82" y="40" width="1" height="1"/><rect x="87" y="40" width="1" height="1"/><rect x="92" y="40" width="1" height="1"/><rect x="0" y="41" width="22" height="1"/><rect x="24" y="41" width="4" height="1"/><rect x="30" y="41" width="6" height="1"/><rect x="40" y="41" width="6" height="1"/><rect x="50" y="41" width="2" height="1"/><rect x="54" y="41" width="8" height="1"/><rect x="65" y="41" width="1" height="1"/><rect x="67" y="41" width="1" height="1"/><rect x="69" y="41" width="1" height="1"/><rect x="71" y="41" width="2" height="1"/><rect x="77" y="41" width="1" height="1"/><rect x="81" y="41" width="3" height="1"/><rect x="86" y="41" width="3" height="1"/><rect x="91" y="41" width="3" height="1"/><rect x="0" y="42" width="22" height="1"/><rect x="24" y="42" width="4" height="1"/><rect x="30" y="42" width="6" height="1"/><rect x="40" y="42" width="6" height="1"/><rect x="50" y="42" width="2" height="1"/><rect x="54" y="42" width="8" height="1"/><rect x="92" y="42" width="1" height="1"/><rect x="0" y="43" width="6" height="1"/><rect x="20" y="43" width="2" height="1"/><rect x="28" y="43" width="10" height="1"/><rect x="40" y="43" width="2" height="1"/><rect x="44" y="43" width="2" height="1"/><rect x="48" y="43" width="4" height="1"/><rect x="56" y="43" width="6" height="1"/><rect x="0" y="44" width="6" height="1"/><rect x="20" y="44" width="2" height="1"/><rect x="28" y="44" width="10" height="1"/><rect x="40" y="44" width="2" height="1"/><rect x="44" y="44" width="2" height="1"/><rect x="48" y="44" width="4" height="1"/><rect x="56" y="44" width="6" height="1"/><rect x="0" y="45" width="6" height="1"/><rect x="8" y="45" width="10" height="1"/><rect x="20" y="45" width="4" height="1"/><rect x="26" y="45" width="2" height="1"/><rect x="30" y="45" width="4" height="1"/><rect x="36" y="45" width="2" height="1"/><rect x="40" y="45" width="6" height="1"/><rect x="48" y="45" width="6" height="1"/><rect x="56" y="45" width="6" height="1"/><rect x="0" y="46" width="6" height="1"/><rect x="8" y="46" width="10" height="1"/><rect x="20" y="46" width="4" height="1"/><rect x="26" y="46" width="2" height="1"/><rect x="30" y="46" width="4" height="1"/><rect x="36" y="46" width="2" height="1"/><rect x="40" y="46" width="6" height="1"/><rect x="48" y="46" width="6" height="1"/><rect x="56" y="46" width="6" height="1"/><rect x="0" y="47" width="6" height="1"/><rect x="8" y="47" width="2" height="1"/><rect x="16" y="47" width="2" height="1"/><rect x="20" y="47" width="2" height="1"/><rect x="26" y="47" width="2" height="1"/><rect x="52" y="47" width="2" height="1"/><rect x="56" y="47" width="6" height="1"/><rect x="0" y="48" width="6" height="1"/><rect x="8" y="48" width="2" height="1"/><rect x="16" y="48" width="2" height="1"/><rect x="20" y="48" width="2" height="1"/><rect x="26" y="48" width="2" height="1"/><rect x="52" y="48" width="2" height="1"/><rect x="56" y="48" width="6" height="1"/><rect x="0" y="49" width="6" height="1"/><rect x="8" y="49" width="2" height="1"/><rect x="16" y="49" width="2" height="1"/><rect x="20" y="49" width="2" height="1"/><rect x="24" y="49" width="2" height="1"/><rect x="32" y="49" width="2" height="1"/><rect x="36" y="49" width="4" height="1"/><rect x="44" y="49" width="2" height="1"/><rect x="48" y="49" width="2" height="1"/><rect x="52" y="49" width="10" height="1"/><rect x="0" y="50" width="6" height="1"/><rect x="8" y="50" width="2" height="1"/><rect x="16" y="50" width="2" height="1"/><rect x="20" y="50" width="2" height="1"/><rect x="24" y="50" width="2" height="1"/><rect x="32" y="50" width="2" height="1"/><rect x="36" y="50" width="4" height="1"/><rect x="44" y="50" width="2" height="1"/><rect x="48" y="50" width="2" height="1"/><rect x="52" y="50" width="10" height="1"/><rect x="0" y="51" width="6" height="1"/><rect x="8" y="51" width="2" height="1"/><rect x="16" y="51" width="2" height="1"/><rect x="20" y="51" width="2" height="1"/><rect x="28" y="51" width="6" height="1"/><rect x="36" y="51" width="12" height="1"/><rect x="50" y="51" width="4" height="1"/><rect x="56" y="51" width="6" height="1"/><rect x="0" y="52" width="6" height="1"/><rect x="8" y="52" width="2" height="1"/><rect x="16" y="52" width="2" height="1"/><rect x="20" y="52" width="2" height="1"/><rect x="28" y="52" width="6" height="1"/><rect x="36" y="52" width="12" height="1"/><rect x="50" y="52" width="4" height="1"/><rect x="56" y="52" width="6" height="1"/><rect x="0" y="53" width="6" height="1"/><rect x="8" y="53" width="10" height="1"/><rect x="20" y="53" width="2" height="1"/><rect x="24" y="53" width="6" height="1"/><rect x="32" y="53" width="6" height="1"/><rect x="40" y="53" width="14" height="1"/><rect x="56" y="53" width="6" height="1"/><rect x="0" y="54" width="6" height="1"/><rect x="8" y="54" width="10" height="1"/><rect x="20" y="54" width="2" height="1"/><rect x="24" y="54" width="6" height="1"/><rect x="32" y="54" width="6" height="1"/><rect x="40" y="54" width="14" height="1"/><rect x="56" y="54" width="6" height="1"/><rect x="0" y="55" width="6" height="1"/><rect x="20" y="55" width="2" height="1"/><rect x="24" y="55" width="6" height="1"/><rect x="36" y="55" width="6" height="1"/><rect x="56" y="55" width="6" height="1"/><rect x="92" y="55" width="1" height="1"/><rect x="0" y="56" width="6" height="1"/><rect x="20" y="56" width="2" height="1"/><rect x="24" y="56" width="6" height="1"/><rect x="36" y="56" width="6" height="1"/><rect x="56" y="56" width="6" height="1"/><rect x="69" y="56" width="1" height="1"/><rect x="76" y="56" width="2" height="1"/><rect x="81" y="56" width="3" height="1"/><rect x="85" y="56" width="3" height="1"/><rect x="91" y="56" width="1" height="1"/><rect x="96" y="56" width="2" height="1"/><rect x="0" y="57" width="62" height="1"/><rect x="68" y="57" width="2" height="1"/><rect x="75" y="57" width="1" height="1"/><rect x="78" y="57" width="1" height="1"/><rect x="82" y="57" width="1" height="1"/><rect x="85" y="57" width="1" height="1"/><rect x="88" y="57" width="1" height="1"/><rect x="91" y="57" width="2" height="1"/><rect x="95" y="57" width="1" height="1"/><rect x="98" y="57" width="1" height="1"/><rect x="0" y="58" width="62" height="1"/><rect x="67" y="58" width="3" height="1"/><rect x="75" y="58" width="1" height="1"/><rect x="78" y="58" width="1" height="1"/><rect x="82" y="58" width="1" height="1"/><rect x="85" y="58" width="1" height="1"/><rect x="88" y="58" width="1" height="1"/><rect x="90" y="58" width="1" height="1"/><rect x="93" y="58" width="1" height="1"/><rect x="96" y="58" width="1" height="1"/><rect x="0" y="59" width="62" height="1"/><rect x="66" y="59" width="4" height="1"/><rect x="75" y="59" width="4" height="1"/><rect x="82" y="59" width="1" height="1"/><rect x="85" y="59" width="3" height="1"/><rect x="90" y="59" width="4" height="1"/><rect x="97" y="59" width="1" height="1"/><rect x="0" y="60" width="62" height="1"/><rect x="67" y="60" width="3" height="1"/><rect x="75" y="60" width="1" height="1"/><rect x="78" y="60" width="1" height="1"/><rect x="82" y="60" width="1" height="1"/><rect x="85" y="60" width="1" height="1"/><rect x="88" y="60" width="1" height="1"/><rect x="90" y="60" width="1" height="1"/><rect x="93" y="60" width="1" height="1"/><rect x="95" y="60" width="1" height="1"/><rect x="98" y="60" width="1" height="1"/><rect x="0" y="61" width="62" height="1"/><rect x="68" y="61" width="2" height="1"/><rect x="75" y="61" width="1" height="1"/><rect x="78" y="61" width="1" height="1"/><rect x="82" y="61" width="1" height="1"/><rect x="85" y="61" width="1" height="1"/><rect x="88" y="61" width="1" height="1"/><rect x="90" y="61" width="1" height="1"/><rect x="93" y="61" width="1" height="1"/><rect x="96" y="61" width="2" height="1"/><rect x="0" y="62" width="62" height="1"/><rect x="69" y="62" width="1" height="1"/></g></svg>
