<svg xmlns="http://www.w3.org/2000/svg" viewBox="0 0 128 64" width="128" height="64" shape-rendering="crispEdges"><title>Pebblebol screen: menu_settings_countdown</title><rect width="128" height="64" fill="#000"/><g fill="#fff"><rect x="0" y="0" width="128" height="1"/><rect x="0" y="1" width="2" height="1"/><rect x="6" y="1" width="2" height="1"/><rect x="13" y="1" width="1" height="1"/><rect x="18" y="1" width="2" height="1"/><rect x="24" y="1" width="2" height="1"/><rect x="28" y="1" width="4" height="1"/><rect x="37" y="1" width="1" height="1"/><rect x="42" y="1" width="3" height="1"/><rect x="48" y="1" width="2" height="1"/><rect x="52" y="1" width="76" height="1"/><rect x="0" y="2" width="2" height="1"/><rect x="4" y="2" width="1" height="1"/><rect x="7" y="2" width="1" height="1"/><rect x="10" y="2" width="2" height="1"/><rect x="13" y="2" width="1" height="1"/><rect x="16" y="2" width="1" height="1"/><rect x="19" y="2" width="1" height="1"/><rect x="22" y="2" width="1" height="1"/><rect x="25" y="2" width="1" height="1"/><rect x="28" y="2" width="4" height="1"/><rect x="34" y="2" width="2" height="1"/><rect x="37" y="2" width="1" height="1"/><rect x="40" y="2" width="1" height="1"/><rect x="43" y="2" width="1" height="1"/><rect x="46" y="2" width="1" height="1"/><rect x="49" y="2" width="1" height="1"/><rect x="52" y="2" width="76" height="1"/><rect x="0" y="3" width="2" height="1"/><rect x="4" y="3" width="1" height="1"/><rect x="7" y="3" width="1" height="1"/><rect x="10" y="3" width="4" height="1"/><rect x="16" y="3" width="1" height="1"/><rect x="19" y="3" width="1" height="1"/><rect x="22" y="3" width="1" height="1"/><rect x="25" y="3" width="1" height="1"/><rect x="28" y="3" width="4" height="1"/><rect x="34" y="3" width="4" height="1"/><rect x="40" y="3" width="1" height="1"/><rect x="43" y="3" width="1" height="1"/><rect x="46" y="3" width="1" height="1"/><rect x="49" y="3" width="1" height="1"/><rect x="52" y="3" width="76" height="1"/><rect x="0" y="4" width="2" height="1"/><rect x="4" y="4" width="1" height="1"/><rect x="7" y="4" width="1" height="1"/><rect x="12" y="4" width="2" height="1"/><rect x="18" y="4" width="2" height="1"/><rect x="24" y="4" width="2" height="1"/><rect x="28" y="4" width="4" height="1"/><rect x="36" y="4" width="2" height="1"/><rect x="42" y="4" width="2" height="1"/><rect x="46" y="4" width="1" height="1"/><rect x="49" y="4" width="1" height="1"/><rect x="52" y="4" width="76" height="1"/><rect x="0" y="5" width="2" height="1"/><rect x="6" y="5" width="2" height="1"/><rect x="10" y="5" width="4" height="1"/><rect x="16" y="5" width="1" height="1"/><rect x="19" y="5" width="1" height="1"/><rect x="22" y="5" width="1" height="1"/><rect x="25" y="5" width="1" height="1"/><rect x="28" y="5" width="4" height="1"/><rect x="34" y="5" width="4" height="1"/><rect x="40" y="5" width="1" height="1"/><rect x="43" y="5" width="1" height="1"/><rect x="46" y="5" width="1" height="1"/><rect x="49" y="5" width="1" height="1"/><rect x="52" y="5" width="76" height="1"/><rect x="0" y="6" width="2" height="1"/><rect x="4" y="6" width="4" height="1"/><rect x="10" y="6" width="4" height="1"/><rect x="16" y="6" width="1" height="1"/><rect x="19" y="6" width="1" height="1"/><rect x="22" y="6" width="1" height="1"/><rect x="25" y="6" width="1" height="1"/><rect x="28" y="6" width="4" height="1"/><rect x="34" y="6" width="4" height="1"/><rect x="40" y="6" width="1" height="1"/><rect x="43" y="6" width="1" height="1"/><rect x="46" y="6" width="1" height="1"/><rect x="49" y="6" width="1" height="1"/><rect x="52" y="6" width="76" height="1"/><rect x="0" y="7" width="2" height="1"/><rect x="4" y="7" width="4" height="1"/><rect x="10" y="7" width="2" height="1"/><rect x="13" y="7" width="1" height="1"/><rect x="16" y="7" width="1" height="1"/><rect x="19" y="7" width="1" height="1"/><rect x="22" y="7" width="1" height="1"/><rect x="25" y="7" width="1" height="1"/><rect x="28" y="7" width="2" height="1"/><rect x="31" y="7" width="1" height="1"/><rect x="34" y="7" width="2" height="1"/><rect x="37" y="7" width="1" height="1"/><rect x="40" y="7" width="1" height="1"/><rect x="43" y="7" width="1" height="1"/><rect x="46" y="7" width="1" height="1"/><rect x="49" y="7" width="1" height="1"/><rect x="52" y="7" width="2" height="1"/><rect x="55" y="7" width="73" height="1"/><rect x="0" y="8" width="2" height="1"/><rect x="4" y="8" width="4" height="1"/><rect x="13" y="8" width="1" height="1"/><rect x="18" y="8" width="2" height="1"/><rect x="24" y="8" width="2" height="1"/><rect x="31" y="8" width="1" height="1"/><rect x="37" y="8" width="1" height="1"/><rect x="42" y="8" width="3" height="1"/><rect x="48" y="8" width="2" height="1"/><rect x="55" y="8" width="73" height="1"/><rect x="0" y="9" width="128" height="1"/><rect x="0" y="10" width="128" height="1"/><rect x="54" y="15" width="20" height="1"/><rect x="54" y="16" width="1" height="1"/><rect x="73" y="16" width="1" height="1"/><rect x="54" y="17" width="1" height="1"/><rect x="73" y="17" width="1" height="1"/><rect x="54" y="18" width="1" height="1"/><rect x="73" y="18" width="1" height="1"/><rect x="38" y="19" width="1" height="1"/><rect x="54" y="19" width="1" height="1"/><rect x="61" y="19" width="1" height="1"/><rect x="66" y="19" width="1" height="1"/><rect x="73" y="19" width="1" height="1"/><rect x="82" y="19" width="1" height="1"/><rect x="92" y="19" width="1" height="1"/><rect x="108" y="19" width="1" height="1"/><rect x="114" y="19" width="1" height="1"/><rect x="39" y="20" width="1" height="1"/><rect x="54" y="20" width="1" height="1"/><rect x="60" y="20" width="3" height="1"/><rect x="65" y="20" width="3" height="1"/><rect x="73" y="20" width="1" height="1"/><rect x="83" y="20" width="1" height="1"/><rect x="91" y="20" width="1" height="1"/><rect x="20" y="21" width="1" height="1"/><rect x="38" y="21" width="1" height="1"/><rect x="40" y="21" width="1" height="1"/><rect x="54" y="21" width="1" height="1"/><rect x="59" y="21" width="11" height="1"/><rect x="73" y="21" width="1" height="1"/><rect x="84" y="21" width="1" height="1"/><rect x="86" y="21" width="1" height="1"/><rect x="88" y="21" width="1" height="1"/><rect x="90" y="21" width="1" height="1"/><rect x="108" y="21" width="1" height="1"/><rect x="114" y="21" width="1" height="1"/><rect x="39" y="22" width="1" height="1"/><rect x="41" y="22" width="1" height="1"/><rect x="54" y="22" width="1" height="1"/><rect x="58" y="22" width="12" height="1"/><rect x="73" y="22" width="1" height="1"/><rect x="85" y="22" width="1" height="1"/><rect x="89" y="22" width="1" height="1"/><rect x="18" y="23" width="1" height="1"/><rect x="38" y="23" width="1" height="1"/><rect x="40" y="23" width="1" height="1"/><rect x="42" y="23" width="1" height="1"/><rect x="54" y="23" width="1" height="1"/><rect x="58" y="23" width="4" height="1"/><rect x="66" y="23" width="4" height="1"/><rect x="73" y="23" width="1" height="1"/><rect x="84" y="23" width="1" height="1"/><rect x="90" y="23" width="1" height="1"/><rect x="110" y="23" width="1" height="1"/><rect x="112" y="23" width="1" height="1"/><rect x="39" y="24" width="1" height="1"/><rect x="41" y="24" width="1" height="1"/><rect x="43" y="24" width="1" height="1"/><rect x="54" y="24" width="1" height="1"/><rect x="58" y="24" width="3" height="1"/><rect x="67" y="24" width="3" height="1"/><rect x="73" y="24" width="1" height="1"/><rect x="83" y="24" width="1" height="1"/><rect x="91" y="24" width="1" height="1"/><rect x="38" y="25" width="1" height="1"/><rect x="40" y="25" width="1" height="1"/><rect x="42" y="25" width="1" height="1"/><rect x="54" y="25" width="1" height="1"/><rect x="58" y="25" width="3" height="1"/><rect x="67" y="25" width="3" height="1"/><rect x="73" y="25" width="1" height="1"/><rect x="82" y="25" width="1" height="1"/><rect x="92" y="25" width="1" height="1"/><rect x="108" y="25" width="1" height="1"/><rect x="110" y="25" width="1" height="1"/><rect x="112" y="25" width="1" height="1"/><rect x="114" y="25" width="1" height="1"/><rect x="116" y="25" width="1" height="1"/><rect x="37" y="26" width="1" height="1"/><rect x="39" y="26" width="1" height="1"/><rect x="43" y="26" width="1" height="1"/><rect x="54" y="26" width="1" height="1"/><rect x="58" y="26" width="4" height="1"/><rect x="66" y="26" width="4" height="1"/><rect x="73" y="26" width="1" height="1"/><rect x="83" y="26" width="1" height="1"/><rect x="91" y="26" width="1" height="1"/><rect x="14" y="27" width="1" height="1"/><rect x="16" y="27" width="1" height="1"/><rect x="36" y="27" width="1" height="1"/><rect x="38" y="27" width="1" height="1"/><rect x="42" y="27" width="1" height="1"/><rect x="54" y="27" width="1" height="1"/><rect x="58" y="27" width="12" height="1"/><rect x="73" y="27" width="1" height="1"/><rect x="84" y="27" width="1" height="1"/><rect x="86" y="27" width="1" height="1"/><rect x="88" y="27" width="1" height="1"/><rect x="90" y="27" width="1" height="1"/><rect x="106" y="27" width="1" height="1"/><rect x="108" y="27" width="1" height="1"/><rect x="110" y="27" width="1" height="1"/><rect x="112" y="27" width="1" height="1"/><rect x="114" y="27" width="1" height="1"/><rect x="116" y="27" width="1" height="1"/><rect x="39" y="28" width="1" height="1"/><rect x="41" y="28" width="1" height="1"/><rect x="54" y="28" width="1" height="1"/><rect x="59" y="28" width="11" height="1"/><rect x="73" y="28" width="1" height="1"/><rect x="85" y="28" width="1" height="1"/><rect x="89" y="28" width="1" height="1"/><rect x="16" y="29" width="1" height="1"/><rect x="38" y="29" width="1" height="1"/><rect x="40" y="29" width="1" height="1"/><rect x="54" y="29" width="1" height="1"/><rect x="60" y="29" width="3" height="1"/><rect x="65" y="29" width="3" height="1"/><rect x="73" y="29" width="1" height="1"/><rect x="84" y="29" width="1" height="1"/><rect x="90" y="29" width="1" height="1"/><rect x="106" y="29" width="1" height="1"/><rect x="108" y="29" width="1" height="1"/><rect x="110" y="29" width="1" height="1"/><rect x="112" y="29" width="1" height="1"/><rect x="114" y="29" width="1" height="1"/><rect x="116" y="29" width="1" height="1"/><rect x="39" y="30" width="1" height="1"/><rect x="54" y="30" width="1" height="1"/><rect x="61" y="30" width="1" height="1"/><rect x="66" y="30" width="1" height="1"/><rect x="73" y="30" width="1" height="1"/><rect x="83" y="30" width="1" height="1"/><rect x="91" y="30" width="1" height="1"/><rect x="54" y="31" width="1" height="1"/><rect x="73" y="31" width="1" height="1"/><rect x="54" y="32" width="1" height="1"/><rect x="73" y="32" width="1" height="1"/><rect x="54" y="33" width="1" height="1"/><rect x="73" y="33" width="1" height="1"/><rect x="54" y="34" width="20" height="1"/><rect x="45" y="41" width="1" height="1"/><rect x="51" y="41" width="3" height="1"/><rect x="55" y="41" width="2" height="1"/><rect x="58" y="41" width="2" height="1"/><rect x="62" y="41" width="4" height="1"/><rect x="67" y="41" width="11" height="1"/><rect x="80" y="41" width="4" height="1"/><rect x="44" y="42" width="2" height="1"/><rect x="52" y="42" width="2" height="1"/><rect x="55" y="42" width="2" height="1"/><rect x="58" y="42" width="2" height="1"/><rect x="61" y="42" width="2" height="1"/><rect x="65" y="42" width="1" height="1"/><rect x="67" y="42" width="1" height="1"/><rect x="69" y="42" width="2" height="1"/><rect x="73" y="42" width="2" height="1"/><rect x="77" y="42" width="1" height="1"/><rect x="79" y="42" width="2" height="1"/><rect x="83" y="42" width="1" height="1"/><rect x="44" y="43" width="3" height="1"/><rect x="52" y="43" width="2" height="1"/><rect x="55" y="43" width="2" height="1"/><rect x="58" y="43" width="2" height="1"/><rect x="61" y="43" width="2" height="1"/><rect x="69" y="43" width="2" height="1"/><rect x="73" y="43" width="2" height="1"/><rect x="79" y="43" width="2" height="1"/><rect x="44" y="44" width="1" height="1"/><rect x="46" y="44" width="1" height="1"/><rect x="52" y="44" width="2" height="1"/><rect x="55" y="44" width="2" height="1"/><rect x="58" y="44" width="2" height="1"/><rect x="61" y="44" width="4" height="1"/><rect x="69" y="44" width="2" height="1"/><rect x="73" y="44" width="4" height="1"/><rect x="79" y="44" width="4" height="1"/><rect x="43" y="45" width="5" height="1"/><rect x="52" y="45" width="2" height="1"/><rect x="55" y="45" width="2" height="1"/><rect x="58" y="45" width="2" height="1"/><rect x="62" y="45" width="4" height="1"/><rect x="69" y="45" width="2" height="1"/><rect x="73" y="45" width="2" height="1"/><rect x="80" y="45" width="4" height="1"/><rect x="43" y="46" width="2" height="1"/><rect x="46" y="46" width="2" height="1"/><rect x="49" y="46" width="2" height="1"/><rect x="52" y="46" width="2" height="1"/><rect x="55" y="46" width="2" height="1"/><rect x="58" y="46" width="2" height="1"/><rect x="64" y="46" width="2" height="1"/><rect x="69" y="46" width="2" height="1"/><rect x="73" y="46" width="2" height="1"/><rect x="82" y="46" width="2" height="1"/><rect x="43" y="47" width="1" height="1"/><rect x="46" y="47" width="2" height="1"/><rect x="49" y="47" width="2" height="1"/><rect x="52" y="47" width="2" height="1"/><rect x="55" y="47" width="2" height="1"/><rect x="58" y="47" width="2" height="1"/><rect x="61" y="47" width="1" height="1"/><rect x="64" y="47" width="2" height="1"/><rect x="69" y="47" width="2" height="1"/><rect x="73" y="47" width="2" height="1"/><rect x="77" y="47" width="1" height="1"/><rect x="79" y="47" width="1" height="1"/><rect x="82" y="47" width="2" height="1"/><rect x="43" y="48" width="1" height="1"/><rect x="46" y="48" width="2" height="1"/><rect x="50" y="48" width="3" height="1"/><rect x="56" y="48" width="3" height="1"/><rect x="61" y="48" width="4" height="1"/><rect x="69" y="48" width="2" height="1"/><rect x="73" y="48" width="5" height="1"/><rect x="79" y="48" width="4" height="1"/><rect x="0" y="53" width="51" height="1"/><rect x="74" y="53" width="3" height="1"/><rect x="0" y="54" width="52" height="1"/><rect x="55" y="54" width="1" height="1"/><rect x="59" y="54" width="1" height="1"/><rect x="63" y="54" width="1" height="1"/><rect x="67" y="54" width="1" height="1"/><rect x="71" y="54" width="1" height="1"/><rect x="74" y="54" width="3" height="1"/><rect x="0" y="55" width="51" height="1"/><rect x="74" y="55" width="3" height="1"/><rect x="96" y="56" width="1" height="1"/><rect x="6" y="57" width="2" height="1"/><rect x="11" y="57" width="3" height="1"/><rect x="16" y="57" width="2" height="1"/><rect x="80" y="57" width="2" height="1"/><rect x="85" y="57" width="3" height="1"/><rect x="89" y="57" width="3" height="1"/><rect x="95" y="57" width="1" height="1"/><rect x="100" y="57" width="2" height="1"/><rect x="107" y="57" width="1" height="1"/><rect x="110" y="57" width="2" height="1"/><rect x="114" y="57" width="4" height="1"/><rect x="119" y="57" width="1" height="1"/><rect x="3" y="58" width="1" height="1"/><rect x="5" y="58" width="1" height="1"/><rect x="8" y="58" width="1" height="1"/><rect x="12" y="58" width="1" height="1"/><rect x="15" y="58" width="1" height="1"/><rect x="18" y="58" width="1" height="1"/><rect x="79" y="58" width="1" height="1"/><rect x="82" y="58" width="1" height="1"/><rect x="86" y="58" width="1" height="1"/><rect x="89" y="58" width="1" height="1"/><rect x="92" y="58" width="1" height="1"/><rect x="95" y="58" width="2" height="1"/><rect x="99" y="58" width="1" height="1"/><rect x="102" y="58" width="1" height="1"/><rect x="107" y="58" width="1" height="1"/><rect x="109" y="58" width="1" height="1"/><rect x="112" y="58" width="1" height="1"/><rect x="114" y="58" width="1" height="1"/><rect x="119" y="58" width="1" height="1"/><rect x="124" y="58" width="1" height="1"/><rect x="2" y="59" width="2" height="1"/><rect x="6" y="59" width="1" height="1"/><rect x="12" y="59" width="1" height="1"/><rect x="15" y="59" width="1" height="1"/><rect x="79" y="59" width="1" height="1"/><rect x="82" y="59" width="1" height="1"/><rect x="86" y="59" width="1" height="1"/><rect x="89" y="59" width="1" height="1"/><rect x="92" y="59" width="1" height="1"/><rect x="94" y="59" width="1" height="1"/><rect x="97" y="59" width="1" height="1"/><rect x="100" y="59" width="1" height="1"/><rect x="106" y="59" width="1" height="1"/><rect x="110" y="59" width="1" height="1"/><rect x="114" y="59" width="3" height="1"/><rect x="119" y="59" width="1" height="1"/><rect x="124" y="59" width="2" height="1"/><rect x="0" y="60" width="4" height="1"/><rect x="7" y="60" width="1" height="1"/><rect x="12" y="60" width="1" height="1"/><rect x="15" y="60" width="1" height="1"/><rect x="17" y="60" width="2" height="1"/><rect x="27" y="60" width="1" height="1"/><rect x="30" y="60" width="1" height="1"/><rect x="33" y="60" width="1" height="1"/><rect x="36" y="60" width="1" height="1"/><rect x="39" y="60" width="1" height="1"/><rect x="42" y="60" width="1" height="1"/><rect x="45" y="60" width="1" height="1"/><rect x="48" y="60" width="1" height="1"/><rect x="51" y="60" width="1" height="1"/><rect x="54" y="60" width="1" height="1"/><rect x="57" y="60" width="1" height="1"/><rect x="60" y="60" width="1" height="1"/><rect x="63" y="60" width="1" height="1"/><rect x="66" y="60" width="1" height="1"/><rect x="69" y="60" width="1" height="1"/><rect x="72" y="60" width="1" height="1"/><rect x="75" y="60" width="1" height="1"/><rect x="79" y="60" width="4" height="1"/><rect x="86" y="60" width="1" height="1"/><rect x="89" y="60" width="3" height="1"/><rect x="94" y="60" width="4" height="1"/><rect x="101" y="60" width="1" height="1"/><rect x="105" y="60" width="1" height="1"/><rect x="111" y="60" width="1" height="1"/><rect x="114" y="60" width="1" height="1"/><rect x="119" y="60" width="1" height="1"/><rect x="124" y="60" width="4" height="1"/><rect x="2" y="61" width="2" height="1"/><rect x="5" y="61" width="1" height="1"/><rect x="8" y="61" width="1" height="1"/><rect x="12" y="61" width="1" height="1"/><rect x="15" y="61" width="1" height="1"/><rect x="18" y="61" width="1" height="1"/><rect x="22" y="61" width="1" height="1"/><rect x="79" y="61" width="1" height="1"/><rect x="82" y="61" width="1" height="1"/><rect x="86" y="61" width="1" height="1"/><rect x="89" y="61" width="1" height="1"/><rect x="92" y="61" width="1" height="1"/><rect x="94" y="61" width="1" height="1"/><rect x="97" y="61" width="1" height="1"/><rect x="99" y="61" width="1" height="1"/><rect x="102" y="61" width="1" height="1"/><rect x="104" y="61" width="1" height="1"/><rect x="109" y="61" width="1" height="1"/><rect x="112" y="61" width="1" height="1"/><rect x="114" y="61" width="1" height="1"/><rect x="119" y="61" width="1" height="1"/><rect x="124" y="61" width="2" height="1"/><rect x="3" y="62" width="1" height="1"/><rect x="6" y="62" width="2" height="1"/><rect x="11" y="62" width="3" height="1"/><rect x="16" y="62" width="2" height="1"/><rect x="21" y="62" width="3" height="1"/><rect x="79" y="62" width="1" height="1"/><rect x="82" y="62" width="1" height="1"/><rect x="86" y="62" width="1" height="1"/><rect x="89" y="62" width="1" height="1"/><rect x="92" y="62" width="1" height="1"/><rect x="94" y="62" width="1" height="1"/><rect x="97" y="62" width="1" height="1"/><rect x="100" y="62" width="2" height="1"/><rect x="104" y="62" width="1" height="1"/><rect x="110" y="62" width="2" height="1"/><rect x="114" y="62" width="4" height="1"/><rect x="119" y="62" width="4" height="1"/><rect x="124" y="62" width="1" height="1"/><rect x="22" y="63" width="1" height="1"/></g></svg>
