<svg xmlns="http://www.w3.org/2000/svg" viewBox="0 0 128 64" width="128" height="64" shape-rendering="crispEdges"><title>Pebblebol screen: mg_packet_flood_run</title><rect width="128" height="64" fill="#000"/><g fill="#fff"><rect x="29" y="12" width="1" height="1"/><rect x="33" y="12" width="1" height="1"/><rect x="37" y="12" width="1" height="1"/><rect x="41" y="12" width="1" height="1"/><rect x="45" y="12" width="1" height="1"/><rect x="49" y="12" width="1" height="1"/><rect x="53" y="12" width="1" height="1"/><rect x="57" y="12" width="1" height="1"/><rect x="61" y="12" width="1" height="1"/><rect x="65" y="12" width="1" height="1"/><rect x="69" y="12" width="1" height="1"/><rect x="73" y="12" width="1" height="1"/><rect x="77" y="12" width="1" height="1"/><rect x="81" y="12" width="1" height="1"/><rect x="85" y="12" width="1" height="1"/><rect x="89" y="12" width="1" height="1"/><rect x="93" y="12" width="1" height="1"/><rect x="97" y="12" width="1" height="1"/><rect x="52" y="15" width="24" height="1"/><rect x="52" y="16" width="1" height="1"/><rect x="63" y="16" width="2" height="1"/><rect x="75" y="16" width="1" height="1"/><rect x="52" y="17" width="1" height="1"/><rect x="62" y="17" width="1" height="1"/><rect x="65" y="17" width="1" height="1"/><rect x="75" y="17" width="1" height="1"/><rect x="52" y="18" width="1" height="1"/><rect x="65" y="18" width="1" height="1"/><rect x="75" y="18" width="1" height="1"/><rect x="52" y="19" width="1" height="1"/><rect x="63" y="19" width="2" height="1"/><rect x="75" y="19" width="1" height="1"/><rect x="52" y="20" width="1" height="1"/><rect x="62" y="20" width="1" height="1"/><rect x="75" y="20" width="1" height="1"/><rect x="52" y="21" width="1" height="1"/><rect x="62" y="21" width="4" height="1"/><rect x="75" y="21" width="1" height="1"/><rect x="52" y="22" width="1" height="1"/><rect x="75" y="22" width="1" height="1"/><rect x="52" y="23" width="24" height="1"/><rect x="52" y="25" width="24" height="1"/><rect x="52" y="26" width="1" height="1"/><rect x="63" y="26" width="2" height="1"/><rect x="75" y="26" width="1" height="1"/><rect x="52" y="27" width="1" height="1"/><rect x="62" y="27" width="1" height="1"/><rect x="65" y="27" width="1" height="1"/><rect x="75" y="27" width="1" height="1"/><rect x="52" y="28" width="1" height="1"/><rect x="65" y="28" width="1" height="1"/><rect x="75" y="28" width="1" height="1"/><rect x="52" y="29" width="1" height="1"/><rect x="63" y="29" width="2" height="1"/><rect x="75" y="29" width="1" height="1"/><rect x="52" y="30" width="1" height="1"/><rect x="62" y="30" width="1" height="1"/><rect x="75" y="30" width="1" height="1"/><rect x="52" y="31" width="1" height="1"/><rect x="62" y="31" width="4" height="1"/><rect x="75" y="31" width="1" height="1"/><rect x="52" y="32" width="1" height="1"/><rect x="75" y="32" width="1" height="1"/><rect x="52" y="33" width="24" height="1"/><rect x="46" y="36" width="36" height="1"/><rect x="46" y="37" width="6" height="1"/><rect x="81" y="37" width="1" height="1"/><rect x="46" y="38" width="6" height="1"/><rect x="81" y="38" width="1" height="1"/><rect x="46" y="39" width="6" height="1"/><rect x="81" y="39" width="1" height="1"/><rect x="46" y="40" width="36" height="1"/><rect x="0" y="42" width="34" height="1"/><rect x="46" y="42" width="36" height="1"/><rect x="94" y="42" width="34" height="1"/><rect x="0" y="43" width="1" height="1"/><rect x="33" y="43" width="1" height="1"/><rect x="46" y="43" width="1" height="1"/><rect x="81" y="43" width="1" height="1"/><rect x="94" y="43" width="1" height="1"/><rect x="127" y="43" width="1" height="1"/><rect x="0" y="44" width="1" height="1"/><rect x="17" y="44" width="2" height="1"/><rect x="33" y="44" width="1" height="1"/><rect x="46" y="44" width="1" height="1"/><rect x="61" y="44" width="4" height="1"/><rect x="81" y="44" width="1" height="1"/><rect x="94" y="44" width="1" height="1"/><rect x="108" y="44" width="4" height="1"/><rect x="127" y="44" width="1" height="1"/><rect x="0" y="45" width="1" height="1"/><rect x="16" y="45" width="3" height="1"/><rect x="33" y="45" width="1" height="1"/><rect x="46" y="45" width="1" height="1"/><rect x="61" y="45" width="2" height="1"/><rect x="64" y="45" width="2" height="1"/><rect x="81" y="45" width="1" height="1"/><rect x="94" y="45" width="1" height="1"/><rect x="108" y="45" width="2" height="1"/><rect x="111" y="45" width="2" height="1"/><rect x="127" y="45" width="1" height="1"/><rect x="0" y="46" width="1" height="1"/><rect x="15" y="46" width="4" height="1"/><rect x="33" y="46" width="1" height="1"/><rect x="46" y="46" width="1" height="1"/><rect x="64" y="46" width="2" height="1"/><rect x="81" y="46" width="1" height="1"/><rect x="94" y="46" width="1" height="1"/><rect x="111" y="46" width="2" height="1"/><rect x="127" y="46" width="1" height="1"/><rect x="0" y="47" width="1" height="1"/><rect x="17" y="47" width="2" height="1"/><rect x="33" y="47" width="1" height="1"/><rect x="46" y="47" width="1" height="1"/><rect x="64" y="47" width="1" height="1"/><rect x="81" y="47" width="1" height="1"/><rect x="94" y="47" width="1" height="1"/><rect x="111" y="47" width="1" height="1"/><rect x="127" y="47" width="1" height="1"/><rect x="0" y="48" width="1" height="1"/><rect x="17" y="48" width="2" height="1"/><rect x="33" y="48" width="14" height="1"/><rect x="63" y="48" width="1" height="1"/><rect x="81" y="48" width="14" height="1"/><rect x="110" y="48" width="1" height="1"/><rect x="127" y="48" width="1" height="1"/><rect x="0" y="49" width="1" height="1"/><rect x="17" y="49" width="2" height="1"/><rect x="33" y="49" width="1" height="1"/><rect x="46" y="49" width="1" height="1"/><rect x="62" y="49" width="1" height="1"/><rect x="81" y="49" width="1" height="1"/><rect x="94" y="49" width="1" height="1"/><rect x="109" y="49" width="1" height="1"/><rect x="127" y="49" width="1" height="1"/><rect x="0" y="50" width="1" height="1"/><rect x="17" y="50" width="2" height="1"/><rect x="33" y="50" width="1" height="1"/><rect x="46" y="50" width="1" height="1"/><rect x="61" y="50" width="5" height="1"/><rect x="81" y="50" width="1" height="1"/><rect x="94" y="50" width="1" height="1"/><rect x="108" y="50" width="5" height="1"/><rect x="127" y="50" width="1" height="1"/><rect x="0" y="51" width="1" height="1"/><rect x="17" y="51" width="2" height="1"/><rect x="33" y="51" width="1" height="1"/><rect x="46" y="51" width="1" height="1"/><rect x="61" y="51" width="5" height="1"/><rect x="81" y="51" width="1" height="1"/><rect x="94" y="51" width="1" height="1"/><rect x="108" y="51" width="5" height="1"/><rect x="127" y="51" width="1" height="1"/><rect x="0" y="52" width="1" height="1"/><rect x="33" y="52" width="1" height="1"/><rect x="46" y="52" width="1" height="1"/><rect x="81" y="52" width="1" height="1"/><rect x="94" y="52" width="1" height="1"/><rect x="127" y="52" width="1" height="1"/><rect x="0" y="53" width="1" height="1"/><rect x="33" y="53" width="1" height="1"/><rect x="46" y="53" width="1" height="1"/><rect x="81" y="53" width="1" height="1"/><rect x="94" y="53" width="1" height="1"/><rect x="127" y="53" width="1" height="1"/><rect x="0" y="54" width="34" height="1"/><rect x="46" y="54" width="36" height="1"/><rect x="94" y="54" width="34" height="1"/></g></svg>
