<svg xmlns="http://www.w3.org/2000/svg" viewBox="0 0 128 64" width="128" height="64" shape-rendering="crispEdges"><title>Pebblebol screen: status_b_genome</title><rect width="128" height="64" fill="#000"/><g fill="#fff"><rect x="0" y="0" width="128" height="1"/><rect x="0" y="1" width="128" height="1"/><rect x="0" y="2" width="2" height="1"/><rect x="7" y="2" width="121" height="1"/><rect x="0" y="3" width="14" height="1"/><rect x="19" y="3" width="109" height="1"/><rect x="0" y="4" width="8" height="1"/><rect x="13" y="4" width="1" height="1"/><rect x="19" y="4" width="109" height="1"/><rect x="0" y="5" width="14" height="1"/><rect x="19" y="5" width="109" height="1"/><rect x="0" y="6" width="128" height="1"/><rect x="0" y="7" width="128" height="1"/><rect x="0" y="8" width="2" height="1"/><rect x="7" y="8" width="1" height="1"/><rect x="13" y="8" width="1" height="1"/><rect x="19" y="8" width="109" height="1"/><rect x="0" y="9" width="2" height="1"/><rect x="7" y="9" width="1" height="1"/><rect x="13" y="9" width="1" height="1"/><rect x="19" y="9" width="109" height="1"/><rect x="0" y="10" width="128" height="1"/><rect x="5" y="13" width="6" height="1"/><rect x="3" y="14" width="10" height="1"/><rect x="17" y="14" width="5" height="1"/><rect x="23" y="14" width="5" height="1"/><rect x="35" y="14" width="5" height="1"/><rect x="2" y="15" width="12" height="1"/><rect x="17" y="15" width="5" height="1"/><rect x="2" y="16" width="2" height="1"/><rect x="5" y="16" width="5" height="1"/><rect x="11" y="16" width="3" height="1"/><rect x="23" y="16" width="5" height="1"/><rect x="29" y="16" width="5" height="1"/><rect x="2" y="17" width="12" height="1"/><rect x="3" y="18" width="10" height="1"/><rect x="17" y="18" width="5" height="1"/><rect x="29" y="18" width="5" height="1"/><rect x="5" y="19" width="6" height="1"/><rect x="6" y="20" width="4" height="1"/><rect x="17" y="20" width="5" height="1"/><rect x="23" y="20" width="5" height="1"/><rect x="29" y="20" width="5" height="1"/><rect x="35" y="20" width="5" height="1"/><rect x="6" y="21" width="1" height="1"/><rect x="9" y="21" width="1" height="1"/><rect x="6" y="22" width="1" height="1"/><rect x="9" y="22" width="1" height="1"/><rect x="5" y="23" width="6" height="1"/><rect x="5" y="24" width="6" height="1"/><rect x="22" y="25" width="4" height="1"/><rect x="32" y="25" width="4" height="1"/><rect x="42" y="25" width="4" height="1"/><rect x="47" y="25" width="4" height="1"/><rect x="27" y="26" width="4" height="1"/><rect x="37" y="26" width="4" height="1"/><rect x="47" y="26" width="4" height="1"/><rect x="17" y="27" width="4" height="1"/><rect x="22" y="27" width="4" height="1"/><rect x="27" y="27" width="4" height="1"/><rect x="42" y="27" width="4" height="1"/><rect x="17" y="28" width="4" height="1"/><rect x="27" y="28" width="4" height="1"/><rect x="22" y="29" width="4" height="1"/><rect x="37" y="29" width="4" height="1"/><rect x="47" y="29" width="4" height="1"/><rect x="17" y="30" width="4" height="1"/><rect x="22" y="30" width="4" height="1"/><rect x="27" y="30" width="4" height="1"/><rect x="32" y="30" width="4" height="1"/><rect x="37" y="30" width="4" height="1"/><rect x="42" y="30" width="4" height="1"/><rect x="47" y="30" width="4" height="1"/><rect x="2" y="34" width="4" height="1"/><rect x="7" y="34" width="4" height="1"/><rect x="27" y="34" width="4" height="1"/><rect x="47" y="34" width="4" height="1"/><rect x="52" y="34" width="4" height="1"/><rect x="62" y="34" width="4" height="1"/><rect x="2" y="35" width="4" height="1"/><rect x="12" y="35" width="4" height="1"/><rect x="17" y="35" width="4" height="1"/><rect x="27" y="35" width="4" height="1"/><rect x="47" y="35" width="4" height="1"/><rect x="62" y="35" width="4" height="1"/><rect x="2" y="36" width="4" height="1"/><rect x="7" y="36" width="4" height="1"/><rect x="12" y="36" width="4" height="1"/><rect x="17" y="36" width="4" height="1"/><rect x="52" y="36" width="4" height="1"/><rect x="62" y="36" width="4" height="1"/><rect x="12" y="37" width="4" height="1"/><rect x="17" y="37" width="4" height="1"/><rect x="57" y="37" width="4" height="1"/><rect x="62" y="37" width="4" height="1"/><rect x="72" y="37" width="4" height="1"/><rect x="27" y="38" width="4" height="1"/><rect x="47" y="38" width="4" height="1"/><rect x="57" y="38" width="4" height="1"/><rect x="72" y="38" width="4" height="1"/><rect x="2" y="39" width="4" height="1"/><rect x="7" y="39" width="4" height="1"/><rect x="12" y="39" width="4" height="1"/><rect x="17" y="39" width="4" height="1"/><rect x="22" y="39" width="4" height="1"/><rect x="27" y="39" width="4" height="1"/><rect x="32" y="39" width="4" height="1"/><rect x="37" y="39" width="4" height="1"/><rect x="42" y="39" width="4" height="1"/><rect x="47" y="39" width="4" height="1"/><rect x="52" y="39" width="4" height="1"/><rect x="57" y="39" width="4" height="1"/><rect x="62" y="39" width="4" height="1"/><rect x="67" y="39" width="4" height="1"/><rect x="72" y="39" width="4" height="1"/><rect x="2" y="42" width="4" height="1"/><rect x="7" y="42" width="4" height="1"/><rect x="12" y="42" width="4" height="1"/><rect x="27" y="42" width="4" height="1"/><rect x="37" y="42" width="4" height="1"/><rect x="57" y="42" width="4" height="1"/><rect x="62" y="42" width="4" height="1"/><rect x="72" y="42" width="4" height="1"/><rect x="77" y="42" width="4" height="1"/><rect x="82" y="42" width="4" height="1"/><rect x="87" y="42" width="4" height="1"/><rect x="97" y="42" width="4" height="1"/><rect x="102" y="42" width="4" height="1"/><rect x="112" y="42" width="4" height="1"/><rect x="2" y="43" width="4" height="1"/><rect x="17" y="43" width="4" height="1"/><rect x="37" y="43" width="4" height="1"/><rect x="77" y="43" width="4" height="1"/><rect x="87" y="43" width="4" height="1"/><rect x="92" y="43" width="4" height="1"/><rect x="102" y="43" width="4" height="1"/><rect x="7" y="44" width="4" height="1"/><rect x="12" y="44" width="4" height="1"/><rect x="22" y="44" width="4" height="1"/><rect x="27" y="44" width="4" height="1"/><rect x="57" y="44" width="4" height="1"/><rect x="62" y="44" width="4" height="1"/><rect x="67" y="44" width="4" height="1"/><rect x="87" y="44" width="4" height="1"/><rect x="92" y="44" width="4" height="1"/><rect x="97" y="44" width="4" height="1"/><rect x="112" y="44" width="4" height="1"/><rect x="57" y="45" width="4" height="1"/><rect x="82" y="45" width="4" height="1"/><rect x="87" y="45" width="4" height="1"/><rect x="92" y="45" width="4" height="1"/><rect x="2" y="46" width="4" height="1"/><rect x="7" y="46" width="4" height="1"/><rect x="17" y="46" width="4" height="1"/><rect x="22" y="46" width="4" height="1"/><rect x="37" y="46" width="4" height="1"/><rect x="62" y="46" width="4" height="1"/><rect x="67" y="46" width="4" height="1"/><rect x="102" y="46" width="4" height="1"/><rect x="112" y="46" width="4" height="1"/><rect x="2" y="47" width="4" height="1"/><rect x="7" y="47" width="4" height="1"/><rect x="12" y="47" width="4" height="1"/><rect x="17" y="47" width="4" height="1"/><rect x="22" y="47" width="4" height="1"/><rect x="27" y="47" width="4" height="1"/><rect x="32" y="47" width="4" height="1"/><rect x="37" y="47" width="4" height="1"/><rect x="42" y="47" width="4" height="1"/><rect x="47" y="47" width="4" height="1"/><rect x="52" y="47" width="4" height="1"/><rect x="57" y="47" width="4" height="1"/><rect x="62" y="47" width="4" height="1"/><rect x="67" y="47" width="4" height="1"/><rect x="72" y="47" width="4" height="1"/><rect x="77" y="47" width="4" height="1"/><rect x="82" y="47" width="4" height="1"/><rect x="87" y="47" width="4" height="1"/><rect x="92" y="47" width="4" height="1"/><rect x="97" y="47" width="4" height="1"/><rect x="102" y="47" width="4" height="1"/><rect x="107" y="47" width="4" height="1"/><rect x="112" y="47" width="4" height="1"/><rect x="12" y="49" width="4" height="1"/><rect x="22" y="49" width="4" height="1"/><rect x="27" y="49" width="4" height="1"/><rect x="32" y="49" width="4" height="1"/><rect x="42" y="49" width="4" height="1"/><rect x="112" y="49" width="4" height="1"/><rect x="122" y="49" width="4" height="1"/><rect x="7" y="50" width="4" height="1"/><rect x="17" y="50" width="4" height="1"/><rect x="42" y="50" width="4" height="1"/><rect x="107" y="50" width="4" height="1"/><rect x="117" y="50" width="4" height="1"/><rect x="122" y="50" width="4" height="1"/><rect x="2" y="51" width="4" height="1"/><rect x="17" y="51" width="4" height="1"/><rect x="27" y="51" width="4" height="1"/><rect x="37" y="51" width="4" height="1"/><rect x="42" y="51" width="4" height="1"/><rect x="122" y="51" width="4" height="1"/><rect x="17" y="52" width="4" height="1"/><rect x="32" y="52" width="4" height="1"/><rect x="37" y="52" width="4" height="1"/><rect x="42" y="52" width="4" height="1"/><rect x="122" y="52" width="4" height="1"/><rect x="2" y="53" width="4" height="1"/><rect x="7" y="53" width="4" height="1"/><rect x="22" y="53" width="4" height="1"/><rect x="27" y="53" width="4" height="1"/><rect x="107" y="53" width="4" height="1"/><rect x="117" y="53" width="4" height="1"/><rect x="2" y="54" width="4" height="1"/><rect x="7" y="54" width="4" height="1"/><rect x="12" y="54" width="4" height="1"/><rect x="17" y="54" width="4" height="1"/><rect x="22" y="54" width="4" height="1"/><rect x="27" y="54" width="4" height="1"/><rect x="32" y="54" width="4" height="1"/><rect x="37" y="54" width="4" height="1"/><rect x="42" y="54" width="4" height="1"/><rect x="107" y="54" width="4" height="1"/><rect x="112" y="54" width="4" height="1"/><rect x="117" y="54" width="4" height="1"/><rect x="122" y="54" width="4" height="1"/><rect x="0" y="58" width="4" height="1"/><rect x="5" y="58" width="4" height="1"/><rect x="10" y="58" width="4" height="1"/><rect x="20" y="58" width="4" height="1"/><rect x="30" y="58" width="4" height="1"/><rect x="98" y="58" width="4" height="1"/><rect x="113" y="58" width="4" height="1"/><rect x="118" y="58" width="4" height="1"/><rect x="124" y="58" width="4" height="1"/><rect x="0" y="59" width="4" height="1"/><rect x="10" y="59" width="4" height="1"/><rect x="30" y="59" width="4" height="1"/><rect x="108" y="59" width="4" height="1"/><rect x="118" y="59" width="4" height="1"/><rect x="124" y="59" width="4" height="1"/><rect x="0" y="60" width="4" height="1"/><rect x="5" y="60" width="4" height="1"/><rect x="15" y="60" width="4" height="1"/><rect x="25" y="60" width="4" height="1"/><rect x="30" y="60" width="4" height="1"/><rect x="38" y="60" width="1" height="1"/><rect x="41" y="60" width="1" height="1"/><rect x="44" y="60" width="1" height="1"/><rect x="47" y="60" width="1" height="1"/><rect x="50" y="60" width="1" height="1"/><rect x="53" y="60" width="1" height="1"/><rect x="56" y="60" width="1" height="1"/><rect x="59" y="60" width="1" height="1"/><rect x="62" y="60" width="1" height="1"/><rect x="65" y="60" width="1" height="1"/><rect x="68" y="60" width="1" height="1"/><rect x="71" y="60" width="1" height="1"/><rect x="74" y="60" width="1" height="1"/><rect x="77" y="60" width="1" height="1"/><rect x="80" y="60" width="1" height="1"/><rect x="83" y="60" width="1" height="1"/><rect x="86" y="60" width="1" height="1"/><rect x="89" y="60" width="1" height="1"/><rect x="92" y="60" width="1" height="1"/><rect x="103" y="60" width="4" height="1"/><rect x="124" y="60" width="4" height="1"/><rect x="0" y="61" width="4" height="1"/><rect x="30" y="61" width="4" height="1"/><rect x="124" y="61" width="4" height="1"/><rect x="0" y="62" width="4" height="1"/><rect x="10" y="62" width="4" height="1"/><rect x="15" y="62" width="4" height="1"/><rect x="103" y="62" width="4" height="1"/><rect x="108" y="62" width="4" height="1"/><rect x="118" y="62" width="4" height="1"/><rect x="124" y="62" width="4" height="1"/><rect x="5" y="63" width="4" height="1"/><rect x="10" y="63" width="4" height="1"/><rect x="15" y="63" width="4" height="1"/><rect x="20" y="63" width="4" height="1"/><rect x="25" y="63" width="4" height="1"/><rect x="30" y="63" width="4" height="1"/><rect x="98" y="63" width="4" height="1"/><rect x="103" y="63" width="4" height="1"/><rect x="108" y="63" width="4" height="1"/><rect x="113" y="63" width="4" height="1"/><rect x="118" y="63" width="4" height="1"/></g></svg>
